<svg id="asso" xmlns="http://www.w3.org/2000/svg" xmlns:xlink="http://www.w3.org/1999/xlink" viewBox="0 0 149 149"><defs><style>.cls-1{fill:url(#Dégradé_sans_nom_23);}.cls-2{fill:#fff;}.cls-3{fill:#e6e6e6;}.cls-4{fill:#666;}</style><linearGradient id="Dégradé_sans_nom_23" x1="74.5" x2="74.5" y2="149" gradientUnits="userSpaceOnUse"><stop offset="0" stop-color="#fff"/><stop offset="0" stop-color="#f7691e"/><stop offset="0.27" stop-color="#ad4d35"/><stop offset="0.52" stop-color="#6f3449"/><stop offset="0.74" stop-color="#412358"/><stop offset="0.9" stop-color="#251861"/><stop offset="1" stop-color="#1b1464"/></linearGradient></defs><title>asso</title><circle class="cls-1" cx="74.5" cy="74.5" r="74.5"/><path class="cls-2" d="M47.05,49v55.59a53,53,0,0,0,51.88,1.23V49a49.46,49.46,0,0,1-24.7,7.41A49.53,49.53,0,0,1,47.05,49Z" transform="translate(-0.5 -0.5)"/><path class="cls-3" d="M48.29,46.53c0-3.48,11.44-6.8,21-7.42C83,38.24,97.67,42.6,97.7,46.53c0,3-8.74,5.5-11.12,6.17C82.2,53.94,78.82,53.94,73,53.94c-5.61,0-9.1,0-13.59-1.24C57.37,52.14,48.26,49.63,48.29,46.53Z" transform="translate(-0.5 -0.5)"/><path class="cls-2" d="M100.17,57.64c2.17-1.9,14.16,3,14.82,11.12.51,6.27-5.74,13.41-14.82,13.59V79.88c7.23,0,12-6.16,11.12-11.12-.73-4.11-5.41-7.75-11.12-7.41C99.66,59.74,99.46,58.27,100.17,57.64Z" transform="translate(-0.5 -0.5)"/><polygon class="cls-4" points="67.9 65.5 76.3 65.5 76.3 75.3 84.7 75.3 84.7 83.7 76.3 83.7 76.3 93.5 67.9 93.5 67.9 83.7 59.5 83.7 59.5 75.3 66.5 75.3 67.9 75.3 67.9 65.5"/></svg>