<svg id="character" xmlns="http://www.w3.org/2000/svg" xmlns:xlink="http://www.w3.org/1999/xlink" viewBox="0 0 372.68 831.08"><defs><style>.cls-1,.cls-10,.cls-11,.cls-12,.cls-13,.cls-14,.cls-15,.cls-16,.cls-17,.cls-18,.cls-19,.cls-2,.cls-20,.cls-21,.cls-22,.cls-23,.cls-24,.cls-25,.cls-26,.cls-27,.cls-28,.cls-29,.cls-3,.cls-30,.cls-31,.cls-32,.cls-33,.cls-34,.cls-35,.cls-36,.cls-37,.cls-38,.cls-39,.cls-4,.cls-40,.cls-41,.cls-42,.cls-43,.cls-44,.cls-45,.cls-46,.cls-48,.cls-49,.cls-5,.cls-50,.cls-51,.cls-52,.cls-53,.cls-54,.cls-55,.cls-6,.cls-64,.cls-66,.cls-67,.cls-68,.cls-7,.cls-8,.cls-9{stroke:#000;}.cls-1,.cls-10,.cls-11,.cls-12,.cls-13,.cls-14,.cls-15,.cls-16,.cls-17,.cls-18,.cls-19,.cls-2,.cls-20,.cls-21,.cls-22,.cls-23,.cls-24,.cls-25,.cls-26,.cls-27,.cls-28,.cls-29,.cls-3,.cls-30,.cls-31,.cls-32,.cls-33,.cls-34,.cls-35,.cls-36,.cls-37,.cls-38,.cls-39,.cls-4,.cls-40,.cls-41,.cls-42,.cls-43,.cls-44,.cls-45,.cls-46,.cls-48,.cls-49,.cls-5,.cls-50,.cls-51,.cls-52,.cls-53,.cls-54,.cls-55,.cls-56,.cls-57,.cls-58,.cls-59,.cls-6,.cls-60,.cls-61,.cls-62,.cls-64,.cls-66,.cls-67,.cls-68,.cls-7,.cls-8,.cls-9{stroke-miterlimit:10;}.cls-1{fill:url(#Dégradé_sans_nom_41);}.cls-2{fill:url(#Dégradé_sans_nom_43);}.cls-3{fill:url(#Dégradé_sans_nom_44);}.cls-4{fill:url(#Dégradé_sans_nom_41-2);}.cls-5{fill:url(#Dégradé_sans_nom_18);}.cls-6{fill:url(#Dégradé_sans_nom_18-2);}.cls-7{fill:url(#Dégradé_sans_nom_18-3);}.cls-8{fill:url(#Dégradé_sans_nom_18-4);}.cls-9{fill:url(#Dégradé_sans_nom_20);}.cls-10{fill:url(#Dégradé_sans_nom_33);}.cls-11{fill:url(#Dégradé_sans_nom_33-2);}.cls-12{fill:url(#Dégradé_sans_nom_25);}.cls-13{fill:url(#Dégradé_sans_nom_25-2);}.cls-14{fill:url(#Dégradé_sans_nom_20-2);}.cls-15{fill:url(#Dégradé_sans_nom_34);}.cls-16{fill:url(#Dégradé_sans_nom_34-2);}.cls-17{fill:url(#Dégradé_sans_nom_34-3);}.cls-18{fill:url(#Dégradé_sans_nom_18-5);}.cls-19{fill:url(#Dégradé_sans_nom_18-6);}.cls-20{fill:url(#Dégradé_sans_nom_18-7);}.cls-21{fill:url(#Dégradé_sans_nom_18-8);}.cls-22{fill:url(#Dégradé_sans_nom_34-4);}.cls-23{fill:url(#Dégradé_sans_nom_18-9);}.cls-24{fill:url(#Dégradé_sans_nom_18-10);}.cls-25{fill:url(#Dégradé_sans_nom_18-11);}.cls-26{fill:url(#Dégradé_sans_nom_18-12);}.cls-27{fill:url(#Dégradé_sans_nom_34-5);}.cls-28{fill:url(#Dégradé_sans_nom_34-6);}.cls-29{fill:url(#Dégradé_sans_nom_34-7);}.cls-30{fill:url(#Dégradé_sans_nom_18-13);}.cls-31{fill:url(#Dégradé_sans_nom_18-14);}.cls-32,.cls-35,.cls-48,.cls-49,.cls-50,.cls-66{fill:none;}.cls-32,.cls-48,.cls-49,.cls-50,.cls-66{stroke-width:0.5px;}.cls-32{stroke-dasharray:2 4;}.cls-33{fill:url(#Dégradé_sans_nom_34-8);}.cls-34{fill:url(#Dégradé_sans_nom_34-9);}.cls-36{fill:url(#Dégradé_sans_nom_34-10);}.cls-37{fill:url(#Dégradé_sans_nom_34-11);}.cls-38{fill:url(#Dégradé_sans_nom_34-12);}.cls-39{fill:url(#Dégradé_sans_nom_18-15);}.cls-40{fill:url(#Dégradé_sans_nom_18-16);}.cls-41{fill:url(#Dégradé_sans_nom_34-13);}.cls-42{fill:url(#Dégradé_sans_nom_34-14);}.cls-43{fill:url(#Dégradé_sans_nom_34-15);}.cls-44{fill:url(#Dégradé_sans_nom_34-16);}.cls-45{fill:url(#Dégradé_sans_nom_34-17);}.cls-46{fill:url(#Dégradé_sans_nom_18-17);}.cls-47{fill:url(#Dégradé_sans_nom_18-18);}.cls-49{stroke-dasharray:1.98 3.95;}.cls-50{stroke-dasharray:2 3.99;}.cls-51{fill:url(#Dégradé_sans_nom_18-19);}.cls-52{fill:url(#Dégradé_sans_nom_18-20);}.cls-53{fill:url(#Dégradé_sans_nom_18-21);}.cls-54{fill:url(#Dégradé_sans_nom_18-22);}.cls-55{fill:url(#Dégradé_sans_nom_34-18);}.cls-56,.cls-57,.cls-58,.cls-59,.cls-60,.cls-61,.cls-62{stroke:#fff;}.cls-56{fill:url(#Dégradé_sans_nom_34-19);}.cls-57{fill:url(#Dégradé_sans_nom_34-20);}.cls-58{fill:url(#Dégradé_sans_nom_34-21);}.cls-59,.cls-63{fill:#fff;}.cls-60{fill:url(#Dégradé_sans_nom_34-22);}.cls-61{fill:url(#Dégradé_sans_nom_34-23);}.cls-62{fill:url(#Dégradé_sans_nom_34-24);}.cls-64{fill:url(#Dégradé_sans_nom_18-23);}.cls-65{fill:url(#Dégradé_sans_nom_18-24);}.cls-66{stroke-dasharray:2.01 4.02;}.cls-67{fill:url(#Dégradé_sans_nom_41-3);}.cls-68{fill:url(#Dégradé_sans_nom_41-4);}</style><radialGradient id="Dégradé_sans_nom_41" cx="499.37" cy="533.98" r="197.11" gradientUnits="userSpaceOnUse"><stop offset="0" stop-color="#1d0035"/><stop offset="1" stop-color="#dc4a7c"/></radialGradient><radialGradient id="Dégradé_sans_nom_43" cx="507.96" cy="300.85" r="110.6" gradientUnits="userSpaceOnUse"><stop offset="0.22" stop-color="#2d004b"/><stop offset="1" stop-color="#c81a4b"/></radialGradient><radialGradient id="Dégradé_sans_nom_44" cx="622.4" cy="297.22" r="44.16" gradientUnits="userSpaceOnUse"><stop offset="0" stop-color="#2d004b"/><stop offset="1" stop-color="#c81a4b"/></radialGradient><radialGradient id="Dégradé_sans_nom_41-2" cx="512.71" cy="198.22" r="121.18" xlink:href="#Dégradé_sans_nom_41"/><linearGradient id="Dégradé_sans_nom_18" x1="374.86" y1="487.73" x2="617.02" y2="487.73" gradientUnits="userSpaceOnUse"><stop offset="0.02" stop-color="#ff7354"/><stop offset="0.07" stop-color="#ff7c53"/><stop offset="0.35" stop-color="#ffa34e"/><stop offset="0.61" stop-color="#ffbf4b"/><stop offset="0.83" stop-color="#ffd049"/><stop offset="1" stop-color="#ffd648"/></linearGradient><linearGradient id="Dégradé_sans_nom_18-2" x1="585.77" y1="199.52" x2="601.71" y2="199.52" xlink:href="#Dégradé_sans_nom_18"/><linearGradient id="Dégradé_sans_nom_18-3" x1="419.89" y1="200.68" x2="439.75" y2="200.68" xlink:href="#Dégradé_sans_nom_18"/><linearGradient id="Dégradé_sans_nom_18-4" x1="427.69" y1="195.18" x2="598.09" y2="195.18" xlink:href="#Dégradé_sans_nom_18"/><linearGradient id="Dégradé_sans_nom_20" x1="503.42" y1="224.74" x2="530.56" y2="224.74" gradientUnits="userSpaceOnUse"><stop offset="0" stop-color="#2d004b"/><stop offset="0.04" stop-color="#3e054b"/><stop offset="0.17" stop-color="#71154b"/><stop offset="0.31" stop-color="#9c234b"/><stop offset="0.45" stop-color="#c02e4b"/><stop offset="0.58" stop-color="#dc374b"/><stop offset="0.72" stop-color="#ef3d4b"/><stop offset="0.86" stop-color="#fb414b"/><stop offset="1" stop-color="#ff424b"/></linearGradient><linearGradient id="Dégradé_sans_nom_33" x1="211.28" y1="155.68" x2="244.4" y2="155.68" gradientUnits="userSpaceOnUse"><stop offset="0" stop-color="#fff"/><stop offset="1" stop-color="#ffe89a"/></linearGradient><linearGradient id="Dégradé_sans_nom_33-2" x1="137.87" y1="154.36" x2="170.99" y2="154.36" xlink:href="#Dégradé_sans_nom_33"/><linearGradient id="Dégradé_sans_nom_25" x1="148.39" y1="154.36" x2="169.44" y2="154.36" gradientUnits="userSpaceOnUse"><stop offset="0" stop-color="#2d004b"/><stop offset="1" stop-color="#ff424b"/></linearGradient><linearGradient id="Dégradé_sans_nom_25-2" x1="211.28" y1="155.68" x2="232.33" y2="155.68" xlink:href="#Dégradé_sans_nom_25"/><linearGradient id="Dégradé_sans_nom_20-2" x1="485.31" y1="263.45" x2="550.86" y2="263.45" xlink:href="#Dégradé_sans_nom_20"/><linearGradient id="Dégradé_sans_nom_34" x1="493.22" y1="49.92" x2="513.89" y2="49.92" gradientUnits="userSpaceOnUse"><stop offset="0.33" stop-color="#2d004b"/><stop offset="1" stop-color="#c81a4b"/></linearGradient><linearGradient id="Dégradé_sans_nom_34-2" x1="419.73" y1="105.55" x2="603.22" y2="105.55" xlink:href="#Dégradé_sans_nom_34"/><linearGradient id="Dégradé_sans_nom_34-3" x1="419.13" y1="154.16" x2="613.81" y2="154.16" xlink:href="#Dégradé_sans_nom_34"/><linearGradient id="Dégradé_sans_nom_18-5" x1="677.77" y1="641.01" x2="692.6" y2="641.01" xlink:href="#Dégradé_sans_nom_18"/><linearGradient id="Dégradé_sans_nom_18-6" x1="670.35" y1="647.75" x2="685.18" y2="647.75" xlink:href="#Dégradé_sans_nom_18"/><linearGradient id="Dégradé_sans_nom_18-7" x1="659.85" y1="650.85" x2="674.68" y2="650.85" xlink:href="#Dégradé_sans_nom_18"/><linearGradient id="Dégradé_sans_nom_18-8" x1="646.83" y1="649.39" x2="660.27" y2="649.39" xlink:href="#Dégradé_sans_nom_18"/><linearGradient id="Dégradé_sans_nom_34-4" x1="588.37" y1="502.92" x2="696.03" y2="502.92" xlink:href="#Dégradé_sans_nom_34"/><linearGradient id="Dégradé_sans_nom_18-9" x1="333.58" y1="643.01" x2="348.41" y2="643.01" xlink:href="#Dégradé_sans_nom_18"/><linearGradient id="Dégradé_sans_nom_18-10" x1="340.99" y1="649.75" x2="355.82" y2="649.75" xlink:href="#Dégradé_sans_nom_18"/><linearGradient id="Dégradé_sans_nom_18-11" x1="351.5" y1="652.85" x2="366.33" y2="652.85" xlink:href="#Dégradé_sans_nom_18"/><linearGradient id="Dégradé_sans_nom_18-12" x1="365.91" y1="651.39" x2="379.34" y2="651.39" xlink:href="#Dégradé_sans_nom_18"/><linearGradient id="Dégradé_sans_nom_34-5" x1="324.35" y1="502.92" x2="432.01" y2="502.92" xlink:href="#Dégradé_sans_nom_34"/><linearGradient id="Dégradé_sans_nom_34-6" x1="374.86" y1="514.13" x2="617.02" y2="514.13" xlink:href="#Dégradé_sans_nom_34"/><linearGradient id="Dégradé_sans_nom_34-7" x1="481.97" y1="321.28" x2="548.64" y2="321.28" xlink:href="#Dégradé_sans_nom_34"/><linearGradient id="Dégradé_sans_nom_18-13" x1="512.91" y1="780.3" x2="547.99" y2="780.3" xlink:href="#Dégradé_sans_nom_18"/><linearGradient id="Dégradé_sans_nom_18-14" x1="506.18" y1="731.43" x2="549.83" y2="731.43" xlink:href="#Dégradé_sans_nom_18"/><linearGradient id="Dégradé_sans_nom_34-8" x1="508.62" y1="847.54" x2="537.65" y2="847.54" xlink:href="#Dégradé_sans_nom_34"/><linearGradient id="Dégradé_sans_nom_34-9" x1="522.32" y1="855.38" x2="622.12" y2="855.38" xlink:href="#Dégradé_sans_nom_34"/><linearGradient id="Dégradé_sans_nom_34-10" x1="506.12" y1="812.51" x2="574.52" y2="812.51" xlink:href="#Dégradé_sans_nom_34"/><linearGradient id="Dégradé_sans_nom_34-11" x1="526.79" y1="830.21" x2="621.06" y2="830.21" xlink:href="#Dégradé_sans_nom_34"/><linearGradient id="Dégradé_sans_nom_34-12" x1="531.04" y1="807.21" x2="563.53" y2="807.21" xlink:href="#Dégradé_sans_nom_34"/><linearGradient id="Dégradé_sans_nom_18-15" x1="453.16" y1="778.63" x2="488.24" y2="778.63" xlink:href="#Dégradé_sans_nom_18"/><linearGradient id="Dégradé_sans_nom_18-16" x1="446.28" y1="728.95" x2="497.07" y2="728.95" xlink:href="#Dégradé_sans_nom_18"/><linearGradient id="Dégradé_sans_nom_34-13" x1="463.5" y1="845.87" x2="492.52" y2="845.87" xlink:href="#Dégradé_sans_nom_34"/><linearGradient id="Dégradé_sans_nom_34-14" x1="379.03" y1="853.71" x2="478.82" y2="853.71" xlink:href="#Dégradé_sans_nom_34"/><linearGradient id="Dégradé_sans_nom_34-15" x1="426.63" y1="810.83" x2="495.02" y2="810.83" xlink:href="#Dégradé_sans_nom_34"/><linearGradient id="Dégradé_sans_nom_34-16" x1="380.09" y1="828.53" x2="474.35" y2="828.53" xlink:href="#Dégradé_sans_nom_34"/><linearGradient id="Dégradé_sans_nom_34-17" x1="437.61" y1="805.53" x2="470.1" y2="805.53" xlink:href="#Dégradé_sans_nom_34"/><linearGradient id="Dégradé_sans_nom_18-17" x1="375.41" y1="520.17" x2="617.57" y2="520.17" xlink:href="#Dégradé_sans_nom_18"/><linearGradient id="Dégradé_sans_nom_18-18" x1="382.16" y1="520.99" x2="609.72" y2="520.99" xlink:href="#Dégradé_sans_nom_18"/><linearGradient id="Dégradé_sans_nom_18-19" x1="412.04" y1="387.59" x2="461.99" y2="387.59" xlink:href="#Dégradé_sans_nom_18"/><linearGradient id="Dégradé_sans_nom_18-20" x1="102.82" y1="376.91" x2="123.53" y2="376.91" xlink:href="#Dégradé_sans_nom_18"/><linearGradient id="Dégradé_sans_nom_18-21" x1="556.3" y1="389.49" x2="604.91" y2="389.49" xlink:href="#Dégradé_sans_nom_18"/><linearGradient id="Dégradé_sans_nom_18-22" x1="245.87" y1="381.5" x2="266.58" y2="381.5" xlink:href="#Dégradé_sans_nom_18"/><linearGradient id="Dégradé_sans_nom_34-18" x1="459.86" y1="483.23" x2="553.15" y2="483.23" xlink:href="#Dégradé_sans_nom_34"/><linearGradient id="Dégradé_sans_nom_34-19" x1="460" y1="482.62" x2="553.85" y2="482.62" xlink:href="#Dégradé_sans_nom_34"/><linearGradient id="Dégradé_sans_nom_34-20" x1="487.68" y1="443.22" x2="541.35" y2="443.22" xlink:href="#Dégradé_sans_nom_34"/><linearGradient id="Dégradé_sans_nom_34-21" x1="489.58" y1="479.75" x2="518.2" y2="479.75" xlink:href="#Dégradé_sans_nom_34"/><linearGradient id="Dégradé_sans_nom_34-22" x1="520.58" y1="467.08" x2="542.16" y2="467.08" gradientTransform="translate(26.4 -28.42) rotate(3.14)" xlink:href="#Dégradé_sans_nom_34"/><linearGradient id="Dégradé_sans_nom_34-23" x1="521.12" y1="476.97" x2="542.71" y2="476.97" gradientTransform="translate(26.94 -28.44) rotate(3.14)" xlink:href="#Dégradé_sans_nom_34"/><linearGradient id="Dégradé_sans_nom_34-24" x1="521.67" y1="486.85" x2="543.25" y2="486.85" gradientTransform="translate(27.48 -28.45) rotate(3.14)" xlink:href="#Dégradé_sans_nom_34"/><linearGradient id="Dégradé_sans_nom_18-23" x1="437.02" y1="518.41" x2="580.07" y2="518.41" xlink:href="#Dégradé_sans_nom_18"/><linearGradient id="Dégradé_sans_nom_18-24" x1="443.83" y1="520.99" x2="570.93" y2="520.99" xlink:href="#Dégradé_sans_nom_18"/><radialGradient id="Dégradé_sans_nom_41-3" cx="410.42" cy="449.31" r="79.87" xlink:href="#Dégradé_sans_nom_41"/><radialGradient id="Dégradé_sans_nom_41-4" cx="593.25" cy="447.17" r="80.67" xlink:href="#Dégradé_sans_nom_41"/></defs><title>backpacker</title><g id="bag_backpackerItem" data-name="bag backpackerItem"><path class="cls-1" d="M639.66,391.55c-4-12.7-9.68-30.8-22.51-44.64-46.85-50.5-190-45.2-228.32,7-20.81,28.32-17.76,80-33.76,111.59a77.39,77.39,0,0,0-8,23.72c-1.75,10.84-.36,18,0,25.11.93,18.78-5.63,31.31-9.65,43.24-11.05,32.79-4.9,66.88-1.61,85.09,5.87,32.46,11.62,64.3,40.2,85.09,16.53,12,43.45,15.47,97.28,22.36,42.88,5.49,64.32,8.24,87.62,4.14,19.56-3.43,62.2-10.92,82.29-39.11,24.66-34.63,30.19-28.83,18.92-119.82A422.56,422.56,0,0,1,659,535.23c.39-23.38-6-26.56-11.25-58.59C640.45,432.88,649.82,423.9,639.66,391.55Z" transform="translate(-323.85 -44.62)"/><path class="cls-2" d="M635.26,248.74c-12.15-9.59-24.64-6.5-63.54-1.42-50.53,6.61-84.74,11.09-119.64,11.55-48.66.65-61-7-73.92,5-22.78,21.16-19.17,76.67,4.28,92.33,6.59,4.41,11.82,3.7,57-.87,36.31-3.66,54.58-5.5,60.27-5.81a732.33,732.33,0,0,1,78.85.18c26,1.74,35.7,4.13,47.8-2.93,18-10.5,23.39-31.43,24.48-35.68C656.3,290,652,262,635.26,248.74Z" transform="translate(-323.85 -44.62)"/><path class="cls-3" d="M623.06,243.15c-8.69.71-18.71,13.85-25.81,30.19-13.37,30.8-3.13,72.87,14,77.5,13.35,3.6,28.36-16.12,30.76-19.27,17.25-22.67,10.56-50.06,9.32-54.72-1.65-6.25-6.79-25.63-17.92-27.4-12.11-1.92-24.46,18.08-28.81,32.07-.51,1.64-5.94,20.05,2.35,39.05,2.27,5.2,6.86,15.73,13.76,16,7.38.25,12.86-11.37,15.55-17.08,2-4.25,8.39-19.22,3.35-36.65-1.63-5.65-4.73-16.38-11.43-17.43-7-1.1-13.54,8.91-16,14.58-5.18,11.72-.94,23,.5,26.86s4.79,12.76,9.55,12.83c5.11.08,9.34-10,10.33-17.29.79-5.9.35-16.52-5.09-18.57-2.73-1-6,.39-7.79,2.21-5.17,5.23-.08,15.37.3,16.11.94,1.82,2.68,5.17,4.67,5,3.42-.28,6.69-10.87,3.89-13.28-1.24-1.07-3.56-.41-5.48.44" transform="translate(-323.85 -44.62)"/></g><path id="curlyHair_backpackerItem" data-name="curlyHair backpackerItem" class="cls-4" d="M508.1,83.22c-10.19-1.7-14.49-2.67-21-1.24-3.45.77-6.08,1.91-22.14,12.37-12.1,7.88-18.2,11.88-20.95,14.84-7.68,8.27-11.2,17.16-13.16,22.26-5.8,15-1.92,18.22-7.79,27.2-6.1,9.35-12,8.43-14.36,16.69-2.43,8.42,2.53,13.27-1.2,18.55-3.46,4.91-9,2.43-13.16,8-2.81,3.74-4.15,9.88-1.8,13.6,3.21,5.08,11.38,2.63,12.57,6.19.92,2.76-3.61,5.42-10.17,14.22-4.65,6.22-8.85,11.84-7.19,15.45,1.85,4,9.3,1.94,10.78,5.68,1.64,4.14-6.92,8.14-7.19,16.58-.15,4.88,2.5,10.61,6.59,12.37,5.32,2.29,9.63-3.63,13.76-1.24,3.64,2.11,1.44,7.34,5.39,14.84,2.62,5,8.45,11.91,13.77,11.13,5.84-.86,6.31-10.35,12.56-11.13,2.77-.34,5.44,1.63,10.78,5.57,8.41,6.21,9.58,9.77,13.08,9.95,5.42.28,5.46-9.79,12.05-11.81s9.79,6.51,21.58,8.54c7.74,1.32,14.27-1,21.52-3.59,10.29-3.68,11.47-10.06,17.31-9.29,2,.26,5.87,3.13,13.7,8.86,5.43,4,7.34,5.65,9.85,5.08s2.58-2.87,7.07-6.35c2.65-2.06,5.32-4.12,8.62-4.13,4.88,0,6,4.46,10.15,4.13,3.9-.31,7.84-4.64,8.3-8.9.57-5.14-4.14-8.28-2.76-10.49,1-1.64,3.86-.31,10.45-.95,5.2-.51,8.56-.83,10.42-3.23,3.06-3.94-.29-10.45,1.79-11.54,1.57-.83,3.42,2.92,7.06,3.47,5.8.89,14.05-6.66,13.54-12.91-.56-6.7-11-8.76-10.42-14.52.28-3,3.1-3,5.73-7.53,2.82-4.91,3.93-12.49,1-17.75-3.43-6.22-9.56-3.88-12.49-9.68-3.05-6,2.56-10.48-.52-17.75-1.9-4.46-4.53-4-8.86-9.68-3.07-4-4.22-7.52-6.76-15.6-5.8-18.45-6-19.93-7.29-23.67-3.76-10.5-9.1-17.08-16.11-25.72-10.25-12.63-20.74-25.56-38-31.83C536.54,85.51,539.85,88.52,508.1,83.22Z" transform="translate(-323.85 -44.62)"/><path id="skin_bodyBase" data-name="skin bodyBase" class="cls-5" d="M605.16,519.38c-11.75-103.67,22.21-128.62-2.74-160.31C589.75,343,567.81,332.68,543,328.44a4.37,4.37,0,0,1-3.52-4.8c.41-4.43,0-9.7.1-15.71.12-10.92,1.15-20.57-2.92-26.16-9.71-13.37-43-9.69-49.61,3.84-1.55,3.2,0,15.09.34,26.65.18,5.93.06,9.87.15,12.71a4.31,4.31,0,0,1-3.4,4.39c-23.24,4.66-44.79,14.51-59.78,29.71-26.32,26.7-7.38,44.55-32.87,144C372.08,578.9,368,628,388.15,655.8c9,12.42,23.1,18.52,49.31,29.88,20,8.68,39.76,17.24,65.73,16.31,23.05-.83,22.77,1,49.37-12,30-14.66,44.93-22,54.78-35.32C627.19,627.83,611.37,574.15,605.16,519.38Z" transform="translate(-323.85 -44.62)"/><g id="skin_ears" data-name="skin ears"><path class="cls-6" d="M597.2,173c2,1.47,2.77,2.42,4.23,6.22,1.08,2.79-1.17,9-2.66,19.34-.7,4.82,1.64,9.6-.55,20.47-.89,4.42-1.36,6.64-2.49,6.93-2.69.7-6.85-9.24-8.67-14.88C582.14,195.84,592.59,179.45,597.2,173Z" transform="translate(-323.85 -44.62)"/><path class="cls-7" d="M427.87,171.24c-2.9-.28-5.72,2.61-7,4.77-1.06,1.84-1.63,4.3,0,13,2,10.53,3.44,10.36,3.76,16,.43,7.57-.72,15.8,1.39,19.74,1.83,3.41,6.14,6.19,9.21,5.19,6.23-2,4.2-24.9,4.06-28.39C438.85,189,434.57,171.87,427.87,171.24Z" transform="translate(-323.85 -44.62)"/></g><g id="baseFace"><path id="skin" class="cls-8" d="M427.69,187.84c-.11,16.53,1.44,15.19,1.81,41.32.37,25.21-1.06,27.51,1.82,34.14,6.85,15.83,23.68,22.95,41.65,30.55,8.84,3.73,22.25,9.26,40.93,10.26a109.43,109.43,0,0,0,52.35-10.26c12.6-6,23.2-11.05,29-22.46,3.07-6.06,3.66-11.7,1.81-37.73-1.49-21.12-2.68-28.71-3.62-40.43-3.08-38.59,2.89-42.8-1.81-55.7C581.84,110.71,557.4,96.05,546,92.61c-7.79-2.35-25.26-7.66-37.73-6.29A110.78,110.78,0,0,0,468.45,98c-21.59,10.94-26,24.5-30.79,30.54C428,140.83,427.9,156.5,427.69,187.84Z" transform="translate(-323.85 -44.62)"/><path id="skin_nose" data-name="skin nose" class="cls-9" d="M511.65,233c-3-1-8.14-3.82-8.22-7.58-.13-5.33,10-11.95,18.21-9.32,5,1.62,9.7,6.85,8.81,11.07C529.3,232.65,519,235.56,511.65,233Z" transform="translate(-323.85 -44.62)"/><ellipse class="cls-10" cx="227.84" cy="155.68" rx="16.56" ry="16.43"/><ellipse class="cls-11" cx="154.43" cy="154.36" rx="16.56" ry="16.43"/><ellipse class="cls-12" cx="158.91" cy="154.36" rx="10.52" ry="10.44"/><ellipse class="cls-13" cx="221.81" cy="155.68" rx="10.52" ry="10.44"/><path id="normalFace" class="cls-14" d="M485.38,259.08c1.35-2.69,16.12,4.1,32.48,5.3,20.36,1.5,32.28-6.52,33-4.44.4,1.19-4.32,4.74-8.78,6.09-8.08,2.45-9,1.78-24,2.3-13.78.47-17.48-.43-23.26-2.53C490.94,264.38,484.57,260.71,485.38,259.08Z" transform="translate(-323.85 -44.62)"/></g><g id="cap_backpackerItem" data-name="cap backpackerItem"><path class="cls-15" d="M493.52,54.24c1.16,1.55,4.74-1.19,12.45-1,4.72.12,7.1,1.24,7.76.15.81-1.32-1.68-4.68-4.57-6.44s-7.48-2.89-11.37-.45C494.56,48.52,492.39,52.74,493.52,54.24Z" transform="translate(-323.85 -44.62)"/><path class="cls-16" d="M419.87,152.58c2.32-19.75.34-49.19,16.33-68.41,22.39-26.91,54.69-29.81,63.52-30.6,6-.54,43.74-3.33,74.4,23.4,16.76,14.61,26.49,41,29,59.41,2,14.27-42.94-8.67-93.18-5.4C440.93,135.47,417.69,171.12,419.87,152.58Z" transform="translate(-323.85 -44.62)"/><path class="cls-17" d="M419.87,152.58c-.2,3.61-.14,1.58-.67,11-.54,9.6,2.19,22.19,5.7,27,2.82,3.91,4.63,4.54,8.59,4.54,9,0,12.6-4.07,24.73-11.66,2.06-1.3,27.77-19.71,60.36-14,20.65,3.63,32.62,12,57.55,15.56s30.83.67,33-1.56c6.12-6.23,4.73-17.12,3.93-23.4a56.51,56.51,0,0,0-9.92-23.74c-21.6-28.66-87.31-23.11-96.2-22.27C463.41,118.21,420.78,135.85,419.87,152.58Z" transform="translate(-323.85 -44.62)"/></g><g id="rightArmWalk"><g id="skin-2" data-name="skin"><path class="cls-18" d="M690.23,627.28c4.41,2.47,1.6,13.7,0,18.25-1.15,3.27-3.05,8.43-7.29,9.51-.19.05-3.2.78-4.6-.76s.27-4.31,1.15-9.13c1.47-8-1.6-10.41.77-14.07C682.41,627.76,687.51,625.76,690.23,627.28Z" transform="translate(-323.85 -44.62)"/><path class="cls-19" d="M682.81,631.57c4.42,2.91,1.61,16.15,0,21.52-1.15,3.85-3,9.93-7.28,11.21-.2.05-3.2.91-4.6-.9s.27-5.09,1.15-10.76c1.47-9.44-1.61-12.27.77-16.59C675,632.14,680.1,629.78,682.81,631.57Z" transform="translate(-323.85 -44.62)"/><path class="cls-20" d="M672.31,634.67c4.41,2.91,1.6,16.15,0,21.52-1.15,3.85-3,9.93-7.28,11.2-.2.06-3.21.92-4.6-.89s.26-5.09,1.15-10.76c1.46-9.44-1.61-12.27.76-16.59C664.49,635.24,669.59,632.88,672.31,634.67Z" transform="translate(-323.85 -44.62)"/><path class="cls-21" d="M660,638.16c1.07,1.78-.92,3-1.83,8.62s.49,7.54-1.37,12c-.69,1.66-1.6,3.76-3.43,4.08s-3.73-1.61-4.12-2c-1.86-2-2.05-4.32-2.28-12.92-.21-7.74-.12-8.57.68-9.53C650.53,634.9,658.19,635.23,660,638.16Z" transform="translate(-323.85 -44.62)"/></g><path id="sweater" class="cls-22" d="M592.24,362.08c8.16-4,25.84,16.09,30,20.92,29.58,34.8,24.32,65.46,38.16,123,16.92,70.34,46.88,116.48,31.34,128.43-2,1.56-8.62,2.84-21.8,5.4-18,3.5-27,5.25-31.34,4.06-16.93-4.63-16.42-42.28-24.53-102.74-9-66.93-19.08-123-19.08-123C589.4,387.38,584.81,365.74,592.24,362.08Z" transform="translate(-323.85 -44.62)"/></g><g id="leftArmWalk"><g id="skin-3" data-name="skin"><path class="cls-23" d="M336,629.28c-4.42,2.46-1.61,13.7,0,18.25,1.15,3.27,3,8.43,7.28,9.51.19.05,3.2.78,4.6-.76s-.27-4.32-1.15-9.13c-1.47-8,1.61-10.41-.77-14.07C343.76,629.76,338.66,627.76,336,629.28Z" transform="translate(-323.85 -44.62)"/><path class="cls-24" d="M343.36,633.57c-4.41,2.9-1.6,16.15,0,21.52,1.15,3.85,3.05,9.93,7.29,11.2.19.06,3.2.92,4.6-.89s-.27-5.09-1.15-10.76c-1.47-9.44,1.6-12.27-.77-16.59C351.18,634.14,346.08,631.78,343.36,633.57Z" transform="translate(-323.85 -44.62)"/><path class="cls-25" d="M353.86,636.66c-4.41,2.91-1.6,16.16,0,21.52,1.15,3.85,3.05,9.93,7.29,11.21.19.06,3.2.92,4.6-.9s-.27-5.08-1.15-10.75c-1.47-9.45,1.6-12.28-.77-16.59C361.68,637.23,356.58,634.87,353.86,636.66Z" transform="translate(-323.85 -44.62)"/><path class="cls-26" d="M366.22,640.16c-1.07,1.77.91,3,1.82,8.62s-.48,7.54,1.38,12c.68,1.66,1.59,3.76,3.43,4.08s3.72-1.62,4.11-2c1.86-2,2.06-4.32,2.29-12.93.2-7.74.11-8.56-.69-9.52C375.64,636.89,368,637.23,366.22,640.16Z" transform="translate(-323.85 -44.62)"/></g><path id="sweater-2" data-name="sweater" class="cls-27" d="M428.13,362.08c-8.16-4-22.57,16.09-26.68,20.92-29.57,34.8-27.59,65.46-41.43,123-16.92,70.34-46.88,116.48-31.34,128.43,2,1.56,8.63,2.84,21.8,5.4,18,3.5,27,5.25,31.35,4.06,16.92-4.63,16.41-42.28,24.53-102.74,9-66.93,19.07-123,19.07-123C431,387.38,435.57,365.74,428.13,362.08Z" transform="translate(-323.85 -44.62)"/></g><g id="sweater_backpackerItem" data-name="sweater backpackerItem"><path id="_Tracé_" data-name="&lt;Tracé&gt;" class="cls-28" d="M424.38,359.07c-26.32,26.7-7.38,44.55-32.87,144C372.08,578.9,368,628,388.15,655.8c9,12.42,23.1,18.52,49.31,29.88,20,8.68,39.76,17.24,65.73,16.31,23.05-.83,22.77,1,49.37-12,30-14.66,44.93-22,54.78-35.32,19.85-26.84,4-80.52-2.18-135.29-11.75-103.67,22.21-128.62-2.74-160.31C568.5,316,468.29,314.53,424.38,359.07Z" transform="translate(-323.85 -44.62)"/><path id="_Tracé_2" data-name="&lt;Tracé&gt;" class="cls-29" d="M487.39,304.61c1.23.23.34,4,1.93,7.29,5.88,12.23,42.31,11.28,46.4.76,1.19-3.06,1.51-6.68,3.88-8.4,2-1.46,3.66-.61,5.79,1.12,4.2,3.41,3.73,11,1.93,15.72-3.31,8.7-12.8,12.12-18.56,14.2-3.3,1.18-25.56,9.22-39.05-2.69-1.84-1.62-7.52-7.14-7.74-15C481.78,310.92,485.69,304.29,487.39,304.61Z" transform="translate(-323.85 -44.62)"/></g><g id="rightLeg"><path id="skin-4" data-name="skin" class="cls-30" d="M546.27,762.4c4,8-.44,9.73,1.19,33,.45,6.33,1,9.4-1.19,12.35-4.11,5.55-14.09,5.52-20.16,4.12-3.39-.79-7.84-1.31-10.08-4.71s-1.12-7.34-.59-10c3.64-18.25-6.62-24.93-.59-38.24,1.13-2.49,4.14-9.13,10.08-10.58C532.75,746.38,542.23,754.31,546.27,762.4Z" transform="translate(-323.85 -44.62)"/><g id="pant_backpackerItem" data-name="pant backpackerItem"><path class="cls-31" d="M506.18,685.56c6.19,40.05,4.88,66.19,1.75,75.48-.67,2-3.07,8.47,0,13.13,1.12,1.7,8.24,3.86,20.87,6.59,10.71,2.31,16.1,3.44,18.38,1.82,3.91-2.77,2.63-16.48,1.56-32.82-.7-10.53-1.59-24.14-1.47-36.1.2-20.93,3.39-26.32-.74-30.62C542.81,679.17,529,676.66,506.18,685.56Z" transform="translate(-323.85 -44.62)"/><path class="cls-32" d="M519.88,704.55a108.88,108.88,0,0,1,1.54,16A112.4,112.4,0,0,1,513.09,765" transform="translate(-323.85 -44.62)"/></g><g id="rightShoe_backpackerItem" data-name="rightShoe backpackerItem"><g id="Sole"><path class="cls-33" d="M512.5,834.1c-4.66,3.78-4.45,11.83-2.84,16.67.67,2,1.39,4.19,3.46,5.86,3.69,3,7.28.8,13.65,3.84,3.42,1.63,3.71,2.89,5.1,2.63,4.21-.79,8.72-13.72,3.26-22.44C530.38,833.08,518.47,829.27,512.5,834.1Z" transform="translate(-323.85 -44.62)"/><path class="cls-34" d="M526.79,841c-1,2.33-7,11.32-3.23,19.86a22.88,22.88,0,0,0,7.39,8.9c9.95,7.42,21.17,5.18,42.74,4.71,29.86-.65,37.16,3,43.28-3.66,5-5.52,6.59-15.13,3.69-21.47C610,826,538.12,838.92,526.79,841Z" transform="translate(-323.85 -44.62)"/><path class="cls-35" d="M531,849.54a32.86,32.86,0,0,0-1.47,7.26,33.26,33.26,0,0,0,1.47,13" transform="translate(-323.85 -44.62)"/><path class="cls-35" d="M542.57,854.07a32.93,32.93,0,0,0-1.46,7.25,33.51,33.51,0,0,0,1.46,13" transform="translate(-323.85 -44.62)"/><path class="cls-35" d="M555.53,856.17a37.84,37.84,0,0,0-1.12,6.81,38.23,38.23,0,0,0,1.12,12.22" transform="translate(-323.85 -44.62)"/><path class="cls-35" d="M571.06,857.6a27.89,27.89,0,0,0-1.24,6.13,28.25,28.25,0,0,0,1.24,11" transform="translate(-323.85 -44.62)"/><path class="cls-35" d="M589.35,858.58a21.26,21.26,0,0,1,0,16.13" transform="translate(-323.85 -44.62)"/><path class="cls-35" d="M603.24,858.15a23.75,23.75,0,0,1,1.46,6.1,24.07,24.07,0,0,1-1.46,11" transform="translate(-323.85 -44.62)"/><path class="cls-35" d="M616.33,854.29a33.64,33.64,0,0,1-4.68,19.89" transform="translate(-323.85 -44.62)"/><path class="cls-35" d="M515.39,841.77a33.84,33.84,0,0,0,4.24,16.82" transform="translate(-323.85 -44.62)"/></g><g id="Tissue"><path class="cls-36" d="M510.36,782.37c4.58-1.85,8.07,8.24,18.47,8.9,12.7.8,20.12-13.4,26.39-10.47,3.53,1.65,2.31,6.67,4.75,16.23,5,19.65,16.54,23.2,14.25,31.94-2.59,9.9-19.49,13.35-25.86,14.65s-27.19,2.23-35.45-3.14c-2.93-1.9,3.83-18.81,0-27.87C505.42,794.91,503.5,785.14,510.36,782.37Z" transform="translate(-323.85 -44.62)"/><path class="cls-37" d="M527.25,844.67c-3.5-10.64,13.92-24.69,19-28.79,7.93-6.41,20.08-16.21,34.3-13.62,10.7,2,16.87,9.86,28,24.09,9.31,11.93,14,17.9,12.13,23-4.46,12.48-41.52,9-54.35,7.86C547.39,855.48,530.29,853.9,527.25,844.67Z" transform="translate(-323.85 -44.62)"/></g><path id="Lace" class="cls-38" d="M531.21,808.83c.37-1.43,1.53-3,10.77-6.35,14.15-5.09,17.51-3.53,18.87-2.67s3,2.39,2.64,3.51c-.49,1.65-4.79.71-11.74,2.17-4.71,1-9.07,1.9-12.67,5.29-2.69,2.54-3.28,4.89-4.84,4.73C532.37,815.32,530.46,811.65,531.21,808.83Z" transform="translate(-323.85 -44.62)"/></g></g><g id="leftLeg"><path id="skin-5" data-name="skin" class="cls-39" d="M454.87,760.73c-4,7.94.44,9.72-1.19,32.94-.44,6.34-1,9.4,1.19,12.35,4.11,5.55,14.09,5.52,20.16,4.12,3.39-.79,7.84-1.31,10.08-4.71s1.13-7.34.59-10c-3.64-18.24,6.62-24.93.6-38.23-1.13-2.5-4.14-9.14-10.08-10.59C468.39,744.7,458.92,752.63,454.87,760.73Z" transform="translate(-323.85 -44.62)"/><g id="pant_backpackerItem-2" data-name="pant backpackerItem"><path class="cls-40" d="M452.08,680.43a204.8,204.8,0,0,1-2.18,53.05c-2.51,14.2-6.53,36.83-.35,42.58,4.47,4.17,13.26,4.57,18.55,1.09,6.63-4.38,6.93-14.32,8.73-14.08,2,.28-.41,12.71,5.46,16.3,2.76,1.68,7,1.21,9.56-.73,5.8-4.41,2.57-27,1.09-39.63-3.82-32.51,9.58-44.6,1.47-54.69C490.05,678.9,479.68,674.28,452.08,680.43Z" transform="translate(-323.85 -44.62)"/><path class="cls-32" d="M482.4,683.81c.83,4.84.26,10-.89,15.67-4.15,20.54-1.79,33.77-4.22,44.8" transform="translate(-323.85 -44.62)"/></g><g id="leftShoe_backpackerItem" data-name="leftShoe backpackerItem"><g id="Sole-2" data-name="Sole"><path class="cls-41" d="M488.64,832.42c4.67,3.78,4.45,11.83,2.84,16.67-.67,2-1.39,4.19-3.46,5.86-3.69,3-7.28.8-13.65,3.84-3.42,1.63-3.71,2.89-5.09,2.63-4.22-.79-8.72-13.72-3.26-22.43C470.76,831.41,482.67,827.59,488.64,832.42Z" transform="translate(-323.85 -44.62)"/><path class="cls-42" d="M474.35,839.36c1,2.33,7,11.33,3.24,19.86a22.88,22.88,0,0,1-7.39,8.9c-10,7.43-21.18,5.19-42.75,4.72-29.86-.65-37.16,3-43.28-3.67-5.05-5.52-6.58-15.13-3.69-21.46C391.16,824.32,463,837.24,474.35,839.36Z" transform="translate(-323.85 -44.62)"/><path class="cls-35" d="M470.2,847.86a33,33,0,0,1,1.46,7.26,33.48,33.48,0,0,1-1.46,13" transform="translate(-323.85 -44.62)"/><path class="cls-35" d="M458.57,852.39a32.86,32.86,0,0,1,1.47,7.26,33.26,33.26,0,0,1-1.47,13" transform="translate(-323.85 -44.62)"/><path class="cls-35" d="M445.61,854.49a36.26,36.26,0,0,1,1.12,6.82,37.88,37.88,0,0,1-1.12,12.21" transform="translate(-323.85 -44.62)"/><path class="cls-35" d="M430.09,855.93a28.06,28.06,0,0,1,0,17.11" transform="translate(-323.85 -44.62)"/><path class="cls-35" d="M411.79,856.9a22,22,0,0,0-1.47,5.78A21.77,21.77,0,0,0,411.79,873" transform="translate(-323.85 -44.62)"/><path class="cls-35" d="M397.9,856.47a24.38,24.38,0,0,0-1.46,6.1,24.07,24.07,0,0,0,1.46,10.95" transform="translate(-323.85 -44.62)"/><path class="cls-35" d="M384.82,852.61a33.32,33.32,0,0,0,.25,7.45,34.14,34.14,0,0,0,4.42,12.44" transform="translate(-323.85 -44.62)"/><path class="cls-35" d="M485.75,840.09a33.65,33.65,0,0,1-4.23,16.82" transform="translate(-323.85 -44.62)"/></g><g id="Tissue-2" data-name="Tissue"><path class="cls-43" d="M490.78,780.69c-4.58-1.84-8.06,8.24-18.47,8.9-12.69.81-20.11-13.4-26.39-10.47-3.53,1.65-2.3,6.67-4.75,16.23-5,19.65-16.53,23.21-14.25,31.94,2.6,9.9,19.49,13.35,25.86,14.66s27.19,2.22,35.46-3.14c2.93-1.91-3.84-18.81,0-27.88C495.73,793.23,497.65,783.46,490.78,780.69Z" transform="translate(-323.85 -44.62)"/><path class="cls-44" d="M473.89,843c3.5-10.63-13.91-24.69-19-28.79-7.93-6.4-20.07-16.2-34.3-13.61-10.69,1.94-16.87,9.85-28,24.08-9.32,11.94-14,17.91-12.14,23,4.47,12.47,41.52,9,54.36,7.85C453.75,853.81,470.86,852.22,473.89,843Z" transform="translate(-323.85 -44.62)"/></g><path id="Lace-2" data-name="Lace" class="cls-45" d="M469.94,807.15c-.38-1.43-1.54-3-10.78-6.35-14.14-5.08-17.5-3.53-18.86-2.67s-3,2.39-2.64,3.52c.49,1.64,4.79.7,11.73,2.16,4.71,1,9.08,1.9,12.67,5.29,2.7,2.54,3.29,4.89,4.85,4.73C468.77,813.64,470.68,810,469.94,807.15Z" transform="translate(-323.85 -44.62)"/></g></g><g id="jumpsuit_backpackerItem" data-name="jumpsuit backpackerItem"><path class="cls-46" d="M605.71,519.38C594,415.71,627.92,390.76,603,359.07c-6.69-8.51-16-15.37-26.92-20.59,6.41,12.24,3.44,19.85-.12,38.78-.72,3.79-6.61,21.72-16.29,26.08-13.38,6-32.89,5.79-54.29,3.62-32.7-3.33-40.94-.44-50.9-10.73-4.23-4.38-4.59-10.1-5.28-21-.82-12.86,1.62-27.81,6.89-37-11.9,5.21-22.59,12.11-31.13,20.78-26.32,26.7-7.38,44.55-32.87,144-19.43,75.82-23.51,125-3.36,152.72,9,12.42,23.1,18.52,49.31,29.88,20,8.68,39.76,17.24,65.73,16.31,23-.83,22.77,1,49.37-12,29.95-14.66,44.93-22,54.78-35.32C627.74,627.83,611.92,574.15,605.71,519.38Z" transform="translate(-323.85 -44.62)"/><path class="cls-47" d="M598.58,520.24c-11-97.42,20.86-120.87-2.58-150.65-6.29-8-15-14.43-25.3-19.34,6,11.5,3.24,18.65-.11,36.44-.67,3.56-6.21,20.41-15.3,24.51-12.58,5.67-30.91,5.44-51,3.4-30.73-3.13-38.48-.42-47.83-10.09-4-4.11-4.32-9.49-5-19.7-.77-12.09,1.52-26.13,6.48-34.74a93.45,93.45,0,0,0-29.25,19.52c-24.74,25.1-6.94,41.87-30.89,135.33-18.26,71.25-22.1,117.43-3.16,143.51,8.48,11.68,21.71,17.41,46.33,28.09,18.81,8.15,37.37,16.2,61.78,15.32,21.65-.78,21.39,1,46.39-11.27,28.14-13.79,42.22-20.68,51.48-33.2C619.28,622.15,604.41,571.71,598.58,520.24Z" transform="translate(-323.85 -44.62)"/><path class="cls-48" d="M571.6,350.68l-.9-.43.46.89" transform="translate(-323.85 -44.62)"/><path class="cls-49" d="M572.71,354.77c3.24,9.14.77,16.57-2.12,31.92-.67,3.56-6.21,20.41-15.3,24.51-12.58,5.67-30.91,5.44-51,3.4-30.73-3.13-38.48-.42-47.83-10.09-4-4.11-4.32-9.49-5-19.7-.69-10.92,1.11-23.45,5.12-32.11" transform="translate(-323.85 -44.62)"/><path class="cls-48" d="M457.47,350.94q.24-.45.48-.87l-.91.4" transform="translate(-323.85 -44.62)"/><path class="cls-50" d="M453.42,352.17a90.71,90.71,0,0,0-24.72,17.42c-24.74,25.1-6.94,41.87-30.89,135.33-18.26,71.25-22.1,117.43-3.16,143.51,8.48,11.68,21.71,17.41,46.33,28.09,18.81,8.15,37.37,16.2,61.78,15.32,21.65-.78,21.39,1,46.39-11.27,28.14-13.79,42.22-20.68,51.48-33.2,18.65-25.22,3.78-75.66-2-127.13-11-97.42,20.86-120.87-2.58-150.65-5.74-7.28-13.51-13.28-22.62-18" transform="translate(-323.85 -44.62)"/><path class="cls-51" d="M459.34,338.29c-6.59-4.72-31.4,11.37-41.6,34.07a62,62,0,0,0-5.08,19.94c-.81,8.07-2.43,24.24,7.73,36,2,2.3,8.41,9.73,17.27,9.41,6.13-.21,10.65-4,13.65-6.55a31.15,31.15,0,0,0,9.24-13.1c1.14-3.13,2.09-7.44.88-19.21-1-10-2.65-15.93-3.52-20.53C453.42,354.61,464.47,342,459.34,338.29Z" transform="translate(-323.85 -44.62)"/><path id="_Tracé_3" data-name="&lt;Tracé&gt;" class="cls-32" d="M429.7,357.06a90.22,90.22,0,0,0-9.13,22.83,78.11,78.11,0,0,0-2.36,24.93c.82,9.8,3.35,14.53,4.08,15.83,1.85,3.29,4.49,8,9.76,9.88,9,3.25,17.55-4.62,18.09-5.13a23,23,0,0,0,6.64-13.72c.5-3.9-.31-5.34-2.33-15.45-1.61-8.08-2.59-13-3.06-19.13a102.2,102.2,0,0,1,.28-17.93,124,124,0,0,1,3-18.11" transform="translate(-323.85 -44.62)"/><ellipse class="cls-52" cx="113.17" cy="376.91" rx="10.35" ry="10.27"/><path class="cls-53" d="M568.66,336.81c-4.46,3,3.13,12.33,1.5,30.66-1.78,20.12-12.16,22.76-13.59,44.76-.52,7.89-1.12,19.76,6.79,26.36,5.8,4.83,13.26,4.42,14.84,4.29,10.46-.83,16.78-9.16,18.95-12,7-9.2,7.31-19,7.62-36.42.31-16.58.46-24.88-3.46-33.2C593.38,344.41,574.44,332.87,568.66,336.81Z" transform="translate(-323.85 -44.62)"/><path class="cls-32" d="M571.9,338A66.68,66.68,0,0,1,575,372.33c-1,5.52-1.57,4.3-7.83,21.82-4.59,12.85-5.49,16.9-5.69,21.56-.43,9.88.95,13.31,1.66,14.47,3.89,6.31,11.32,7.26,12.1,7.35,9.18,1,16.55-6.65,19.69-12.26,2.85-5.08,3.2-10.26,3.56-15.44.34-4.87-.34-5-.47-13.23-.11-6.42.29-6.94.47-17.4.18-10.79-.2-13.08-.47-14.47a38.4,38.4,0,0,0-5-12.5" transform="translate(-323.85 -44.62)"/><ellipse class="cls-54" cx="256.23" cy="381.5" rx="10.35" ry="10.27"/><g id="newspaper"><path class="cls-55" d="M459.89,425.31c-.13-.56.22-1.84.56-4.49a13.32,13.32,0,0,1,4.19-8.49,7.78,7.78,0,0,1,5.81-2.69c3.64-.08,7.05,1,8.79,3.56,2.15,3.16,1,5.66,3.08,7a8.13,8.13,0,0,0,6.64.88c4.78-1.25,9.66-.44,14.59-.71,6.43-.35,12.76-.79,19.19-1.15,4.84-.26,10.41.66,15-.91,1.56-.54,4.32-1.39,6.72,0,1,.6,1.15,0,1.38,1,1.78,7.21.68,14.16,1.52,14.14l2.42,44.1c.71,13,1.4,26.05,2.14,39.08.46,8.11.41,12.37,1.19,21.65.14,1.65.07,4.79-1.69,4.58-6.51-.77-13.86,1-14.66.81s-2.14-.53-2.78.15c-.91,1,.63,2.91.32,5.82-.18,1.76-.63,4.39-1.71,4.17-5.23-1.05-7.84.35-13-.29-4-.5-9.2,1.75-19.8,2.09-11.7.38-14.61.85-21.47,1.18-6.57.32-7.76-5.06-8.37-5.77-3.51-4.07-3.21-8.41-3.42-11.39-.69-10-1.46-20.4-2.14-30.65-.13-1.82,0,.08-1.67-30.36C459.87,426,460.24,426.85,459.89,425.31Z" transform="translate(-323.85 -44.62)"/><path class="cls-56" d="M545.13,416.75,483,420.16c-1.55-8-7.87-13.07-14.12-11.31-5.47,1.54-9.18,7.88-8.82,15L466.84,545h0c1.34,7.08,6.46,12,12.13,11.73l54.25-3a2.26,2.26,0,0,0,1.8-2.57l-.41-7.42,17.44-1a2.25,2.25,0,0,0,1.8-2.57L547.2,419.11A2.25,2.25,0,0,0,545.13,416.75Zm-84.94,10.19c.7-5.28,5.16-13.25,9.44-13.48s9.46,3.92,9.76,9.38l5.91,107.6c-3.63-6.09-19.42-2.79-18.93,6.1Zm70.82,122-52.31,2.87c-4.28.23-8-4-8.29-9.46s2.92-10.08,7.2-10.31,8,4,8.3,9.46l.13,2.47a2.26,2.26,0,0,0,2.07,2.36L530.74,544ZM549.84,538l-60.06,3.29L483.4,425.09l60.06-3.29Z" transform="translate(-323.85 -44.62)"/><path class="cls-57" d="M537.92,427.06l-48.43,2.66a2.25,2.25,0,0,0-1.8,2.58L489,457a2.27,2.27,0,0,0,2.08,2.37l48.43-2.66a2.27,2.27,0,0,0,1.8-2.58L540,429.42A2.25,2.25,0,0,0,537.92,427.06Zm-.58,24.82-44.56,2.45-1.08-19.78,44.55-2.44Z" transform="translate(-323.85 -44.62)"/><path class="cls-58" d="M514.63,463l-23.24,1.28a2.27,2.27,0,0,0-1.81,2.58l1.5,27.18a2.25,2.25,0,0,0,2.07,2.37l23.25-1.28a2.26,2.26,0,0,0,1.8-2.58l-1.49-27.18A2.27,2.27,0,0,0,514.63,463Zm-.44,27.3-19.37,1.06-1.22-22.24L513,468.09Z" transform="translate(-323.85 -44.62)"/><path class="cls-59" d="M541.85,498.73,518.61,500a2.27,2.27,0,0,0-1.81,2.58l1.63,29.65a2.27,2.27,0,0,0,2.08,2.37l23.24-1.28a2.26,2.26,0,0,0,1.81-2.57l-1.63-29.66A2.27,2.27,0,0,0,541.85,498.73Zm-.3,29.77-19.38,1.06-1.35-24.71,19.37-1.07Z" transform="translate(-323.85 -44.62)"/><rect class="cls-60" x="520.7" y="464.61" width="21.34" height="4.95" transform="translate(-348.65 -14.79) rotate(-3.14)"/><rect class="cls-61" x="521.24" y="474.49" width="21.34" height="4.95" transform="translate(-349.19 -14.74) rotate(-3.14)"/><rect class="cls-62" x="521.79" y="484.38" width="21.34" height="4.95" transform="translate(-349.73 -14.7) rotate(-3.14)"/><rect class="cls-59" x="491.6" y="500.91" width="21.34" height="4.95" transform="translate(-350.68 -16.33) rotate(-3.14)"/><rect class="cls-59" x="492.15" y="510.79" width="21.34" height="4.95" transform="translate(-351.22 -16.28) rotate(-3.14)"/><rect class="cls-59" x="492.69" y="520.68" width="21.34" height="4.95" transform="translate(-351.76 -16.24) rotate(-3.14)"/><rect class="cls-59" x="493.23" y="530.57" width="21.34" height="4.95" transform="translate(-352.3 -16.2) rotate(-3.14)"/><path class="cls-63" d="M503.6,447.17l-.48-6.76,1-.07,2.4,3.27a19.15,19.15,0,0,1,1.37,2.12l0,0c-.14-.89-.22-1.71-.29-2.77l-.2-2.83.82-.06.48,6.77-.89.06-2.39-3.28a21.71,21.71,0,0,1-1.42-2.17h0c.11.85.19,1.66.27,2.79l.2,2.89Z" transform="translate(-323.85 -44.62)"/><path class="cls-63" d="M513.49,443.29l-2.63.19.17,2.44,2.93-.21,0,.74-3.81.26-.47-6.76,3.66-.26.05.73-2.78.2.15,2.14,2.63-.19Z" transform="translate(-323.85 -44.62)"/><path class="cls-63" d="M516.34,446.28l-2.19-6.64.92-.07,1,3.37c.26.83.5,1.66.66,2.3h0c.07-.68.22-1.5.39-2.39l.66-3.47.92-.07,1.06,3.38c.25.79.48,1.58.64,2.29h0c.09-.75.23-1.52.38-2.37l.66-3.48.89-.06L521,446l-.92.06-1.1-3.46a20.9,20.9,0,0,1-.59-2.18h0a20.45,20.45,0,0,1-.37,2.25l-.72,3.59Z" transform="translate(-323.85 -44.62)"/><path class="cls-63" d="M523.54,444.71a3.16,3.16,0,0,0,1.6.33c.89-.06,1.38-.57,1.33-1.25s-.43-1-1.37-1.26c-1.13-.31-1.85-.84-1.92-1.79a2,2,0,0,1,2.06-2,3.06,3.06,0,0,1,1.52.23l-.19.73a2.58,2.58,0,0,0-1.31-.23c-.92.06-1.24.64-1.2,1.1,0,.63.47.91,1.43,1.21,1.18.36,1.8.87,1.87,1.87s-.64,2-2.23,2.11a3.63,3.63,0,0,1-1.76-.31Z" transform="translate(-323.85 -44.62)"/></g><path class="cls-64" d="M438,484.51c-1.48,13.73-1.58,28.64,1.71,53.41,1.06,8,1.61,12,2.56,13.56,7.33,11.72,25.46,7.95,60.68,10.17,40.26,2.55,51.36,9.69,60.67.85,5-4.73,3.44-8.33,8.55-35.6,5.88-31.45,10.72-41.5,6-44.93s-12.63,5.11-30.77,11c-2.36.77-25.23,8-48.71,3.39-32.31-6.3-48.3-31.48-57.25-25.43C440.51,471.57,439.28,472.78,438,484.51Z" transform="translate(-323.85 -44.62)"/><path class="cls-65" d="M444.71,494.66c-1.32,10.66-1.4,22.25,1.52,41.48.94,6.22,1.43,9.35,2.27,10.53,6.52,9.11,22.62,6.17,53.91,7.9,35.77,2,45.63,7.52,53.91.66,4.43-3.68,3.06-6.47,7.59-27.65,5.23-24.42,9.53-32.23,5.32-34.89s-11.22,4-27.34,8.56c-2.1.59-22.42,6.18-43.28,2.63-28.7-4.89-42.91-24.45-50.87-19.75C446.93,484.61,445.83,485.55,444.71,494.66Z" transform="translate(-323.85 -44.62)"/><path class="cls-66" d="M444.71,494.66c-1.32,10.66-1.4,22.25,1.52,41.48.94,6.22,1.43,9.35,2.27,10.53,6.52,9.11,22.62,6.17,53.91,7.9,35.77,2,45.63,7.52,53.91.66,4.43-3.68,3.06-6.47,7.59-27.65,5.23-24.42,9.53-32.23,5.32-34.89s-11.22,4-27.34,8.56c-2.1.59-22.42,6.18-43.28,2.63-28.7-4.89-42.91-24.45-50.87-19.75C446.93,484.61,445.83,485.55,444.71,494.66Z" transform="translate(-323.85 -44.62)"/><path class="cls-35" d="M468,529.23a20.32,20.32,0,0,0,7.45,11.18,20.53,20.53,0,0,0,14.9,3.72" transform="translate(-323.85 -44.62)"/><path class="cls-35" d="M543.61,547.86a8.79,8.79,0,0,0,6.92-1.07,8.65,8.65,0,0,0,3.72-8" transform="translate(-323.85 -44.62)"/></g><g id="strips_backpackerItem" data-name="strips backpackerItem"><path class="cls-67" d="M421.11,357.11c-6.65,29.58-3.84,42.45-11.88,88.5-.14.8-8.07,27.63-23.93,81.3-5,16.9-8.67,29.3-6.15,30.58,3.29,1.68,15.53-16.32,23.25-30.08,6.54-11.67,11.71-23.62,21-53.32,10-31.93,15-47.9,17.18-63.13,4.37-30.94-1.83-21.19,1.53-56.81.35-3.72,1.14-11.3-1.91-12.84C435.68,339,422.64,350.32,421.11,357.11Z" transform="translate(-323.85 -44.62)"/><path class="cls-68" d="M576.12,336c-6.57,4.29-.55,22.11,3.55,45.66,7.36,42.36-1.46,46,3.26,87.56,5.46,48.07,22.74,91.27,27.88,90.24,3.21-.64,2.88-18.85,1.43-30.82-1.86-15.5-5.73-21.75-9.41-35.75-3.36-12.77-3.86-24.86-4.86-49-1.12-27-1.67-40.56,0-56.49,2.23-21.19.38-28.62-.42-40.79C596.9,336.63,581.16,332.72,576.12,336Z" transform="translate(-323.85 -44.62)"/></g></svg>