<svg id="barreau1_-_copie" data-name="barreau1 - copie" xmlns="http://www.w3.org/2000/svg" xmlns:xlink="http://www.w3.org/1999/xlink" viewBox="0 0 149 149"><defs><style>.cls-1{fill:url(#Dégradé_sans_nom_23);}.cls-2{fill:#d1beac;opacity:0.26;}.cls-3{fill:#b5b5b5;}.cls-4{fill:#fff;}</style><linearGradient id="Dégradé_sans_nom_23" x1="74.5" x2="74.5" y2="149" gradientUnits="userSpaceOnUse"><stop offset="0" stop-color="#fff"/><stop offset="0" stop-color="#f7691e"/><stop offset="0.27" stop-color="#ad4d35"/><stop offset="0.52" stop-color="#6f3449"/><stop offset="0.74" stop-color="#412358"/><stop offset="0.9" stop-color="#251861"/><stop offset="1" stop-color="#1b1464"/></linearGradient></defs><title>barreau1</title><circle class="cls-1" cx="74.5" cy="74.5" r="74.5"/><path class="cls-2" d="M36.47,54.06,67.09,22.23a8,8,0,0,1,5.32-1.14c4.16.78,7.48,6.27,6.66,13.65V60.88h-4V33.6a4.69,4.69,0,0,0-4-5.68,4.83,4.83,0,0,0-4,2.27l-25.3,25A13.92,13.92,0,0,0,39.53,58a12.19,12.19,0,0,0-1.73,6.32v36.38l42.6,3.41c1-23.42,1.38-33.39,1.33-34.1,0,0,0-.19,0-.42a16.9,16.9,0,0,1,0-1.85c.4-6.11,3.94-10.81,6.66-13.65L111,24.51c1.84-2.09,3.45-2.26,4-2.28,3.22-.1,7,3.85,8,10.23q-.66,14.79-1.33,29.56h-4q.66-13.64,1.33-27.28c0-.36-.21-5-1.33-6.82a2.42,2.42,0,0,0-1.34-1.14,2.55,2.55,0,0,0-1.33,0,4.22,4.22,0,0,0-2.66,2.27l-24,31.83a16.19,16.19,0,0,0-1.33,4.55c-.26,1.88-.06,3,0,6.82,0,1.46,0,2.65,0,3.41L84.39,120h-4v-6.82l-42.6-4.55v6.82H32.48q.66-27.28,1.33-54.57a7.1,7.1,0,0,1,0-1.13A9.59,9.59,0,0,1,36.47,54.06Z" transform="translate(-1)"/><path class="cls-3" d="M31,83l1,2H43l8-5-5,5v3H57l11,3,22-3,9-8V78H54l-5-2Z" transform="translate(-1)"/><path class="cls-4" d="M71,69" transform="translate(-1)"/><path class="cls-4" d="M129,21" transform="translate(-1)"/><path class="cls-4" d="M31.36,78.3l4.22-4.15,24.61.71a4.53,4.53,0,0,0,2,2.19c1.86.92,4.42.18,6.22-2l30.7,3L90,86.41,70.31,87.62,57.89,85.48l-12.47-.35,5.55-7-7.28,5.13-3.56-.1L34.79,83l-3.57-.1Z" transform="translate(-1)"/></svg>