<svg id="barreau2" xmlns="http://www.w3.org/2000/svg" xmlns:xlink="http://www.w3.org/1999/xlink" viewBox="0 0 149 149"><defs><style>.cls-1{fill:url(#Dégradé_sans_nom_23);}.cls-2{fill:#e6e6e6;}.cls-3{fill:#fff;}.cls-4{fill:#d1beac;opacity:0.26;}</style><linearGradient id="Dégradé_sans_nom_23" x1="74.5" x2="74.5" y2="149" gradientUnits="userSpaceOnUse"><stop offset="0" stop-color="#fff"/><stop offset="0" stop-color="#f7691e"/><stop offset="0.27" stop-color="#ad4d35"/><stop offset="0.52" stop-color="#6f3449"/><stop offset="0.74" stop-color="#412358"/><stop offset="0.9" stop-color="#251861"/><stop offset="1" stop-color="#1b1464"/></linearGradient></defs><title>barreau2</title><circle class="cls-1" cx="74.5" cy="74.5" r="74.5"/><path class="cls-2" d="M26,103.63l12,2.88,21.83,2.75,0-2,4.38,2,1.08-1,1.12,2,7.62-.1L83.89,113l10.76-9.26,0-2,4.31-3.1,0-3L77.12,96.88q-10.37.65-20.69,1.29l-22.87.3L26,101.61Z" transform="translate(-1)"/><path class="cls-3" d="M71,69" transform="translate(-1)"/><path class="cls-4" d="M36.47,54.06,67.09,22.23a8,8,0,0,1,5.32-1.14c4.16.78,7.48,6.27,6.66,13.65V60.88h-4V33.6a4.69,4.69,0,0,0-4-5.68,4.83,4.83,0,0,0-4,2.27l-25.3,25A13.92,13.92,0,0,0,39.53,58a13.53,13.53,0,0,0-1.73,6.32A63.1,63.1,0,0,0,38,76l43,1,.71-7.44a16.39,16.39,0,0,1,0-1.85c.41-6.24,4-10.94,6.66-13.65L111,24.51c1.84-2.09,3.45-2.26,4-2.28,3.22-.1,7,3.85,8,10.23q-.66,14.79-1.33,29.56h-4q.66-13.64,1.33-27.28c0-.36-.21-5-1.33-6.82a2.42,2.42,0,0,0-1.34-1.14,2.55,2.55,0,0,0-1.33,0,4.22,4.22,0,0,0-2.66,2.27l-24,31.83a16.19,16.19,0,0,0-1.33,4.55c-.26,1.88-.06,3,0,6.82,0,1.46,0,2.65,0,3.41L84.39,120h-4L81,83h0L38,82q-.11,16.73-.2,33.45H32.48q.66-27.28,1.33-54.57a7.1,7.1,0,0,1,0-1.13A9.59,9.59,0,0,1,36.47,54.06Z" transform="translate(-1)"/><path class="cls-3" d="M129,21" transform="translate(-1)"/><path class="cls-3" d="M30.18,95.48,43,92.27l12.92,2.87,22.54-.3L99,95.7l-10.77,5.09,6.42-1.1L84.06,109l-9.69-1.9-7.52.1L65.7,102.1l-1,4.06-16.17-4.85,11.89,5.92-16.13-1.81-10.76-1.89-7.3-2Z" transform="translate(-1)"/></svg>