<svg id="bg" xmlns="http://www.w3.org/2000/svg" xmlns:xlink="http://www.w3.org/1999/xlink" viewBox="0 0 1366.35 750.34"><defs><style>.cls-1{fill:url(#Dégradé_sans_nom_10);}.cls-2{opacity:0.51;fill:url(#Dégradé_sans_nom_11);}.cls-2,.cls-28,.cls-37,.cls-38{isolation:isolate;}.cls-3{fill:url(#Dégradé_sans_nom_12);}.cls-4{fill:#fff594;}.cls-5{fill:url(#Dégradé_sans_nom_10-2);}.cls-6{fill:url(#Dégradé_sans_nom_14);}.cls-7{fill:url(#Dégradé_sans_nom_15);}.cls-8{fill:url(#Dégradé_sans_nom_15-2);}.cls-9{fill:url(#Dégradé_sans_nom_15-3);}.cls-10{fill:#ff664e;}.cls-11{fill:url(#Dégradé_sans_nom_18);}.cls-12{fill:url(#Dégradé_sans_nom_12-2);}.cls-13{fill:url(#Dégradé_sans_nom_18-2);}.cls-14{fill:#400800;}.cls-15{fill:url(#Dégradé_sans_nom_21);}.cls-16{fill:url(#Dégradé_sans_nom_22);}.cls-17{fill:#ab1800;}.cls-18{fill:url(#Dégradé_sans_nom_21-2);}.cls-19{fill:url(#Dégradé_sans_nom_29);}.cls-20{fill:url(#Dégradé_sans_nom_14-2);}.cls-21{fill:url(#Dégradé_sans_nom_22-2);}.cls-22{fill:url(#Dégradé_sans_nom_22-3);}.cls-23{fill:url(#Dégradé_sans_nom_22-4);}.cls-24{fill:url(#Dégradé_sans_nom_22-5);}.cls-25{fill:url(#Dégradé_sans_nom_22-6);}.cls-26{fill:url(#Dégradé_sans_nom_14-3);}.cls-27{fill:url(#Dégradé_sans_nom_15-4);}.cls-28,.cls-37,.cls-38{opacity:0.63;}.cls-28{fill:url(#Dégradé_sans_nom_38);}.cls-29{fill:url(#Dégradé_sans_nom_14-4);}.cls-30{fill:url(#Dégradé_sans_nom_15-5);}.cls-31{fill:url(#Dégradé_sans_nom_12-3);}.cls-32{fill:url(#Dégradé_sans_nom_12-4);}.cls-33{fill:#ffff8a;}.cls-34{fill:url(#Dégradé_sans_nom_12-5);}.cls-35{fill:url(#Dégradé_sans_nom_22-7);}.cls-36{fill:url(#Dégradé_sans_nom_12-6);}.cls-37{fill:url(#Dégradé_sans_nom_38-2);}.cls-38{fill:url(#Dégradé_sans_nom_38-3);}.cls-39{fill:url(#Dégradé_sans_nom_12-7);}</style><linearGradient id="Dégradé_sans_nom_10" x1="683" y1="1.07" x2="683" y2="751.07" gradientTransform="matrix(1, 0, 0, -1, 0.35, 751.07)" gradientUnits="userSpaceOnUse"><stop offset="0" stop-color="#dc4a7c"/><stop offset="1" stop-color="#1d0035"/></linearGradient><linearGradient id="Dégradé_sans_nom_11" x1="682.65" y1="123.33" x2="682.65" y2="637.46" gradientTransform="matrix(1, 0, 0, -1, 0.35, 751.07)" gradientUnits="userSpaceOnUse"><stop offset="0" stop-color="#6d0063"/><stop offset="1" stop-color="#050000"/></linearGradient><linearGradient id="Dégradé_sans_nom_12" x1="292.36" y1="232.97" x2="868.59" y2="232.97" gradientTransform="matrix(1, 0, 0, -1, 4.92, 771.07)" gradientUnits="userSpaceOnUse"><stop offset="0.33" stop-color="#2d004b"/><stop offset="1" stop-color="#c81a4b"/></linearGradient><linearGradient id="Dégradé_sans_nom_10-2" x1="-667.17" y1="124.61" x2="-667.17" y2="386.08" gradientTransform="translate(569.18 771.07) rotate(180)" xlink:href="#Dégradé_sans_nom_10"/><linearGradient id="Dégradé_sans_nom_14" x1="-548.46" y1="124.61" x2="-548.46" y2="386.08" gradientTransform="translate(569.18 771.07) rotate(180)" gradientUnits="userSpaceOnUse"><stop offset="0" stop-color="#2d004b"/><stop offset="1" stop-color="#ff424b"/></linearGradient><linearGradient id="Dégradé_sans_nom_15" x1="1138.52" y1="307.57" x2="1342.4" y2="307.57" gradientTransform="matrix(1, 0, 0, -1, 0.35, 751.07)" gradientUnits="userSpaceOnUse"><stop offset="0" stop-color="#050000"/><stop offset="1" stop-color="#6d0063"/></linearGradient><linearGradient id="Dégradé_sans_nom_15-2" x1="1142.45" y1="234.48" x2="1335.79" y2="234.48" xlink:href="#Dégradé_sans_nom_15"/><linearGradient id="Dégradé_sans_nom_15-3" x1="1147.01" y1="156.94" x2="1323.59" y2="156.94" xlink:href="#Dégradé_sans_nom_15"/><linearGradient id="Dégradé_sans_nom_18" x1="1059.31" y1="99.63" x2="1059.31" y2="211.33" gradientTransform="matrix(1, 0, 0, -1, 0.35, 751.07)" gradientUnits="userSpaceOnUse"><stop offset="0" stop-color="#ff424b"/><stop offset="1" stop-color="#2d004b"/></linearGradient><linearGradient id="Dégradé_sans_nom_12-2" x1="822.34" y1="240.54" x2="1301.44" y2="240.54" gradientTransform="matrix(1, 0, 0, -1, 0.35, 751.07)" xlink:href="#Dégradé_sans_nom_12"/><linearGradient id="Dégradé_sans_nom_18-2" x1="1058.31" y1="99.63" x2="1058.31" y2="328.99" xlink:href="#Dégradé_sans_nom_18"/><linearGradient id="Dégradé_sans_nom_21" x1="636.48" y1="102.76" x2="636.48" y2="584.68" gradientTransform="matrix(1, 0, 0, -1, 4.92, 771.07)" gradientUnits="userSpaceOnUse"><stop offset="0" stop-color="#911a14"/><stop offset="1" stop-color="#2d0000"/></linearGradient><linearGradient id="Dégradé_sans_nom_22" x1="636.31" y1="102.76" x2="636.31" y2="584.68" gradientTransform="matrix(1, 0, 0, -1, 4.92, 771.07)" gradientUnits="userSpaceOnUse"><stop offset="0.33" stop-color="#ff7354"/><stop offset="1" stop-color="#ffd648"/></linearGradient><linearGradient id="Dégradé_sans_nom_21-2" x1="623.39" y1="561.06" x2="659.85" y2="561.06" gradientTransform="matrix(1, 0, 0, -1, 0.35, 751.07)" xlink:href="#Dégradé_sans_nom_21"/><linearGradient id="Dégradé_sans_nom_29" x1="390.33" y1="106.32" x2="390.33" y2="331.52" gradientTransform="matrix(1, 0, 0, -1, 4.92, 771.07)" gradientUnits="userSpaceOnUse"><stop offset="0" stop-color="#c81a4b"/><stop offset="0.67" stop-color="#2d004b"/></linearGradient><linearGradient id="Dégradé_sans_nom_14-2" x1="368.2" y1="106.32" x2="368.2" y2="331.52" gradientTransform="matrix(1, 0, 0, -1, 4.92, 771.07)" xlink:href="#Dégradé_sans_nom_14"/><linearGradient id="Dégradé_sans_nom_22-2" x1="234.01" y1="278.87" x2="508.8" y2="278.87" gradientTransform="matrix(1, 0, 0, -1, 0.35, 751.07)" xlink:href="#Dégradé_sans_nom_22"/><linearGradient id="Dégradé_sans_nom_22-3" x1="413.76" y1="183.11" x2="499.26" y2="183.11" gradientTransform="matrix(1, 0, 0, -1, 0.35, 751.07)" xlink:href="#Dégradé_sans_nom_22"/><linearGradient id="Dégradé_sans_nom_22-4" x1="245.45" y1="184.2" x2="328.64" y2="184.2" gradientTransform="matrix(1, 0, 0, -1, 0.35, 751.07)" xlink:href="#Dégradé_sans_nom_22"/><linearGradient id="Dégradé_sans_nom_22-5" x1="493.58" y1="180.25" x2="519.1" y2="180.25" gradientTransform="matrix(1, 0, 0, -1, 0.35, 751.07)" xlink:href="#Dégradé_sans_nom_22"/><linearGradient id="Dégradé_sans_nom_22-6" x1="505.73" y1="274.74" x2="528.45" y2="274.74" gradientTransform="matrix(1, 0, 0, -1, 0.35, 751.07)" xlink:href="#Dégradé_sans_nom_22"/><linearGradient id="Dégradé_sans_nom_14-3" x1="122.48" y1="74.83" x2="122.48" y2="271.99" gradientTransform="matrix(1, 0, 0, -1, 0.35, 751.07)" xlink:href="#Dégradé_sans_nom_14"/><linearGradient id="Dégradé_sans_nom_15-4" x1="215.07" y1="173.41" x2="275.02" y2="173.41" xlink:href="#Dégradé_sans_nom_15"/><linearGradient id="Dégradé_sans_nom_38" x1="23.64" y1="181.98" x2="229.69" y2="181.98" gradientTransform="matrix(1, 0, 0, -1, 0.35, 751.07)" gradientUnits="userSpaceOnUse"><stop offset="0" stop-color="#fff"/><stop offset="1" stop-color="#ffe89a"/></linearGradient><linearGradient id="Dégradé_sans_nom_14-4" x1="289.66" y1="74.83" x2="289.66" y2="186.42" gradientTransform="matrix(1, 0, 0, -1, 0.35, 751.07)" xlink:href="#Dégradé_sans_nom_14"/><linearGradient id="Dégradé_sans_nom_15-5" x1="223.76" y1="130.63" x2="407.14" y2="130.63" xlink:href="#Dégradé_sans_nom_15"/><linearGradient id="Dégradé_sans_nom_12-3" x1="-0.35" y1="87.84" x2="1355.66" y2="87.84" gradientTransform="matrix(1, 0, 0, -1, 0.35, 751.07)" xlink:href="#Dégradé_sans_nom_12"/><linearGradient id="Dégradé_sans_nom_12-4" x1="413.98" y1="42.53" x2="695.69" y2="42.53" gradientTransform="translate(695.34 771.07) rotate(180)" xlink:href="#Dégradé_sans_nom_12"/><linearGradient id="Dégradé_sans_nom_12-5" x1="742.36" y1="88.92" x2="742.36" y2="286.2" gradientTransform="matrix(1, 0, 0, -1, 0.35, 751.07)" xlink:href="#Dégradé_sans_nom_12"/><linearGradient id="Dégradé_sans_nom_22-7" x1="886.53" y1="88.92" x2="886.53" y2="286.2" gradientTransform="matrix(1, 0, 0, -1, 0.35, 751.07)" xlink:href="#Dégradé_sans_nom_22"/><linearGradient id="Dégradé_sans_nom_12-6" x1="884" y1="108.92" x2="884" y2="282.53" xlink:href="#Dégradé_sans_nom_12"/><linearGradient id="Dégradé_sans_nom_38-2" x1="758.27" y1="204.77" x2="926.72" y2="204.77" xlink:href="#Dégradé_sans_nom_38"/><linearGradient id="Dégradé_sans_nom_38-3" x1="770.68" y1="137.1" x2="964.08" y2="137.1" xlink:href="#Dégradé_sans_nom_38"/><linearGradient id="Dégradé_sans_nom_12-7" x1="784.6" y1="65.74" x2="1360.92" y2="65.74" xlink:href="#Dégradé_sans_nom_12"/></defs><title>bg</title><rect id="loaderBg" class="cls-1" x="0.35" width="1366" height="750"/><polygon id="buildings" class="cls-2" points="0 627.74 1366 627.74 1366 371.09 1323.18 373.98 1325.58 474.6 1298.43 474.6 1309.21 300.8 1206.06 277.37 1206.76 335.17 1120.48 349.56 1127.17 464.87 1100.19 464.87 1101.34 237.64 1089.95 167.11 1078.83 237.64 1079.74 464.87 1025.54 467.43 1039.36 277.95 984.08 270.24 978.79 131.69 978.4 271.26 927.86 282.95 938.7 472.2 767.81 432.39 620.37 458.49 620.37 255.98 513.1 278.99 520.53 359.55 405.82 380.76 420.78 483.22 317.36 481.63 331.03 282.95 268.08 276.35 261.93 113.61 261.93 274.06 199.11 286.28 198.6 359.55 145.87 380.76 148.55 511.11 131.48 511.11 125.79 284.45 22.64 314.06 30.17 439.55 0 439.55 0 627.74"/><g id="bush"><path class="cls-3" d="M871.35,622.84s9.27-142-10.59-139.48-21.18,44.49-21.18,44.49-17.79-74.2-36.39-74.48-15.94,48.29-15.94,48.29-22-45-46-24.45c-16.76,14.35-6.87,39.4-6.87,39.4s-28.7-60.79-55.62-51.44-28.11,64.45-28.11,64.45-45.75-83.2-82.13-62-39.95,93-39.95,93S478.86,459.47,450.11,480s13.55,87.1,13.55,87.1S391.81,507.3,378.1,542.4s7.52,53.31,7.52,53.31-39.09-53.2-62.93-27.79c-13,13.87-25.41,50.42-25.41,50.42Z" transform="translate(0.35)"/><path class="cls-4" d="M737.59,521.57s-9.9-25,6.86-39.39c16.33-14,31.73,2.38,39.92,14.27-6.78-11.2-24.3-35.36-43.12-19.25-13.17,11.26-9.88,29.12-7.87,36.27C736.06,518.33,737.59,521.57,737.59,521.57Z" transform="translate(0.35)"/><path class="cls-4" d="M790.45,506.63s-2.64-48.55,15.94-48.27c3.81,0,7.59,3.24,11.2,8.23-4.52-7.78-9.44-13.14-14.4-13.22-17.21-.25-16.21,41.26-16,47.48C789.3,504.26,790.45,506.63,790.45,506.63Z" transform="translate(0.35)"/><path class="cls-4" d="M842.79,532.83s1.34-42,21.18-44.49a4.11,4.11,0,0,1,3.27,1.07c-1.7-4.13-3.83-6.39-6.48-6.12-15.25,2-19.6,27.39-20.75,38.89C841.74,528.63,842.79,532.83,842.79,532.83Z" transform="translate(0.35)"/><path class="cls-4" d="M325.9,572.79c18.41-19.63,45.91,7.64,57.48,21.07-5.08-8.17-10.89-23.76-2-46.48,13.71-35.14,85.57,24.74,85.57,24.74s-42.36-66.61-13.56-87.18c16.08-11.5,38.72,15.09,55.54,40.74-17.06-27-41.61-58-58.74-45.72-28.81,20.57,13.55,87.1,13.55,87.1s-71.85-59.84-85.56-24.74c-8.86,22.73-3.12,38.31,2,46.49-11.57-13.44-39.07-40.71-57.49-21.08-13,13.88-25.41,50.43-25.41,50.43h5C306.11,607.94,315.83,583.58,325.9,572.79Z" transform="translate(0.35)"/><path class="cls-4" d="M531.77,565.63s3.6-71.82,40-93c26.73-15.62,58.52,25.17,73.5,47.9-13.17-21-47.88-69.72-76.71-52.88-33.71,19.69-39.25,82.8-39.88,91.86C530.64,563.33,531.77,565.63,531.77,565.63Z" transform="translate(0.35)"/><path class="cls-4" d="M653.85,534.59S655,479.49,682,470.14c15.72-5.46,32,13,42.9,29.28-10.67-17.2-28.8-40.28-46.1-34.26-25.5,8.86-27.91,58.72-28.09,64C652.72,532.53,653.85,534.59,653.85,534.59Z" transform="translate(0.35)"/></g><g id="building"><polygon class="cls-5" points="1309.86 646.46 1336.14 406.62 1136.56 385 1150.74 646.46 1309.86 646.46"/><polygon class="cls-6" points="1150.74 646.46 1108.3 644.61 1084.53 408.3 1136.56 385 1150.74 646.46"/><polygon class="cls-7" points="1138.87 427.46 1342.74 444.27 1339.61 459.55 1139.9 446.68 1138.87 427.46"/><polygon class="cls-8" points="1142.8 499.87 1336.14 513.23 1328.65 533.31 1144.07 523.47 1142.8 499.87"/><polygon class="cls-9" points="1147.35 583.96 1323.94 583.96 1318.35 604.3 1148.05 596.75 1147.35 583.96"/><polygon class="cls-10" points="1342.74 444.27 1332.85 436.76 1138.87 421.47 1138.87 427.46 1342.74 444.27"/><polygon class="cls-10" points="1336.14 513.23 1325.34 505.25 1142.8 492.05 1142.8 499.87 1336.14 513.23"/><polygon class="cls-10" points="1323.94 583.96 1317.04 580.97 1147.35 580.97 1147.35 583.96 1323.94 583.96"/></g><g id="church"><polygon class="cls-11" points="836.04 539.74 849.71 651.44 1273.79 651.44 1283.27 539.74 836.04 539.74"/><polygon class="cls-12" points="822.68 539.74 862.69 481.32 1260.99 481.32 1301.79 539.74 822.68 539.74"/><polygon class="cls-13" points="1111.04 458.68 1110.52 472.7 1058.65 422.08 1008.91 470.37 1008.91 461.01 993.54 461.01 993.54 499.19 1005.45 651.44 1111.67 651.44 1123.77 499.19 1123.77 459.21 1111.04 458.68"/><polygon class="cls-14" points="1013.23 462.57 989.92 462.57 1001.57 382.55 1013.23 462.57"/><polygon class="cls-14" points="986.71 486.18 993.54 487.11 1058.65 422.08 1123.77 485.56 1129.17 484.91 1057.71 416.24 986.71 486.18"/><polygon class="cls-14" points="1106.49 465.23 1128.07 465.23 1117.28 386.19 1106.49 465.23"/><polygon class="cls-14" points="1053.01 420.86 1059.65 370.68 1064.28 422.57 1053.01 420.86"/><ellipse class="cls-14" cx="1058.01" cy="469.07" rx="28.79" ry="25.96"/><ellipse class="cls-14" cx="1057.94" cy="544.69" rx="40.68" ry="36.69"/><polygon class="cls-10" points="993.64 497.83 1123.77 499.19 1123.57 501.71 993.8 502.3 993.64 497.83"/><polygon class="cls-10" points="1017.28 651.44 1009.55 500.06 1007.93 500.06 1013.87 651.82 1017.28 651.44"/><polygon class="cls-10" points="1098.62 651.44 1110.79 500.06 1108.79 500.06 1095.27 651.44 1098.62 651.44"/><path class="cls-10" d="M854.22,544.69l4.78,59.6h19.88l2.17-59.6Zm23.32,56.71H860.05l-3.56-53.59,22.25-1.35Z" transform="translate(0.35)"/><path class="cls-10" d="M904.29,544.69l2.05,59.6h20.33l2-59.6Zm21.2,56.71H906.85l-.56-53.59,21,.44Z" transform="translate(0.35)"/><path class="cls-10" d="M954.07,544.69l2.71,59.6h18.81l1.9-59.6ZM974.4,601.4H957.93L956,547.81l19.41-1.35Z" transform="translate(0.35)"/><path class="cls-10" d="M1258.12,544.11l-3.9,59.59H1238l-1.69-59.59Zm-19,56.71h14.28l2.91-53.59-18.16-1.35Z" transform="translate(0.35)"/><path class="cls-10" d="M1212.64,544.11l-2.42,59.59h-23.89L1184,544.11Zm-24.89,56.71h21.83l.64-53.59-24.7.44Z" transform="translate(0.35)"/><path class="cls-10" d="M1162.56,544.11l-3.14,59.59h-21.7l-2.2-59.59Zm-23.5,56.71h19l2.18-53.59-22.41-1.35Z" transform="translate(0.35)"/><polygon class="cls-10" points="889.85 651.44 888.64 539.74 894.07 539.74 891.36 651.44 889.85 651.44"/><polygon class="cls-10" points="940.25 651.82 937.24 539.74 944 539.74 942.63 651.82 940.25 651.82"/><polygon class="cls-10" points="1170.72 539.74 1176.65 539.74 1173.63 651.44 1170.18 651.44 1170.72 539.74"/><polygon class="cls-10" points="1218.11 539.74 1219.4 651.44 1223.07 651.44 1224.8 539.74 1218.11 539.74"/><polygon class="cls-10" points="1301.79 539.74 1298.2 545.88 1120.3 542.81 1120.55 539.74 1301.79 539.74"/><polygon class="cls-10" points="822.68 539.74 996.71 539.74 996.71 544.69 827.75 544.69 822.68 539.74"/></g><g id="eiffelTour"><path class="cls-15" d="M726,549.14l3.8-17.61L716.25,531c-3.2-7.39-7.69-18-12.7-30.89V500c-.29-.71-.58-1.44-.85-2.16l-1-2.57c-3.59-9.3-7.4-19.6-11.2-30.56-.39-1.07-.76-2.14-1.12-3.22-.25-.72-.49-1.44-.74-2.17s-.36-1.07-.55-1.61c-2.11-6.26-4.2-12.72-6.23-19.31l1.69-28.76-9.81.11c-.3-1.18-.62-2.35-.91-3.53a430.68,430.68,0,0,1-8.47-42.88q-.21-1.26-.39-2.55c-1.6-10.28-3-20.84-4.27-31.46-.1-1.07-.24-2.14-.36-3.2-1.35-11.92-2.52-23.86-3.52-35.46-.1-1-.17-2-.27-3.06-1.07-12.77-1.94-25.09-2.63-36.46a12.1,12.1,0,0,0-.12-2.08c-2.17-36.35-2.63-62.65-2.63-62.65l-8.64.71-8.65-.71s-.44,26.33-2.63,62.65a12.1,12.1,0,0,1-.12,2.08c-.69,11.37-1.56,23.69-2.61,36.46-.1,1-.18,2-.27,3.06-.81,9.7-1.78,19.65-2.86,29.61-.17,1.53-.36,3.06-.53,4.69-1.46,12.84-3.15,25.67-5.08,38-.15.93-.29,1.84-.44,2.76-2.34,14.41-5.08,28.13-8.15,40.45-.36,1.4-.73,2.81-1.09,4.23l-12.36.12,5.23,25q-2.93,9.6-6,18.83c-.35,1.07-.71,2.11-1.06,3.15h0c-.67,1.94-1.31,3.86-2,5.76-.25.78-.52,1.52-.8,2.32-3.38,9.82-6.77,19.11-10.16,27.61-.24.64-.49,1.28-.71,1.91L580,498.41c-.43,1.07-.81,2.11-1.24,3.13-3.61,9.17-6.91,17.11-9.62,23.53l-14.93-.59.76,26.17h.88L475,668.31h86.41L571.61,640c2-5.56,23.72-61.62,67.47-61.62,45.29,0,71.38,60.16,72.19,62l10.08,27.86h86.42ZM640.94,361.81c.14-1.84.27-3.69.39-5.56.12,1.85.27,3.7.41,5.52,0,.88.13,1.76.2,2.63,1.12,14,2.63,27,4.66,38,.46,2.54.91,5.05,1.37,7.54l-13.32.15c.46-2.54.94-5.09,1.41-7.64,2-11,3.54-23.94,4.66-37.91C640.79,363.6,640.86,362.72,640.94,361.81Zm-63.11,261,12.31-34.15,5.71,4.38A119.07,119.07,0,0,0,577.83,622.76Zm20.41-32.49-7.11-4.41,4.23-11.74L611.15,579a74.12,74.12,0,0,0-12.91,11.32ZM614.15,577l-18.21-4.46,7.93-22h2.61L625.3,572A53.66,53.66,0,0,0,614.15,577Zm12.93-5.59-16.32-20.83h26.79l1.36,19.1A46.66,46.66,0,0,0,627.08,571.42Zm-16.45-44.73c1.52-6.58,3.49-15.17,5.78-25.7.25-1.18.51-2.38.79-3.62a3.88,3.88,0,0,1,.19-.87c.14-.66.29-1.33.42-2q3-13.74,6.49-31.09c.14-.69.29-1.39.44-2.09s.21-1.07.32-1.61c.21-1,.41-2.09.63-3.16q1.92-9.54,4-20.1l23.51.83q2.22,11.44,4.29,21.7a3.67,3.67,0,0,0,.09.43l.35,1.81a5.57,5.57,0,0,0,.2,1c2.6,12.77,5,24.11,7.09,33.95v.18l.45,2.16c.16.7.28,1.27.43,1.89,2.66,12.23,4.86,21.85,6.5,28.81Zm30.75,43,.44-19.1h37l-22.55,22A47.52,47.52,0,0,0,641.38,569.74Zm17.71,4,21.09-19.33,6.47,17.92L668.58,579a63.16,63.16,0,0,0-9.49-5.3Zm19.28,13.06a78.18,78.18,0,0,0-7.3-6.11L688,576.29l2.37,6.53Zm2.85,2.8,10.31-3.76,3.53,9.75-7.44,1.13c-2-2.45-4.13-4.86-6.4-7.17Zm8.25,9.44,6.37-1.28,10.59,29.32a143.54,143.54,0,0,0-17-28.09Z" transform="translate(0.35)"/><path class="cls-16" d="M726,549.14l3.8-17.61L716.25,531c-3.2-7.39-7.69-18-12.7-30.89V500c-.29-.71-.58-1.44-.85-2.16l-1-2.57-.49-1.26c-3.39-9-7.08-18.83-10.71-29.3-.39-1.07-.76-2.14-1.12-3.22-.25-.72-.49-1.44-.74-2.17s-.36-1.07-.55-1.61c-2.11-6.26-4.2-12.72-6.23-19.31v-1.76l1.54-27-9.81.11c-.3-1.18-.63-2.35-.91-3.53a432.88,432.88,0,0,1-8.48-42.88c-.13-.84-.27-1.69-.39-2.55-1.59-10.28-3-20.84-4.27-31.46-.1-1.07-.23-2.14-.35-3.2-1.2-10.46-2.24-21-3.15-31.23-.14-1.41-.26-2.81-.38-4.23-.1-1-.16-2-.27-3.06-1.06-12.77-1.93-25.09-2.62-36.46a12.1,12.1,0,0,0-.12-2.08c-2.17-36.35-2.63-62.65-2.63-62.65l-8.64.71-8.66-.71s-.44,26.33-2.62,62.65a12.1,12.1,0,0,1-.12,2.08c-.7,11.37-1.56,23.69-2.61,36.46-.1,1-.19,2-.27,3.06-.78,9.17-1.7,18.64-2.7,28.1a11.74,11.74,0,0,1-.17,1.53c-.16,1.52-.35,3.05-.52,4.69-1.46,12.83-3.15,25.67-5.08,38-.16.93-.29,1.85-.44,2.77-2.34,14.41-5.09,28.13-8.15,40.44-.36,1.41-.73,2.82-1.09,4.24l-12.37.12,5.24,25c-2,6.4-4,12.68-6,18.82-.36,1.07-.71,2.11-1.07,3.15h0c-.66,1.94-1.3,3.87-2,5.76-.26.78-.53,1.53-.8,2.32-3.39,9.83-6.78,19.12-10.16,27.62-.24.64-.5,1.28-.72,1.91l-1.28,3.31c-.43,1.07-.82,2.11-1.24,3.13-3.61,9.17-6.91,17.12-9.62,23.54l-14.93-.6.76,26.18h.88L549.89,559,531.5,585.8l-56.64,82.51h86.41L571.44,640c2-5.56,23.72-61.62,67.47-61.62,45.29,0,71.38,60.15,72.19,62l10.08,27.86H807.6Zm-90-146.7c2-11,3.54-23.94,4.66-37.91,0-.87.14-1.75.22-2.65.14-1.85.27-3.7.39-5.57.12,1.85.27,3.7.41,5.52,0,.89.13,1.76.2,2.63,1.12,14,2.63,27,4.66,38,.46,2.54.91,5.05,1.37,7.54l-13.32.15c.46-2.6.94-5.15,1.41-7.75Zm-19.91,99.71c.09-.35.17-.73.26-1.1.25-1.18.51-2.38.79-3.62a3.88,3.88,0,0,1,.19-.87c.14-.66.29-1.33.42-2q3-13.76,6.49-31.1c.14-.69.29-1.39.44-2.09s.21-1.07.32-1.61c.21-1,.41-2.09.63-3.16q1.92-9.54,4-20.09l23.51.82q2.22,11.44,4.29,21.7a3.29,3.29,0,0,0,.09.43l.35,1.82a5.47,5.47,0,0,0,.2,1v.07q3.92,19.13,7.09,33.88v.18c.15.72.3,1.46.45,2.16s.28,1.27.43,1.89c1.07,4.94,2.06,9.43,3,13.51q2,9.06,3.52,15.28l-27.38-1.14-34.56-1.38c1.46-6.34,3.34-14.58,5.52-24.6ZM577.83,622.87l12.31-34.16,5.71,4.39a119.22,119.22,0,0,0-18,29.66Zm20.41-32.49L591.13,586l4.23-11.73,15.79,4.83a74.26,74.26,0,0,0-12.91,11.21Zm15.91-13.26-18.21-4.47,7.73-21.39.2-.55h2.61L625.3,572.1A53.5,53.5,0,0,0,614.15,577Zm12.93-5.6L610.76,550.7h26.79l1.36,19.1a46.61,46.61,0,0,0-11.83,1.62Zm14.3-1.72.44-19.1h37l-22.55,22a47.53,47.53,0,0,0-14.88-3Zm17.71,4.05,21.09-19.39,6.47,17.92L668.58,579a63.16,63.16,0,0,0-9.49-5.3Zm19.28,13.06a78.18,78.18,0,0,0-7.3-6.11L688,576.35l2.37,6.53Zm2.85,2.8L691.53,586l3.53,9.75-7.44,1.13a92.9,92.9,0,0,0-6.4-7.23Zm8.25,9.44,6.37-1.28,10.59,29.32a143.49,143.49,0,0,0-17-28.15Z" transform="translate(0.35)"/><path class="cls-14" d="M600,593l-5.71-4.38-.89,2.52,2.5,1.92c-2.23,2.65-4.25,5.34-6.08,8l-4.4,12.23c1.69-2.51,3.47-5,5.44-7.55A109.24,109.24,0,0,1,600,593Z" transform="translate(0.35)"/><path class="cls-14" d="M672.66,579l18.09-6.66-6.49-17.86-3.06,2.81,5.45,15.11-15.48,5.7A12.83,12.83,0,0,1,672.66,579Z" transform="translate(0.35)"/><path class="cls-14" d="M641.38,569.74l.41-17.26-.14-1.84h-4.1l1.36,19.1a47.86,47.86,0,0,0-8.37.91l.64.81a47.91,47.91,0,0,1,11-1.68A5.36,5.36,0,0,0,641.38,569.74Z" transform="translate(0.35)"/><path class="cls-14" d="M661.07,571.91l21.82-21.32h-4.08l-21.52,21c1,.3,2,.62,3,1Z" transform="translate(0.35)"/><path class="cls-14" d="M599.77,588.68l2.56,1.53a74.53,74.53,0,0,1,12.91-11.32l-15.79-4.77-.41,1.13,12.1,3.7A72.42,72.42,0,0,0,599.77,588.68Z" transform="translate(0.35)"/><path class="cls-14" d="M645.82,361.77c-.14-1.82-.27-3.67-.39-5.52l-.41,5.56a25.55,25.55,0,0,1-.22,2.66q-.6,7.86-1.42,15.28c.9,8.16,2,15.8,3.22,22.68.46,2.54.91,5,1.37,7.53l-9.21.11h0l13.31-.15q-.68-3.74-1.37-7.54c-2-11-3.54-24-4.66-38C646,363.53,645.89,362.65,645.82,361.77Z" transform="translate(0.35)"/><path class="cls-14" d="M633.72,436.58l19.45.69q2.22,11.44,4.29,21.7a3.67,3.67,0,0,0,.09.43l.35,1.81a5.57,5.57,0,0,0,.2,1c2.6,12.77,5,24.11,7.09,33.95v.18l.45,2.16c.16.7.28,1.27.43,1.89,2.64,12.1,4.83,21.7,6.45,28.64l4.14.17c-1.7-7-3.83-16.61-6.51-28.81l-.41-1.89-.45-2.16v-.18c-2.07-9.84-4.51-21.13-7.15-33.95a4.81,4.81,0,0,0-.21-1c-.1-.59-.22-1.2-.34-1.81l-.1-.43q-2.07-10.28-4.28-21.7l-23.52-.83Z" transform="translate(0.35)"/><path class="cls-14" d="M607.92,550.59l-.44,1.19L625.25,572a52.4,52.4,0,0,0-9.89,4.36l2.84.7A53.76,53.76,0,0,1,629.35,572l-.79-.9c-.51.12-1,.23-1.53.37l-14.79-18.89-1.7-1.94Z" transform="translate(0.35)"/><path class="cls-14" d="M573.05,525c2.71-6.42,6-14.38,9.62-23.53.41-1,.82-2.06,1.22-3.13s.87-2.19,1.29-3.32c.24-.63.47-1.27.73-1.91,3.27-8.5,6.69-17.79,10.16-27.61.26-.78.55-1.53.8-2.32.66-1.9,1.31-3.83,2-5.77h0c.35-1,.71-2.07,1.06-3.14,2-6.12,4.05-12.43,6-18.83l-5.23-25,12.35-.12c.37-1.42.74-2.83,1.1-4.23,3.12-12.32,5.81-26,8.15-40.45.15-.92.29-1.83.44-2.77,1.95-12.36,3.64-25.19,5.08-38,.17-1.53.36-3.06.53-4.69,1.08-10,2-19.86,2.86-29.61l.26-3.06c1.06-12.77,1.93-25.09,2.62-36.46a12.1,12.1,0,0,1,.12-2.08c2-34,2.56-59.21,2.61-62.34l-4.08-.34s-.44,26.33-2.63,62.65A12.1,12.1,0,0,1,630,251c-.69,11.37-1.56,23.69-2.61,36.46-.1,1-.18,2-.27,3.06-.81,9.7-1.78,19.65-2.86,29.61-.17,1.53-.36,3.06-.53,4.69-1.45,12.84-3.15,25.67-5.08,38-.15.94-.29,1.85-.44,2.77-2.34,14.41-5.08,28.13-8.15,40.45-.36,1.4-.73,2.81-1.09,4.23l-12.36.12,5.23,25q-2.92,9.6-6,18.83c-.35,1.07-.71,2.1-1.06,3.14h0c-.66,1.94-1.31,3.87-2,5.76-.25.78-.52,1.53-.8,2.33-3.38,9.82-6.77,19.11-10.16,27.61-.24.64-.49,1.28-.71,1.91l-1.29,3.32c-.42,1.06-.81,2.1-1.24,3.13-3.57,9.07-6.78,17-9.55,23.36Z" transform="translate(0.35)"/><path class="cls-14" d="M682.47,586.8l12.08-4-2.36-6.52-3.74,1,2,5.55-9.12,3.06C681.71,586.15,682.1,586.54,682.47,586.8Z" transform="translate(0.35)"/><path class="cls-14" d="M703.58,619.2l2.85,7.88A137,137,0,0,0,698,611.3c-12.32-16.12-30.89-32.93-54.83-32.93h-2.07c44.05,1.76,69.37,60.14,70.16,62l10.08,27.86h4.09l-10.07-27.86A147.14,147.14,0,0,0,703.58,619.2Z" transform="translate(0.35)"/><path class="cls-17" d="M645.43,187.05l4.56-.37v-.33l-6.59.53Z" transform="translate(0.35)"/><polygon class="cls-14" points="559.22 550.59 558.47 524.58 554.37 524.41 555.13 550.59 556.01 550.59 475.21 668.26 479.31 668.26 560.11 550.59 559.22 550.59"/><path class="cls-14" d="M691.72,596.72l7.44-1.13-3.53-9.75L692,587.16l3,8.43-3.81.58Z" transform="translate(0.35)"/><path class="cls-17" d="M699.92,597.76l-3.81.76,2.91,8.09a140,140,0,0,1,11.51,20.47Z" transform="translate(0.35)"/><path class="cls-17" d="M677.69,409.64h0Z" transform="translate(0.35)"/><polygon class="cls-14" points="596.86 410.47 635 404.98 647.42 404.98 683.77 409.54 596.86 410.47"/><polygon class="cls-14" points="730.16 531.46 714.4 525.84 570.59 521.99 554.37 524.41 730.16 531.46"/><polygon class="cls-18" points="627.02 206.79 657.89 206.79 660.2 173.22 623.74 175.65 627.02 206.79"/><polygon class="cls-17" points="625.87 175.5 623.74 171.72 636.49 168.73 633.22 126.77 639.19 125.12 641.68 78.04 641.97 125.12 647.63 125.12 644.54 168.59 656.06 168.03 656.06 173.5 625.87 175.5"/><path class="cls-14" d="M595.75,454.26l29.94,2.28c-.22,1.07-.42,2.12-.63,3.16l-30.37-2.28h0C595,456.37,595.4,455.33,595.75,454.26Z" transform="translate(0.35)"/><path class="cls-14" d="M690.43,464.61l-32.33-2.43a6.69,6.69,0,0,0-.2-1l-.35-1.81a3.67,3.67,0,0,1-.09-.43l31.85,2.41C689.67,462.47,690,463.54,690.43,464.61Z" transform="translate(0.35)"/><path class="cls-14" d="M617.2,497.37c-.28,1.24-.54,2.44-.79,3.62l-37.84.49c.43-1,.82-2.06,1.24-3.13Z" transform="translate(0.35)"/><path class="cls-14" d="M703.48,499.89l-37.28.47c-.15-.62-.28-1.25-.42-1.89s-.31-1.44-.46-2.16v-.18l36.45-1,1,2.56A10.92,10.92,0,0,0,703.48,499.89Z" transform="translate(0.35)"/><path class="cls-14" d="M640.94,361.81c-.08.91-.15,1.79-.22,2.66l-22.6,1.19c.15-.91.29-1.83.44-2.76Z" transform="translate(0.35)"/><path class="cls-14" d="M664.15,363.24l-22.21,1.16c0-.87-.15-1.75-.2-2.63l22-1.09C663.83,361.54,664,362.39,664.15,363.24Z" transform="translate(0.35)"/><path class="cls-14" d="M659.49,329.22l-35.83-4.35c.17-1.53.35-3.06.52-4.7l35,5.86C659.26,327.08,659.39,328.15,659.49,329.22Z" transform="translate(0.35)"/><path class="cls-14" d="M655.61,290.56H627.05c0-1,.17-2,.27-3.06h28C655.44,288.57,655.51,289.55,655.61,290.56Z" transform="translate(0.35)"/><path class="cls-14" d="M652.72,251.11H629.94a12.1,12.1,0,0,1,.12-2.08h22.55C652.65,249.72,652.68,250.37,652.72,251.11Z" transform="translate(0.35)"/></g><g id="arch"><path class="cls-19" d="M285.89,664.75l-26.33-225.2,271.37,5.8-31.69,219.4H434.76l5.32-93.84c1.32-23.49-18.72-43.5-44.77-44.69-1.42-.06-2.85-.07-4.27,0h0c-26.05.95-46.31,20.77-45.25,44.26l0,.64,5.75,93.65Z" transform="translate(0.35)"/><path class="cls-20" d="M263.76,664.75l-26.33-225.2,271.37,5.8-27.48,219.4H412.61l5.32-93.84c1.34-23.48-18.69-43.49-44.73-44.69-1.46-.07-2.93-.07-4.4,0h0c-26.05.95-46.31,20.77-45.26,44.26l0,.64,5.75,93.65Z" transform="translate(0.35)"/><polygon class="cls-14" points="234.36 471.19 509.15 474.6 504.23 484.5 242.58 480.53 234.36 471.19"/><polygon class="cls-14" points="237.78 439.55 243.49 429.52 517.75 437.93 531.28 445.35 237.78 439.55"/><polygon class="cls-14" points="417.54 664.75 432.44 505.39 436 505.39 419.69 664.75 417.54 664.75"/><polygon class="cls-14" points="414.11 569.09 499.61 569.09 492.58 577.65 418.14 573.37 414.11 569.09"/><polygon class="cls-14" points="323.47 664.75 312 500.85 308.28 503.33 322.13 664.75 323.47 664.75"/><polygon class="cls-14" points="245.8 569.09 328.99 569.09 324.25 574.81 253.59 574.81 245.8 569.09"/><path class="cls-10" d="M436.87,517.63,434,559.42l55.51,1.06,3.81-41.17Zm50.73,39.73H436.87l4-37.09,49.61.86Z" transform="translate(0.35)"/><path class="cls-10" d="M305.58,515.73l-55,1.36,6.27,43.39h51Zm-52.69,3.06,50.56.41,2.13,39.53-46-1.33Z" transform="translate(0.35)"/><polygon class="cls-14" points="238.77 447.94 508.38 451.37 508.38 453.86 238.77 450.9 238.77 447.94"/><polygon class="cls-21" points="509.15 474.6 506.08 469.8 241.31 469.8 234.36 471.19 509.15 474.6"/><polygon class="cls-22" points="414.11 569.09 418.3 566.83 493.93 566.83 499.61 569.09 414.11 569.09"/><polygon class="cls-23" points="328.99 569.09 323.99 566.83 252.41 564.65 245.8 569.09 328.99 569.09"/><polygon class="cls-14" points="492.58 577.65 514.71 577.65 519.45 574.81 499.61 569.09 492.58 577.65"/><polygon class="cls-24" points="519.45 574.81 515.43 571.8 493.93 566.83 499.61 569.09 519.45 574.81"/><polygon class="cls-14" points="245.09 502.04 501.39 507.27 521.79 511.11 522.21 508.22 501.78 504.21 244.81 499.68 245.09 502.04"/><polygon class="cls-14" points="504.23 484.5 525.06 488.4 528.8 482.85 509.15 474.6 504.23 484.5"/><polygon class="cls-25" points="528.8 482.85 526.43 478.94 506.08 469.8 509.15 474.6 528.8 482.85"/><polygon class="cls-10" points="279.58 664.75 273.28 613.65 302.66 613.65 305.93 664.75 279.58 664.75"/><polygon class="cls-10" points="431.67 664.75 434.36 613.65 465.16 613.65 461.44 664.75 431.67 664.75"/><polygon class="cls-14" points="465.16 613.65 476.31 617.11 473.65 664.75 461.44 664.75 465.16 613.65"/><polygon class="cls-14" points="302.66 613.65 314.91 619.17 314.91 664.75 305.93 664.75 302.66 613.65"/></g><g id="building-2" data-name="building"><polygon class="cls-26" points="43.31 676.24 14.89 495.38 230.77 479.08 215.42 676.24 43.31 676.24"/><polygon class="cls-27" points="215.42 676.24 250.69 675.16 275.36 494.52 230.77 479.08 215.42 676.24"/><polygon class="cls-10" points="20.35 530.07 227.75 517.78 227.28 523.92 21.21 535.64 20.35 530.07"/><polygon class="cls-10" points="27.41 575.08 223.48 572.72 222.94 579.68 27.82 577.65 27.41 575.08"/><polygon class="cls-10" points="34.94 622.9 219.57 622.9 219.15 628.4 35.36 625.65 34.94 622.9"/><polygon class="cls-10" points="48.19 492.86 66.22 676.24 68.35 676.24 52.76 492.52 48.19 492.86"/><polygon class="cls-10" points="100.37 488.92 102.25 676.24 104.63 676.24 104.63 488.6 100.37 488.92"/><polygon class="cls-10" points="144.85 485.57 144.85 676.24 147.31 676.24 150.8 485.11 144.85 485.57"/><polygon class="cls-10" points="189.36 482.19 178.14 676.24 179.09 676.24 191.92 482.01 189.36 482.19"/><polygon class="cls-28" points="230.04 488.6 23.99 553.31 31.7 602.33 191.92 558.4 34.28 618.74 39.12 649.59 222.09 590.53 230.04 488.6"/><polygon class="cls-29" points="224.11 564.65 360.89 628.41 364.6 676.24 215.42 676.24 224.11 564.65"/><polygon class="cls-30" points="364.6 676.24 399.86 676.24 407.49 635.53 264.23 576.08 224.11 564.65 360.89 628.41 364.6 676.24"/><polygon class="cls-10" points="256.4 676.24 245.8 594.78 354.12 635.5 348.47 676.24 345.08 675.43 349.88 637.23 249.35 601.57 259.91 676.24 256.4 676.24"/></g><polygon id="ground" class="cls-31" points="0 672.62 0.41 678.17 1356.01 674.38 1354.79 648.29 0 672.62"/><g id="bush-2" data-name="bush"><path class="cls-32" d="M.72,750.34s-4.57-36.58,5.19-35.87,10.33,11.46,10.33,11.46S25,706.82,34,706.74s7.87,12.32,7.87,12.32,10.74-11.6,22.48-6.31c3.82,1.3,5.75,5.16,4.3,8.61a6.44,6.44,0,0,1-.91,1.53s14-15.64,27.11-13.25,13.74,16.61,13.74,16.61,22.35-21.39,40.12-16,19.5,24.05,19.5,24.05,24.28-26.07,38.33-20.77S199.93,736,199.93,736s35.12-15.44,41.9-6.4-3.66,13.75-3.66,13.75,19.11-13.75,30.75-7.16c6.35,3.57,12.44,13,12.44,13Z" transform="translate(0.35)"/><path class="cls-4" d="M66.09,724.24a6.26,6.26,0,0,0-1.68-9.32,8,8,0,0,0-1.71-.83c-8-3.6-15.5.61-19.5,3.68,3.29-2.88,11.86-9.16,21.08-5,6.42,2.9,4.83,7.5,3.84,9.35C66.84,723.41,66.09,724.24,66.09,724.24Z" transform="translate(0.35)"/><path class="cls-4" d="M40.2,720.4s1.31-12.51-7.78-12.45A9.61,9.61,0,0,0,27,710.07a11.24,11.24,0,0,1,7-3.41c8.47,0,7.93,10.7,7.81,12.23A20.68,20.68,0,0,0,40.2,720.4Z" transform="translate(0.35)"/><path class="cls-4" d="M14.68,727.14S14,716.34,4.33,715.68a3.31,3.31,0,0,0-1.59.28,3.47,3.47,0,0,1,3.17-1.53c7.47.5,9.57,7.06,10.16,10C15.18,726.06,14.68,727.14,14.68,727.14Z" transform="translate(0.35)"/><path class="cls-4" d="M267.24,737.39c-9-5-22.45,2-28.09,5.44,2.51-2.1,5.32-6.11,1-12-6.77-9-41.8,6.38-41.8,6.38S219,720.07,205,714.76c-7.86-3-18.9,3.88-27.1,10.5,8.33-7,20.33-14.94,28.7-11.78,14,5.3-6.64,22.46-6.64,22.46s35.12-15.35,41.9-6.31c4.32,5.85,1.52,9.87-1,12,5.66-3.47,19.09-10.5,28.09-5.44,6.35,3.58,12.44,13,12.44,13h-2.43C277,746.56,272.19,740.22,267.24,737.39Z" transform="translate(0.35)"/><path class="cls-4" d="M166.67,735.59s-1.7-18.49-19.52-24c-13.07-4-28.6,6.5-35.92,12.35,6.44-5.41,23.4-18,37.48-13.63,16.48,5.07,19.18,21.39,19.48,23.67Z" transform="translate(0.35)"/><path class="cls-4" d="M107,727.6s-.58-14.2-13.74-16.61c-7.68-1.41-15.64,3.35-21,7.55,5.22-4.43,14-10.38,22.53-8.83,12.46,2.29,13.56,15.12,13.73,16.48C107.57,727.06,107,727.6,107,727.6Z" transform="translate(0.35)"/></g><g id="stars"><path class="cls-33" d="M130,120.31a3.76,3.76,0,1,1-3.74-3.38h0A3.57,3.57,0,0,1,130,120.31Z" transform="translate(0.35)"/><path class="cls-33" d="M745.72,175.5a3.77,3.77,0,1,1-3.76-3.36h0a3.57,3.57,0,0,1,3.75,3.34Z" transform="translate(0.35)"/><path class="cls-33" d="M548.77,222.36A3.77,3.77,0,1,1,545,219h0A3.58,3.58,0,0,1,548.77,222.36Z" transform="translate(0.35)"/><ellipse class="cls-33" cx="920.7" cy="254.48" rx="3.74" ry="3.38"/><path class="cls-33" d="M1084.18,88.31a3.76,3.76,0,1,1-3.75-3.38,3.58,3.58,0,0,1,3.75,3.38Z" transform="translate(0.35)"/><path class="cls-33" d="M707.22,249a3.76,3.76,0,1,1-3.74-3.38h0A3.57,3.57,0,0,1,707.22,249Z" transform="translate(0.35)"/><ellipse class="cls-33" cx="1160.62" cy="140.54" rx="3.74" ry="3.38"/><ellipse class="cls-33" cx="1247.1" cy="95.06" rx="3.74" ry="3.38"/><path class="cls-33" d="M1241.85,236.93a3.76,3.76,0,1,1-3.74-3.38,3.57,3.57,0,0,1,3.74,3.38Z" transform="translate(0.35)"/><ellipse class="cls-33" cx="924.45" cy="173.22" rx="3.74" ry="3.38"/><path class="cls-33" d="M384.27,147.57a3.3,3.3,0,0,1-3.39,3.2,3.34,3.34,0,0,1-3.56-3.05,3.29,3.29,0,0,1,3.39-3.21h.17A3.32,3.32,0,0,1,384.27,147.57Z" transform="translate(0.35)"/><ellipse class="cls-33" cx="120.59" cy="221" rx="1.22" ry="1.1"/><ellipse class="cls-33" cx="181.4" cy="94.01" rx="1.22" ry="1.1"/><ellipse class="cls-33" cx="44.87" cy="249.03" rx="1.22" ry="1.1"/><ellipse class="cls-33" cx="168.21" cy="290.56" rx="1.22" ry="1.1"/><ellipse class="cls-33" cx="272.23" cy="116.93" rx="1.22" ry="1.1"/><path class="cls-33" d="M505.73,99.1a1.18,1.18,0,0,1-1.23,1.1,1.11,1.11,0,1,1,0-2.2A1.18,1.18,0,0,1,505.73,99.1Z" transform="translate(0.35)"/><ellipse class="cls-33" cx="800.95" cy="245.65" rx="1.22" ry="1.1"/><ellipse class="cls-33" cx="895.29" cy="319.07" rx="1.22" ry="1.1"/><path class="cls-33" d="M1048,219a1.23,1.23,0,1,1-1.22-1.1A1.17,1.17,0,0,1,1048,219Z" transform="translate(0.35)"/><path class="cls-33" d="M1275,180a1.23,1.23,0,1,1-1.22-1.1A1.16,1.16,0,0,1,1275,180Z" transform="translate(0.35)"/><ellipse class="cls-33" cx="371.75" cy="210.14" rx="1.22" ry="1.1"/><ellipse class="cls-33" cx="487.97" cy="232.97" rx="1.22" ry="1.1"/><path class="cls-33" d="M800.6,187.05a1.23,1.23,0,1,1-1.22-1.1,1.17,1.17,0,0,1,1.22,1.1Z" transform="translate(0.35)"/><path class="cls-33" d="M1161.51,186.7a1.24,1.24,0,0,1-2.46,0,1.17,1.17,0,0,1,1.22-1.1A1.18,1.18,0,0,1,1161.51,186.7Z" transform="translate(0.35)"/><ellipse class="cls-33" cx="742.32" cy="370.68" rx="1.22" ry="1.1"/><path class="cls-33" d="M80.42,78a1.18,1.18,0,0,1-1.24,1.1A1.17,1.17,0,0,1,78,78h0a1.24,1.24,0,0,1,2.46,0Z" transform="translate(0.35)"/><path class="cls-33" d="M772.73,68.76a3.41,3.41,0,1,1-3.39-3.05A3.24,3.24,0,0,1,772.73,68.76Z" transform="translate(0.35)"/><path class="cls-33" d="M391.13,271.19a3.49,3.49,0,1,1-3.48-3.14,3.32,3.32,0,0,1,3.48,3.14Z" transform="translate(0.35)"/></g><g id="pyramid"><polygon class="cls-34" points="639.12 662.15 740.1 662.15 846.3 464.87 639.12 662.15"/><polygon class="cls-35" points="846.3 464.87 1033.66 662.15 740.1 662.15 846.3 464.87"/><path class="cls-36" d="M1017.2,662.15l-21.19-20,8.28-10.58-3.22-3.39-7.72,11.44L950.17,599l11.41-12.3-2.15-2.26-11.26,12.67L905,556.32l12.61-16-1.88-2-12.51,16.26L859.36,513.2l13.26-20.26-2.25-2.37-13.18,20.6-23.93-22.63L831,492.68l23.85,22.05-30.49,47.69L803.7,543.3l-2,3.79,20.6,18.64-32.19,50.35-18.34-13.37-1,2L789,617.73l-28.38,44.32h1.25l28.43-43.45L831.47,648l-10.83,14.08h.85l10.71-13.57,19,13.57h2l-20.13-14.67,33.12-42,41.33,37.41-17,19.21h1.09l16.94-18.34,20.2,18.34h3.49l-21.89-20.24L948.19,601,992,641.55l-13.88,20.54h2.24l14.21-18.15,19.64,18.15ZM857,516.76l44,40.75L867,601.83,826.08,564ZM832.27,647l-40.91-29.84L824,567.34l41,37.14Zm77-6-41.07-38,34.63-43.86,43.41,40.16Z" transform="translate(0.35)"/><polygon class="cls-37" points="927.07 549.9 758.62 627.74 782.77 525.38 846.3 464.87 927.07 549.9"/><polygon class="cls-38" points="942.15 565.79 788.17 633.56 771.02 662.15 964.43 589.25 942.15 565.79"/></g><g id="bush-3" data-name="bush"><path class="cls-39" d="M1363.68,750s9.27-74.87-10.59-73.53-21.18,23.46-21.18,23.46-17.79-39.14-36.4-39.28-15.94,25.46-15.94,25.46-22-23.73-46-12.89c-16.76,7.56-6.78,20.76-6.78,20.76s-28.7-32.09-55.62-27.11-28.11,34-28.11,34S1097.31,657,1061,668.17s-40,49-40,49-49.71-53.35-78.46-42.5,13.55,46,13.55,46-71.86-31.56-85.56-13,7.49,28,7.49,28-39.23-28-63.07-14.61c-13,7.31-25.41,26.59-25.41,26.59Z" transform="translate(0.35)"/><path class="cls-4" d="M1225,690.23s-9.9-13.21,6.78-20.77c16.33-7.38,31.73,1.25,39.92,7.52-6.78-5.9-24.3-18.64-43.13-10.15-13.14,5.95-9.87,15.36-7.86,19.13C1223.49,688.5,1225,690.23,1225,690.23Z" transform="translate(0.35)"/><path class="cls-4" d="M1277.9,682.34s-2.66-25.61,15.93-25.46a19.82,19.82,0,0,1,11.2,4.34c-4.53-4.11-9.44-6.93-14.41-7-17.21-.14-16.21,21.76-16,25A39.42,39.42,0,0,1,1277.9,682.34Z" transform="translate(0.35)"/><path class="cls-4" d="M1330.24,696.16s1.32-22.15,21.16-23.46a6.74,6.74,0,0,1,3.27.55,7.31,7.31,0,0,0-6.47-3.18c-15.25,1-19.61,14.43-20.76,20.49C1329.22,693.94,1330.24,696.16,1330.24,696.16Z" transform="translate(0.35)"/><path class="cls-4" d="M813.3,717.26c18.41-10.36,45.93,4,57.48,11.11-5.08-4.31-10.89-12.53-2-24.45,13.71-18.52,85.57,13,85.57,13S912,681.81,940.76,671c16.08-6.11,38.72,8,55.54,21.48-17.06-14.25-41.61-30.56-58.74-24.09-28.8,10.83,13.55,46,13.55,46s-71.85-31.55-85.56-13.05c-8.86,12-3.12,20.2,2,24.45-11.57-7.08-39.07-21.47-57.49-11.11-13,7.3-25.41,26.59-25.41,26.59h5C793.54,735.73,803.27,722.91,813.3,717.26Z" transform="translate(0.35)"/><path class="cls-4" d="M1019.21,713.44s3.59-37.84,40-49c26.72-8.22,58.5,13.28,73.48,25.26-13.16-11-47.86-36.76-76.68-27.89-33.74,10.4-39.28,43.68-39.91,48.46C1018.07,712.23,1019.21,713.44,1019.21,713.44Z" transform="translate(0.35)"/><path class="cls-4" d="M1141.29,697.07s1.2-29,28.1-34c15.73-2.87,32,6.84,42.91,15.45-10.68-9.06-28.81-21.24-46.11-18.06-25.41,4.66-27.9,30.95-28.09,33.72C1140.15,696,1141.29,697.07,1141.29,697.07Z" transform="translate(0.35)"/></g></svg>