<svg id="Calque_1" data-name="Calque 1" xmlns="http://www.w3.org/2000/svg" xmlns:xlink="http://www.w3.org/1999/xlink" viewBox="0 0 806.22 470.19"><defs><style>.cls-1{fill:url(#Dégradé_sans_nom_10);}.cls-2{opacity:0.51;fill:url(#Dégradé_sans_nom_11);}.cls-2,.cls-28,.cls-37{isolation:isolate;}.cls-3{fill:url(#Dégradé_sans_nom_12);}.cls-4{fill:#fff594;}.cls-5{fill:url(#Dégradé_sans_nom_13);}.cls-6{fill:url(#Dégradé_sans_nom_14);}.cls-7{fill:url(#Dégradé_sans_nom_15);}.cls-8{fill:url(#Dégradé_sans_nom_16);}.cls-9{fill:url(#Dégradé_sans_nom_17);}.cls-10{fill:#ff664e;}.cls-11{fill:url(#Dégradé_sans_nom_18);}.cls-12{fill:url(#Dégradé_sans_nom_19);}.cls-13{fill:url(#Dégradé_sans_nom_20);}.cls-14{fill:#400800;}.cls-15{fill:url(#Dégradé_sans_nom_21);}.cls-16{fill:url(#Dégradé_sans_nom_22);}.cls-17{fill:#ab1800;}.cls-18{fill:url(#Dégradé_sans_nom_23);}.cls-19{fill:url(#Dégradé_sans_nom_29);}.cls-20{fill:url(#Dégradé_sans_nom_30);}.cls-21{fill:url(#Dégradé_sans_nom_31);}.cls-22{fill:url(#Dégradé_sans_nom_32);}.cls-23{fill:url(#Dégradé_sans_nom_33);}.cls-24{fill:url(#Dégradé_sans_nom_34);}.cls-25{fill:url(#Dégradé_sans_nom_35);}.cls-26{fill:url(#Dégradé_sans_nom_36);}.cls-27{fill:url(#Dégradé_sans_nom_37);}.cls-28,.cls-37{opacity:0.63;}.cls-28{fill:url(#Dégradé_sans_nom_38);}.cls-29{fill:url(#Dégradé_sans_nom_39);}.cls-30{fill:url(#Dégradé_sans_nom_40);}.cls-31{fill:url(#Dégradé_sans_nom_41);}.cls-32{fill:url(#Dégradé_sans_nom_42);}.cls-33{fill:#ffff8a;}.cls-34{fill:url(#Dégradé_sans_nom_44);}.cls-35{fill:url(#Dégradé_sans_nom_45);}.cls-36{fill:url(#Dégradé_sans_nom_46);}.cls-37{fill:url(#Dégradé_sans_nom_47);}.cls-38{fill:url(#Dégradé_sans_nom_49);}.cls-39{fill:none;}</style><linearGradient id="Dégradé_sans_nom_10" x1="403.04" y1="1.07" x2="403.04" y2="471.26" gradientTransform="matrix(1, 0, 0, -1, 0.07, 471.26)" gradientUnits="userSpaceOnUse"><stop offset="0" stop-color="#dc4a7c"/><stop offset="1" stop-color="#1d0035"/></linearGradient><linearGradient id="Dégradé_sans_nom_11" x1="403.04" y1="81.3" x2="403.04" y2="417.76" gradientTransform="matrix(1, 0, 0, -1, 0.07, 471.26)" gradientUnits="userSpaceOnUse"><stop offset="0" stop-color="#6d0063"/><stop offset="1" stop-color="#050000"/></linearGradient><linearGradient id="Dégradé_sans_nom_12" x1="170.67" y1="159.96" x2="510.77" y2="159.96" gradientTransform="matrix(1, 0, 0, -1, 4.92, 492)" gradientUnits="userSpaceOnUse"><stop offset="0.33" stop-color="#2d004b"/><stop offset="1" stop-color="#c81a4b"/></linearGradient><linearGradient id="Dégradé_sans_nom_13" x1="-720.65" y1="89.05" x2="-720.65" y2="260.16" gradientTransform="translate(9.05 491.26) rotate(180)" xlink:href="#Dégradé_sans_nom_10"/><linearGradient id="Dégradé_sans_nom_14" x1="-650.58" y1="89.05" x2="-650.58" y2="260.16" gradientTransform="translate(9.05 491.26) rotate(180)" gradientUnits="userSpaceOnUse"><stop offset="0" stop-color="#2d004b"/><stop offset="1" stop-color="#ff424b"/></linearGradient><linearGradient id="Dégradé_sans_nom_15" x1="672.09" y1="201.87" x2="792.42" y2="201.87" gradientTransform="matrix(1, 0, 0, -1, 0.07, 471.26)" gradientUnits="userSpaceOnUse"><stop offset="0" stop-color="#050000"/><stop offset="1" stop-color="#6d0063"/></linearGradient><linearGradient id="Dégradé_sans_nom_16" x1="674.41" y1="154.04" x2="788.52" y2="154.04" xlink:href="#Dégradé_sans_nom_15"/><linearGradient id="Dégradé_sans_nom_17" x1="677.1" y1="103.3" x2="781.32" y2="103.3" xlink:href="#Dégradé_sans_nom_15"/><linearGradient id="Dégradé_sans_nom_18" x1="625.34" y1="65.79" x2="625.34" y2="138.89" gradientTransform="matrix(1, 0, 0, -1, 0.07, 471.26)" gradientUnits="userSpaceOnUse"><stop offset="0" stop-color="#ff424b"/><stop offset="1" stop-color="#2d004b"/></linearGradient><linearGradient id="Dégradé_sans_nom_19" x1="485.48" y1="158.01" x2="768.25" y2="158.01" gradientTransform="matrix(1, 0, 0, -1, 0.07, 471.26)" xlink:href="#Dégradé_sans_nom_12"/><linearGradient id="Dégradé_sans_nom_20" x1="624.75" y1="65.79" x2="624.75" y2="215.89" xlink:href="#Dégradé_sans_nom_18"/><linearGradient id="Dégradé_sans_nom_21" x1="373.77" y1="74.75" x2="373.77" y2="390.13" gradientTransform="matrix(1, 0, 0, -1, 4.92, 492)" gradientUnits="userSpaceOnUse"><stop offset="0" stop-color="#911a14"/><stop offset="1" stop-color="#2d0000"/></linearGradient><linearGradient id="Dégradé_sans_nom_22" x1="373.67" y1="74.75" x2="373.67" y2="390.13" gradientTransform="matrix(1, 0, 0, -1, 4.92, 492)" gradientUnits="userSpaceOnUse"><stop offset="0.33" stop-color="#ff7354"/><stop offset="1" stop-color="#ffd648"/></linearGradient><linearGradient id="Dégradé_sans_nom_23" x1="368.06" y1="367.77" x2="389.58" y2="367.77" gradientTransform="matrix(1, 0, 0, -1, 0.07, 471.26)" xlink:href="#Dégradé_sans_nom_21"/><linearGradient id="Dégradé_sans_nom_29" x1="228.49" y1="77.08" x2="228.49" y2="224.46" gradientTransform="matrix(1, 0, 0, -1, 4.92, 492)" gradientUnits="userSpaceOnUse"><stop offset="0" stop-color="#c81a4b"/><stop offset="0.67" stop-color="#2d004b"/></linearGradient><linearGradient id="Dégradé_sans_nom_30" x1="215.43" y1="77.08" x2="215.43" y2="224.46" gradientTransform="matrix(1, 0, 0, -1, 4.92, 492)" xlink:href="#Dégradé_sans_nom_14"/><linearGradient id="Dégradé_sans_nom_31" x1="138.25" y1="183.09" x2="300.43" y2="183.09" gradientTransform="matrix(1, 0, 0, -1, 0.07, 471.26)" xlink:href="#Dégradé_sans_nom_22"/><linearGradient id="Dégradé_sans_nom_32" x1="244.34" y1="120.42" x2="294.8" y2="120.42" gradientTransform="matrix(1, 0, 0, -1, 0.07, 471.26)" xlink:href="#Dégradé_sans_nom_22"/><linearGradient id="Dégradé_sans_nom_33" x1="145" y1="121.14" x2="194.1" y2="121.14" gradientTransform="matrix(1, 0, 0, -1, 0.07, 471.26)" xlink:href="#Dégradé_sans_nom_22"/><linearGradient id="Dégradé_sans_nom_34" x1="291.45" y1="118.55" x2="306.51" y2="118.55" gradientTransform="matrix(1, 0, 0, -1, 0.07, 471.26)" xlink:href="#Dégradé_sans_nom_22"/><linearGradient id="Dégradé_sans_nom_35" x1="298.62" y1="180.39" x2="312.03" y2="180.39" gradientTransform="matrix(1, 0, 0, -1, 0.07, 471.26)" xlink:href="#Dégradé_sans_nom_22"/><linearGradient id="Dégradé_sans_nom_36" x1="72.43" y1="49.56" x2="72.43" y2="178.59" gradientTransform="matrix(1, 0, 0, -1, 0.07, 471.26)" xlink:href="#Dégradé_sans_nom_14"/><linearGradient id="Dégradé_sans_nom_37" x1="127.07" y1="114.07" x2="162.45" y2="114.07" xlink:href="#Dégradé_sans_nom_15"/><linearGradient id="Dégradé_sans_nom_38" x1="14.09" y1="119.68" x2="135.7" y2="119.68" gradientTransform="matrix(1, 0, 0, -1, 0.07, 471.26)" gradientUnits="userSpaceOnUse"><stop offset="0" stop-color="#fff"/><stop offset="1" stop-color="#ffe89a"/></linearGradient><linearGradient id="Dégradé_sans_nom_39" x1="171.1" y1="49.56" x2="171.1" y2="122.59" gradientTransform="matrix(1, 0, 0, -1, 0.07, 471.26)" xlink:href="#Dégradé_sans_nom_14"/><linearGradient id="Dégradé_sans_nom_40" x1="132.2" y1="86.07" x2="240.43" y2="86.07" xlink:href="#Dégradé_sans_nom_15"/><linearGradient id="Dégradé_sans_nom_41" x1="-0.07" y1="58.08" x2="800.25" y2="58.08" gradientTransform="matrix(1, 0, 0, -1, 0.07, 471.26)" xlink:href="#Dégradé_sans_nom_12"/><linearGradient id="Dégradé_sans_nom_42" x1="-30.71" y1="35.34" x2="135.56" y2="35.34" gradientTransform="translate(135.49 492) rotate(180)" xlink:href="#Dégradé_sans_nom_12"/><linearGradient id="Dégradé_sans_nom_44" x1="438.28" y1="58.78" x2="438.28" y2="187.89" gradientTransform="matrix(1, 0, 0, -1, 0.07, 471.26)" xlink:href="#Dégradé_sans_nom_12"/><linearGradient id="Dégradé_sans_nom_45" x1="523.37" y1="58.78" x2="523.37" y2="187.89" gradientTransform="matrix(1, 0, 0, -1, 0.07, 471.26)" xlink:href="#Dégradé_sans_nom_22"/><linearGradient id="Dégradé_sans_nom_46" x1="519.86" y1="78.78" x2="519.86" y2="192.4" xlink:href="#Dégradé_sans_nom_12"/><linearGradient id="Dégradé_sans_nom_47" x1="447.67" y1="134.6" x2="547.09" y2="134.6" xlink:href="#Dégradé_sans_nom_38"/><linearGradient id="Dégradé_sans_nom_49" x1="456.14" y1="69.57" x2="796.29" y2="69.57" xlink:href="#Dégradé_sans_nom_12"/></defs><title>bg</title><g id="Night_Paris" data-name="Night Paris"><rect class="cls-1" width="806.22" height="470.19"/><polygon class="cls-2" points="0 389.96 806.22 389.96 806.22 222 780.94 223.89 782.36 289.74 766.34 289.74 772.7 176 711.82 160.67 712.23 198.49 661.31 207.91 665.26 283.37 649.34 283.37 650.01 134.67 643.29 88.51 636.73 134.67 637.26 283.37 605.28 285.05 613.43 161.05 580.81 156 577.68 65.33 577.45 156.67 547.62 164.32 554.02 288.17 453.16 262.12 366.14 279.2 366.14 146.67 302.83 161.73 307.22 214.45 239.52 228.33 248.34 295.38 187.3 294.34 195.38 164.32 158.22 160 154.59 53.5 154.59 158.5 117.52 166.5 117.21 214.45 86.09 228.33 87.68 313.63 77.6 313.63 74.24 165.3 13.36 184.68 17.81 266.8 0 266.8 0 389.96"/><path class="cls-3" d="M514.41,387.49s5.47-92.92-6.25-91.28-12.5,29.12-12.5,29.12-10.5-48.56-21.48-48.74-9.41,31.6-9.41,31.6-13-29.46-27.15-16c-9.89,9.39-4.05,25.78-4.05,25.78s-16.94-39.78-32.83-33.66-16.59,42.18-16.59,42.18-27-54.45-48.47-40.55S312.1,346.8,312.1,346.8,282.76,280.58,265.79,294s8,57,8,57-42.41-39.16-50.5-16.19,4.44,34.89,4.44,34.89-23.07-34.82-37.14-18.19c-7.68,9.08-15,33-15,33Z" transform="translate(0.07 -0.74)"/><path class="cls-4" d="M435.46,321.22s-5.84-16.39,4.05-25.78c9.64-9.15,18.73,1.56,23.56,9.34-4-7.33-14.34-23.14-25.45-12.6-7.77,7.37-5.83,19.06-4.64,23.74C434.56,319.1,435.46,321.22,435.46,321.22Z" transform="translate(0.07 -0.74)"/><path class="cls-4" d="M466.66,311.44s-1.56-31.77,9.41-31.59c2.25,0,4.48,2.12,6.61,5.39-2.67-5.09-5.57-8.6-8.5-8.65-10.16-.17-9.57,27-9.43,31.07C466,309.89,466.66,311.44,466.66,311.44Z" transform="translate(0.07 -0.74)"/><path class="cls-4" d="M497.55,328.59s.79-27.47,12.5-29.12a2.31,2.31,0,0,1,1.93.7c-1-2.7-2.26-4.18-3.82-4-9,1.28-11.57,17.92-12.25,25.45C496.93,325.84,497.55,328.59,497.55,328.59Z" transform="translate(0.07 -0.74)"/><path class="cls-4" d="M192.48,354.74c10.87-12.85,27.1,5,33.93,13.79-3-5.35-6.43-15.55-1.2-30.42,8.09-23,50.5,16.19,50.5,16.19s-25-43.59-8-57.05c9.49-7.53,22.85,9.87,32.78,26.66C290.42,306.22,275.93,286,265.82,294c-17,13.46,8,57,8,57s-42.41-39.16-50.5-16.19c-5.23,14.87-1.84,25.07,1.2,30.42-6.83-8.79-23.06-26.64-33.93-13.79-7.68,9.08-15,33-15,33h2.94C180.8,377.74,186.54,361.8,192.48,354.74Z" transform="translate(0.07 -0.74)"/><path class="cls-4" d="M314,350.05s2.12-47,23.58-60.86C353.35,279,372.11,305.66,381,320.54c-7.77-13.72-28.26-45.63-45.27-34.61-19.9,12.89-23.17,54.19-23.54,60.12C313.32,348.55,314,350.05,314,350.05Z" transform="translate(0.07 -0.74)"/><path class="cls-4" d="M386,329.74s.7-36.06,16.59-42.18c9.28-3.57,18.91,8.5,25.32,19.16-6.3-11.25-17-26.36-27.21-22.42-15.05,5.8-16.47,38.43-16.58,41.86C385.37,328.39,386,329.74,386,329.74Z" transform="translate(0.07 -0.74)"/><polygon class="cls-5" points="773.08 402.21 788.59 245.25 670.8 231.1 679.17 402.21 773.08 402.21"/><polygon class="cls-6" points="679.17 402.21 654.12 401 640.09 246.35 670.8 231.1 679.17 402.21"/><polygon class="cls-7" points="672.16 258.89 792.49 269.89 790.64 279.89 672.77 271.47 672.16 258.89"/><polygon class="cls-8" points="674.48 306.28 788.59 315.02 784.17 328.16 675.23 321.72 674.48 306.28"/><polygon class="cls-9" points="677.17 361.31 781.39 361.31 778.09 374.62 677.58 369.68 677.17 361.31"/><polygon class="cls-10" points="792.49 269.89 786.65 264.98 672.16 254.97 672.16 258.89 792.49 269.89"/><polygon class="cls-10" points="788.59 315.02 782.22 309.8 674.48 301.16 674.48 306.28 788.59 315.02"/><polygon class="cls-10" points="781.39 361.31 777.32 359.35 677.17 359.35 677.17 361.31 781.39 361.31"/><polygon class="cls-11" points="493.43 332.37 501.5 405.47 751.79 405.47 757.39 332.37 493.43 332.37"/><polygon class="cls-12" points="485.55 332.37 509.16 294.14 744.24 294.14 768.32 332.37 485.55 332.37"/><polygon class="cls-13" points="655.74 279.32 655.43 288.5 624.82 255.37 595.46 286.97 595.46 280.85 586.39 280.85 586.39 305.83 593.42 405.47 656.11 405.47 663.25 305.83 663.25 279.67 655.74 279.32"/><polygon class="cls-14" points="598.01 281.87 584.25 281.87 591.13 229.5 598.01 281.87"/><polygon class="cls-14" points="582.36 297.32 586.39 297.93 624.82 255.37 663.25 296.91 666.44 296.49 624.26 251.55 582.36 297.32"/><polygon class="cls-14" points="653.05 283.61 665.79 283.61 659.42 231.88 653.05 283.61"/><polygon class="cls-14" points="621.49 254.57 625.41 221.73 628.14 255.69 621.49 254.57"/><circle class="cls-14" cx="624.44" cy="286.12" r="16.99"/><circle class="cls-14" cx="624.4" cy="335.61" r="24.01"/><polygon class="cls-10" points="586.45 304.94 663.25 305.83 663.13 307.48 586.54 307.87 586.45 304.94"/><polygon class="cls-10" points="600.4 405.47 595.84 306.4 594.88 306.4 598.39 405.72 600.4 405.47"/><polygon class="cls-10" points="648.41 405.47 655.59 306.4 654.41 306.4 646.43 405.47 648.41 405.47"/><path class="cls-10" d="M504.3,336.35l2.82,39h11.73l1.28-39Zm13.76,37.11H507.74l-2.1-35.07,13.13-.88Z" transform="translate(0.07 -0.74)"/><path class="cls-10" d="M533.85,336.35l1.21,39h12l1.18-39Zm12.51,37.11h-11L535,338.39l12.42.29Z" transform="translate(0.07 -0.74)"/><path class="cls-10" d="M563.23,336.35l1.6,39h11.1l1.12-39Zm12,37.11h-9.72l-1.12-35.07,11.46-.88Z" transform="translate(0.07 -0.74)"/><path class="cls-10" d="M742.68,336l-2.3,39H730.8l-1-39Zm-11.24,37.11h8.43L741.59,338l-10.72-.88Z" transform="translate(0.07 -0.74)"/><path class="cls-10" d="M715.84,336l-1.43,39h-14.1l-1.37-39Zm-14.69,37.11H714l.38-35.07-14.58.29Z" transform="translate(0.07 -0.74)"/><path class="cls-10" d="M686.28,336l-1.85,39H671.62l-1.3-39Zm-13.87,37.11h11.23L684.93,338l-13.23-.88Z" transform="translate(0.07 -0.74)"/><polygon class="cls-10" points="525.19 405.47 524.48 332.37 527.68 332.37 526.08 405.47 525.19 405.47"/><polygon class="cls-10" points="554.94 405.72 553.16 332.37 557.15 332.37 556.34 405.72 554.94 405.72"/><polygon class="cls-10" points="690.96 332.37 694.46 332.37 692.68 405.47 690.64 405.47 690.96 332.37"/><polygon class="cls-10" points="718.93 332.37 719.69 405.47 721.86 405.47 722.88 332.37 718.93 332.37"/><polygon class="cls-10" points="768.32 332.37 766.2 336.39 661.2 334.38 661.35 332.37 768.32 332.37"/><polygon class="cls-10" points="485.55 332.37 588.26 332.37 588.26 335.61 488.54 335.61 485.55 332.37"/><path class="cls-15" d="M428.63,339.26l2.24-11.52-8-.36c-1.89-4.84-4.54-11.81-7.5-20.22v-.08c-.17-.46-.34-.94-.5-1.41l-.59-1.68c-2.12-6.09-4.37-12.83-6.61-20-.23-.7-.45-1.4-.66-2.11-.15-.47-.29-.94-.44-1.42s-.21-.7-.32-1c-1.25-4.1-2.48-8.33-3.68-12.64l1-18.82-5.79.07c-.18-.77-.37-1.54-.54-2.31-2-8.51-3.61-18-5-28.06-.08-.55-.16-1.11-.23-1.67-.94-6.73-1.78-13.64-2.52-20.59-.06-.7-.14-1.4-.21-2.09-.8-7.8-1.49-15.62-2.08-23.21-.06-.66-.1-1.31-.16-2-.63-8.36-1.14-16.42-1.55-23.86a8.86,8.86,0,0,0-.07-1.36c-1.28-23.79-1.55-41-1.55-41l-5.1.46-5.11-.46s-.26,17.23-1.55,41a8.86,8.86,0,0,1-.07,1.36c-.41,7.44-.92,15.5-1.54,23.86-.06.65-.11,1.3-.16,2-.48,6.35-1,12.86-1.69,19.38-.1,1-.21,2-.31,3.07-.86,8.4-1.86,16.8-3,24.89-.09.61-.17,1.21-.26,1.81-1.38,9.43-3,18.41-4.81,26.47-.21.92-.43,1.84-.64,2.77l-7.3.08,3.09,16.34c-1.15,4.19-2.34,8.3-3.54,12.32-.21.7-.42,1.38-.63,2.06h0c-.39,1.27-.77,2.53-1.16,3.77-.15.51-.31,1-.47,1.52-2,6.43-4,12.51-6,18.07-.14.42-.29.84-.42,1.25l-.76,2.17c-.25.7-.48,1.38-.73,2.05-2.13,6-4.08,11.2-5.68,15.4l-8.81-.39.45,17.13h.52l-47.69,77h51l6-18.5c1.2-3.64,14-40.33,39.82-40.33,26.73,0,42.13,39.37,42.61,40.6l5.95,18.23h51ZM378.42,216.67c.08-1.21.16-2.42.23-3.64.07,1.21.16,2.42.24,3.61,0,.58.08,1.15.12,1.72.66,9.16,1.55,17.64,2.75,24.86.27,1.66.54,3.3.81,4.93l-7.86.1c.27-1.66.55-3.33.83-5,1.2-7.21,2.09-15.67,2.75-24.81C378.33,217.84,378.37,217.26,378.42,216.67ZM341.17,387.44l7.27-22.35,3.37,2.87A80.33,80.33,0,0,0,341.17,387.44Zm12.05-21.26-4.2-2.89,2.5-7.68,9.32,3.16a45.66,45.66,0,0,0-7.62,7.41Zm9.39-8.68-10.75-2.92,4.68-14.37h1.54l11.11,14A30,30,0,0,0,362.61,357.5Zm7.63-3.66-9.63-13.63h15.81l.8,12.5A25.53,25.53,0,0,0,370.24,353.84Zm-9.71-29.27c.9-4.31,2.06-9.93,3.41-16.82.15-.77.3-1.56.47-2.37a2.87,2.87,0,0,1,.11-.57c.08-.43.17-.87.25-1.31q1.74-9,3.83-20.35c.08-.45.17-.91.26-1.37s.12-.7.19-1c.12-.68.24-1.37.37-2.07q1.14-6.24,2.34-13.15l13.88.54q1.32,7.49,2.53,14.2c0,.09,0,.19.05.28l.21,1.19a3.5,3.5,0,0,0,.12.63c1.53,8.36,2.94,15.78,4.18,22.22v.12l.27,1.41c.09.46.16.83.25,1.24,1.57,8,2.87,14.3,3.84,18.85Zm18.15,28.17.26-12.5h21.83l-13.31,14.42A25.71,25.71,0,0,0,378.68,352.74Zm10.45,2.65,12.45-12.65,3.82,11.73-10.67,4.36a35.07,35.07,0,0,0-5.6-3.47Zm11.38,8.55a46.6,46.6,0,0,0-4.31-4l10-2.91,1.4,4.27Zm1.68,1.83,6.09-2.46,2.08,6.38-4.39.74c-1.18-1.6-2.44-3.18-3.78-4.69Zm4.87,6.18,3.76-.84,6.25,19.19a95.42,95.42,0,0,0-10-18.38Z" transform="translate(0.07 -0.74)"/><path class="cls-16" d="M428.63,339.26l2.24-11.52-8-.36c-1.89-4.84-4.54-11.81-7.5-20.22v-.08c-.17-.46-.34-.94-.5-1.41l-.59-1.68-.29-.83c-2-5.87-4.18-12.32-6.32-19.17-.23-.7-.45-1.4-.66-2.11-.15-.47-.29-.94-.44-1.42s-.21-.7-.32-1c-1.25-4.1-2.48-8.33-3.68-12.64v-1.15l.91-17.67-5.79.07c-.18-.77-.37-1.54-.54-2.31-2-8.51-3.61-18-5-28.06-.08-.55-.16-1.11-.23-1.67-.94-6.73-1.78-13.64-2.52-20.59-.06-.7-.14-1.4-.21-2.09-.71-6.85-1.32-13.72-1.86-20.44-.08-.92-.15-1.84-.22-2.77-.06-.66-.1-1.31-.16-2-.63-8.36-1.14-16.42-1.55-23.86a8.86,8.86,0,0,0-.07-1.36c-1.28-23.79-1.55-41-1.55-41l-5.1.46-5.11-.46s-.26,17.23-1.55,41a8.86,8.86,0,0,1-.07,1.36c-.41,7.44-.92,15.5-1.54,23.86-.06.65-.11,1.3-.16,2-.46,6-1,12.2-1.59,18.39a8.68,8.68,0,0,1-.1,1c-.1,1-.21,2-.31,3.07-.86,8.4-1.86,16.8-3,24.89-.09.61-.17,1.21-.26,1.81-1.38,9.43-3,18.41-4.81,26.47-.21.92-.43,1.84-.64,2.77l-7.3.08,3.09,16.34c-1.15,4.19-2.34,8.3-3.54,12.32-.21.7-.42,1.38-.63,2.06h0c-.39,1.27-.77,2.53-1.16,3.77-.15.51-.31,1-.47,1.52-2,6.43-4,12.51-6,18.07-.14.42-.29.84-.42,1.25l-.76,2.17c-.25.7-.48,1.38-.73,2.05-2.13,6-4.08,11.2-5.68,15.4l-8.81-.39.45,17.13h.52l-3.42,5.48-10.85,17.51-33.43,54h51l6-18.5c1.2-3.64,14-40.33,39.82-40.33,26.73,0,42.13,39.37,42.61,40.6l5.95,18.23h51Zm-53.09-96c1.2-7.21,2.09-15.67,2.75-24.81,0-.57.08-1.15.13-1.74.08-1.21.16-2.42.23-3.64.07,1.21.16,2.42.24,3.61,0,.58.08,1.15.12,1.72.66,9.16,1.55,17.64,2.75,24.86.27,1.66.54,3.3.81,4.93l-7.86.1c.27-1.7.55-3.37.83-5.07Zm-11.75,65.25.15-.72c.15-.77.3-1.56.47-2.37a2.87,2.87,0,0,1,.11-.57c.08-.43.17-.87.25-1.31q1.74-9,3.83-20.35c.08-.45.17-.91.26-1.37s.12-.7.19-1.05c.12-.68.24-1.37.37-2.07q1.14-6.24,2.34-13.15l13.88.54q1.32,7.49,2.53,14.2c0,.09,0,.19.05.28l.21,1.19a3.5,3.5,0,0,0,.12.63v.05q2.31,12.51,4.18,22.17v.12l.27,1.41c.09.46.16.83.25,1.24.63,3.23,1.22,6.17,1.76,8.84q1.2,5.92,2.08,10l-16.16-.75-20.4-.9c.86-4.15,2-9.54,3.26-16.1Zm-22.62,79,7.27-22.35,3.37,2.87a80.41,80.41,0,0,0-10.64,19.41Zm12.05-21.26-4.2-2.89,2.5-7.68,9.32,3.16a45.62,45.62,0,0,0-7.62,7.34Zm9.39-8.68-10.75-2.92,4.56-14,.12-.36h1.54l11.11,14a30.6,30.6,0,0,0-6.58,3.21Zm7.63-3.66-9.63-13.63h15.81l.8,12.5a25.07,25.07,0,0,0-7,1.06Zm8.44-1.13.26-12.5h21.83L387.46,354.7a25.48,25.48,0,0,0-8.78-2Zm10.45,2.65,12.45-12.69,3.82,11.73-10.67,4.36a35.07,35.07,0,0,0-5.6-3.47ZM400.51,364a46.6,46.6,0,0,0-4.31-4l10-2.91,1.4,4.27Zm1.68,1.83,6.09-2.46,2.08,6.38-4.39.74a59.32,59.32,0,0,0-3.78-4.73Zm4.87,6.18,3.76-.84,6.25,19.19a95.74,95.74,0,0,0-10-18.42Z" transform="translate(0.07 -0.74)"/><path class="cls-14" d="M354.23,368l-3.37-2.87-.53,1.65,1.48,1.26c-1.32,1.73-2.51,3.49-3.59,5.22l-2.6,8c1-1.64,2.05-3.3,3.21-4.94A73.06,73.06,0,0,1,354.23,368Z" transform="translate(0.07 -0.74)"/><path class="cls-14" d="M397.14,358.79l10.68-4.36L404,342.74l-1.81,1.84,3.22,9.89-9.14,3.73A8,8,0,0,1,397.14,358.79Z" transform="translate(0.07 -0.74)"/><path class="cls-14" d="M378.68,352.74l.24-11.29-.08-1.21h-2.42l.8,12.5a25.75,25.75,0,0,0-4.94.6l.38.53a25.14,25.14,0,0,1,6.49-1.1A2.48,2.48,0,0,0,378.68,352.74Z" transform="translate(0.07 -0.74)"/><path class="cls-14" d="M390.3,354.16l12.88-14h-2.41L388.07,354c.6.2,1.2.41,1.78.65Z" transform="translate(0.07 -0.74)"/><path class="cls-14" d="M354.12,365.14l1.51,1a46.06,46.06,0,0,1,7.62-7.41l-9.32-3.12-.24.74,7.14,2.42A44.44,44.44,0,0,0,354.12,365.14Z" transform="translate(0.07 -0.74)"/><path class="cls-14" d="M381.3,216.64c-.08-1.19-.16-2.4-.23-3.61l-.24,3.64c0,.59-.08,1.17-.13,1.74q-.36,5.15-.84,10c.53,5.34,1.15,10.34,1.9,14.84.27,1.66.54,3.3.81,4.93l-5.44.07h0l7.86-.1c-.27-1.63-.54-3.27-.81-4.93-1.2-7.22-2.09-15.7-2.75-24.86C381.38,217.79,381.34,217.22,381.3,216.64Z" transform="translate(0.07 -0.74)"/><path class="cls-14" d="M374.16,265.6l11.48.45q1.32,7.49,2.53,14.2c0,.09,0,.19.05.28l.21,1.19a3.5,3.5,0,0,0,.12.63c1.53,8.36,2.94,15.78,4.18,22.22v.12l.27,1.41c.09.46.16.83.25,1.24,1.56,7.92,2.85,14.2,3.81,18.74l2.44.11c-1-4.55-2.26-10.87-3.84-18.85l-.24-1.24-.27-1.41v-.12c-1.22-6.44-2.66-13.83-4.22-22.22a3.5,3.5,0,0,0-.12-.63c-.06-.39-.13-.79-.2-1.19l-.06-.28q-1.21-6.72-2.53-14.2l-13.88-.54Z" transform="translate(0.07 -0.74)"/><path class="cls-14" d="M358.93,340.21l-.26.78,10.49,13.2a29.78,29.78,0,0,0-5.84,2.85l1.68.46a30.07,30.07,0,0,1,6.58-3.31l-.47-.59-.9.24-8.73-12.36-1-1.27Z" transform="translate(0.07 -0.74)"/><path class="cls-14" d="M338.35,323.47c1.6-4.2,3.55-9.41,5.68-15.4.24-.67.48-1.35.72-2.05s.51-1.43.76-2.17c.14-.41.28-.83.43-1.25,1.93-5.56,3.95-11.64,6-18.07.15-.51.32-1,.47-1.52.39-1.24.77-2.5,1.16-3.77h0c.21-.68.42-1.36.63-2.06,1.2-4,2.39-8.13,3.54-12.32l-3.09-16.34,7.29-.08c.22-.93.44-1.85.65-2.77,1.84-8.06,3.43-17,4.81-26.47.09-.6.17-1.2.26-1.81,1.15-8.09,2.15-16.49,3-24.89.1-1,.21-2,.31-3.07.64-6.52,1.2-13,1.69-19.38l.15-2c.63-8.36,1.14-16.42,1.55-23.86a8.86,8.86,0,0,1,.07-1.36c1.2-22.25,1.51-38.75,1.54-40.8l-2.41-.22s-.26,17.23-1.55,41a8.86,8.86,0,0,1-.07,1.36c-.41,7.44-.92,15.5-1.54,23.86-.06.65-.11,1.3-.16,2-.48,6.35-1.05,12.86-1.69,19.38-.1,1-.21,2-.31,3.07-.86,8.4-1.86,16.8-3,24.89-.09.61-.17,1.21-.26,1.81-1.38,9.43-3,18.41-4.81,26.47-.21.92-.43,1.84-.64,2.77l-7.3.08,3.09,16.34c-1.15,4.19-2.34,8.3-3.54,12.32-.21.7-.42,1.38-.63,2.06h0c-.39,1.27-.77,2.53-1.16,3.77-.15.51-.31,1-.47,1.52-2,6.43-4,12.51-6,18.07-.14.42-.29.84-.42,1.25l-.76,2.17c-.25.7-.48,1.38-.73,2.05-2.11,5.94-4,11.12-5.64,15.29Z" transform="translate(0.07 -0.74)"/><path class="cls-14" d="M402.93,363.91l7.13-2.62L408.67,357l-2.21.64,1.19,3.63-5.38,2C402.48,363.48,402.71,363.74,402.93,363.91Z" transform="translate(0.07 -0.74)"/><path class="cls-14" d="M415.39,385.11l1.68,5.16a92.68,92.68,0,0,0-5-10.33c-7.27-10.55-18.23-21.55-32.36-21.55h-1.22c26,1.15,40.94,39.36,41.41,40.57l6,18.23h2.41L422.32,399A98.38,98.38,0,0,0,415.39,385.11Z" transform="translate(0.07 -0.74)"/><path class="cls-17" d="M381.07,102.3l2.69-.24v-.22l-3.89.35Z" transform="translate(0.07 -0.74)"/><polygon class="cls-14" points="330.05 339.47 329.61 322.45 327.19 322.34 327.64 339.47 328.16 339.47 280.47 416.48 282.89 416.48 330.58 339.47 330.05 339.47"/><path class="cls-14" d="M408.39,370.4l4.39-.74-2.08-6.38-2.14.86,1.8,5.52-2.25.38Z" transform="translate(0.07 -0.74)"/><path class="cls-17" d="M413.23,371.08l-2.25.5,1.72,5.29a93.6,93.6,0,0,1,6.79,13.4Z" transform="translate(0.07 -0.74)"/><path class="cls-17" d="M400.11,248h0Z" transform="translate(0.07 -0.74)"/><polygon class="cls-14" points="352.27 247.77 374.78 244.18 382.11 244.18 403.56 247.16 352.27 247.77"/><polygon class="cls-14" points="430.94 326.95 421.64 323.27 336.76 320.75 327.19 322.34 430.94 326.95"/><polygon class="cls-18" points="370.07 114.48 388.29 114.48 389.65 92.51 368.13 94.1 370.07 114.48"/><polygon class="cls-17" points="369.39 94 368.13 91.53 375.66 89.57 373.73 62.11 377.25 61.03 378.72 30.22 378.89 61.03 382.23 61.03 380.41 89.48 387.21 89.11 387.21 92.69 369.39 94"/><path class="cls-14" d="M351.75,277.17l17.67,1.49c-.13.7-.25,1.39-.37,2.07l-17.93-1.49h0C351.33,278.55,351.54,277.87,351.75,277.17Z" transform="translate(0.07 -0.74)"/><path class="cls-14" d="M407.63,283.94l-19.08-1.59a4.66,4.66,0,0,0-.12-.63l-.21-1.19c0-.09,0-.19-.05-.28l18.8,1.58C407.18,282.54,407.4,283.24,407.63,283.94Z" transform="translate(0.07 -0.74)"/><path class="cls-14" d="M364.41,305.38c-.17.81-.32,1.6-.47,2.37l-22.33.32c.25-.67.48-1.35.73-2.05Z" transform="translate(0.07 -0.74)"/><path class="cls-14" d="M415.33,307l-22,.31c-.09-.41-.17-.82-.25-1.24l-.27-1.41v-.12l21.51-.63.59,1.68A8.11,8.11,0,0,0,415.33,307Z" transform="translate(0.07 -0.74)"/><path class="cls-14" d="M378.42,216.67c-.05.59-.09,1.17-.13,1.74l-13.34.78c.09-.6.17-1.2.26-1.81Z" transform="translate(0.07 -0.74)"/><path class="cls-14" d="M392.12,217.6l-13.11.76c0-.57-.09-1.14-.12-1.72l13-.71C391.93,216.49,392,217.05,392.12,217.6Z" transform="translate(0.07 -0.74)"/><path class="cls-14" d="M389.37,195.34l-21.15-2.85c.1-1,.21-2,.31-3.07l20.63,3.83C389.23,193.94,389.31,194.64,389.37,195.34Z" transform="translate(0.07 -0.74)"/><path class="cls-14" d="M387.08,170H370.22c0-.66.1-1.31.16-2h16.55C387,168.74,387,169.38,387.08,170Z" transform="translate(0.07 -0.74)"/><path class="cls-14" d="M385.37,144.22H371.93a8.86,8.86,0,0,1,.07-1.36h13.31C385.33,143.31,385.35,143.74,385.37,144.22Z" transform="translate(0.07 -0.74)"/><path class="cls-19" d="M168.87,414.92,153.33,267.54l160.16,3.8-18.7,143.58H256.73l3.14-61.41a27.87,27.87,0,0,0-26.42-29.25c-.84,0-1.68,0-2.52,0h0a27.86,27.86,0,0,0-26.71,29c0,.14,0,.28,0,.42l3.39,61.29Z" transform="translate(0.07 -0.74)"/><path class="cls-20" d="M155.81,414.92,140.27,267.54l160.16,3.8L284.21,414.92H243.66l3.14-61.41a27.86,27.86,0,0,0-26.39-29.25c-.87,0-1.74-.05-2.61,0h0a27.86,27.86,0,0,0-26.71,29c0,.14,0,.28,0,.42l3.39,61.29Z" transform="translate(0.07 -0.74)"/><polygon class="cls-14" points="138.32 287.51 300.5 289.74 297.6 296.22 143.17 293.62 138.32 287.51"/><polygon class="cls-14" points="140.34 266.8 143.71 260.24 305.58 265.74 313.56 270.6 140.34 266.8"/><polygon class="cls-14" points="246.43 414.18 255.23 309.89 257.33 309.89 247.7 414.18 246.43 414.18"/><polygon class="cls-14" points="244.41 351.58 294.87 351.58 290.72 357.18 246.79 354.38 244.41 351.58"/><polygon class="cls-14" points="190.91 414.18 184.14 306.92 181.95 308.54 190.12 414.18 190.91 414.18"/><polygon class="cls-14" points="145.07 351.58 194.17 351.58 191.37 355.32 149.67 355.32 145.07 351.58"/><path class="cls-10" d="M258,318.64,256.29,346l32.76.69,2.25-26.94Zm29.94,26H258l2.35-24.27,29.28.56Z" transform="translate(0.07 -0.74)"/><path class="cls-10" d="M180.49,317.4l-32.44.89,3.7,28.39h30.08Zm-31.1,2,29.84.27,1.26,25.87-27.16-.87Z" transform="translate(0.07 -0.74)"/><polygon class="cls-14" points="140.92 272.29 300.05 274.54 300.05 276.17 140.92 274.23 140.92 272.29"/><polygon class="cls-21" points="300.5 289.74 298.69 286.6 142.42 286.6 138.32 287.51 300.5 289.74"/><polygon class="cls-22" points="244.41 351.58 246.88 350.1 291.52 350.1 294.87 351.58 244.41 351.58"/><polygon class="cls-23" points="194.17 351.58 191.22 350.1 148.97 348.67 145.07 351.58 194.17 351.58"/><polygon class="cls-14" points="290.72 357.18 303.78 357.18 306.58 355.32 294.87 351.58 290.72 357.18"/><polygon class="cls-24" points="306.58 355.32 304.21 353.35 291.52 350.1 294.87 351.58 306.58 355.32"/><polygon class="cls-14" points="144.65 307.7 295.92 311.12 307.96 313.63 308.21 311.74 296.15 309.12 144.49 306.15 144.65 307.7"/><polygon class="cls-14" points="297.6 296.22 309.89 298.77 312.1 295.14 300.5 289.74 297.6 296.22"/><polygon class="cls-25" points="312.1 295.14 310.7 292.58 298.69 286.6 300.5 289.74 312.1 295.14"/><polygon class="cls-10" points="165.01 414.18 161.29 380.74 178.63 380.74 180.56 414.18 165.01 414.18"/><polygon class="cls-10" points="254.77 414.18 256.36 380.74 274.54 380.74 272.34 414.18 254.77 414.18"/><polygon class="cls-14" points="274.54 380.74 281.12 383 279.55 414.18 272.34 414.18 274.54 380.74"/><polygon class="cls-14" points="178.63 380.74 185.86 384.35 185.86 414.18 180.56 414.18 178.63 380.74"/><polygon class="cls-26" points="25.56 421.7 8.79 303.34 136.2 292.67 127.14 421.7 25.56 421.7"/><polygon class="cls-27" points="127.14 421.7 147.96 420.99 162.52 302.78 136.2 292.67 127.14 421.7"/><polygon class="cls-10" points="12.01 326.04 134.42 318 134.14 322.02 12.52 329.69 12.01 326.04"/><polygon class="cls-10" points="16.18 355.5 131.9 353.95 131.58 358.51 16.42 357.18 16.18 355.5"/><polygon class="cls-10" points="20.62 386.79 129.59 386.79 129.34 390.39 20.87 388.59 20.62 386.79"/><polygon class="cls-10" points="28.44 301.69 39.08 421.7 40.34 421.7 31.14 301.47 28.44 301.69"/><polygon class="cls-10" points="59.24 299.11 60.35 421.7 61.75 421.7 61.75 298.9 59.24 299.11"/><polygon class="cls-10" points="85.49 296.92 85.49 421.7 86.94 421.7 89 296.62 85.49 296.92"/><polygon class="cls-10" points="111.76 294.71 105.14 421.7 105.7 421.7 113.27 294.59 111.76 294.71"/><polygon class="cls-28" points="135.77 298.9 14.16 341.25 18.71 373.33 113.27 344.58 20.23 384.07 23.09 404.26 131.08 365.61 135.77 298.9"/><polygon class="cls-29" points="132.27 348.67 213 390.4 215.19 421.7 127.14 421.7 132.27 348.67"/><polygon class="cls-30" points="215.19 421.7 236 421.7 240.5 395.06 155.95 356.15 132.27 348.67 213 390.4 215.19 421.7"/><polygon class="cls-10" points="151.33 421.7 145.07 368.39 209 395.04 205.67 421.7 203.67 421.17 206.5 396.17 147.17 372.83 153.4 421.7 151.33 421.7"/><polygon class="cls-31" points="0 419.33 0.24 422.96 800.32 420.48 799.6 403.41 0 419.33"/><path class="cls-32" d="M.57,470.93S-2.13,447,3.63,447.46s6.1,7.5,6.1,7.5,5.14-12.51,10.5-12.56,4.64,8.06,4.64,8.06,6.34-7.59,13.27-4.13A4.38,4.38,0,0,1,40.68,452a4.66,4.66,0,0,1-.54,1s8.28-10.24,16-8.67,8.11,10.87,8.11,10.87,13.19-14,23.68-10.45,11.51,15.74,11.51,15.74,14.33-17.06,22.62-13.59-3.92,14.7-3.92,14.7,20.73-10.11,24.73-4.19-2.16,9-2.16,9,11.28-9,18.15-4.69c3.75,2.34,7.34,8.51,7.34,8.51Z" transform="translate(0.07 -0.74)"/><path class="cls-4" d="M39.15,453.85a4.37,4.37,0,0,0-1-6.1,4.83,4.83,0,0,0-1-.54c-4.71-2.36-9.15.4-11.51,2.41,1.94-1.89,7-6,12.44-3.25,3.79,1.9,2.85,4.91,2.27,6.12C39.59,453.31,39.15,453.85,39.15,453.85Z" transform="translate(0.07 -0.74)"/><path class="cls-4" d="M23.87,451.34s.77-8.19-4.59-8.15a5.38,5.38,0,0,0-3.23,1.39,6.35,6.35,0,0,1,4.15-2.23c5,0,4.68,7,4.61,8A11,11,0,0,0,23.87,451.34Z" transform="translate(0.07 -0.74)"/><path class="cls-4" d="M8.81,455.75s-.38-7.07-6.11-7.5a1.89,1.89,0,0,0-.94.18,2,2,0,0,1,1.87-1c4.41.33,5.65,4.62,6,6.56C9.1,455,8.81,455.75,8.81,455.75Z" transform="translate(0.07 -0.74)"/><path class="cls-4" d="M157.87,462.46c-5.31-3.31-13.25,1.29-16.58,3.56,1.48-1.38,3.14-4,.58-7.84-4-5.92-24.67,4.17-24.67,4.17s12.21-11.23,3.92-14.7c-4.64-1.94-11.16,2.54-16,6.87,4.92-4.56,12-9.78,16.94-7.71,8.29,3.47-3.92,14.7-3.92,14.7s20.73-10.05,24.73-4.13c2.55,3.83.9,6.46-.59,7.84,3.34-2.27,11.27-6.87,16.58-3.56,3.75,2.34,7.34,8.51,7.34,8.51h-1.43C163.6,468.46,160.79,464.31,157.87,462.46Z" transform="translate(0.07 -0.74)"/><path class="cls-4" d="M98.51,461.28s-1-12.1-11.52-15.68c-7.71-2.63-16.88,4.25-21.2,8.08,3.8-3.54,13.81-11.76,22.12-8.92,9.73,3.32,11.32,14,11.5,15.49Z" transform="translate(0.07 -0.74)"/><path class="cls-4" d="M63.3,456.05s-.34-9.29-8.11-10.87c-4.53-.92-9.23,2.19-12.37,4.94,3.08-2.9,8.29-6.79,13.3-5.78,7.35,1.5,8,9.9,8.1,10.79C63.63,455.7,63.3,456.05,63.3,456.05Z" transform="translate(0.07 -0.74)"/><path class="cls-33" d="M76.84,58.62a2.21,2.21,0,1,1-2.21-2.21h0A2.21,2.21,0,0,1,76.84,58.62Z" transform="translate(0.07 -0.74)"/><path class="cls-33" d="M440.26,94.74a2.21,2.21,0,1,1-2.22-2.2h0a2.19,2.19,0,0,1,2.21,2.19Z" transform="translate(0.07 -0.74)"/><path class="cls-33" d="M324,125.41a2.21,2.21,0,1,1-2.21-2.21h0A2.21,2.21,0,0,1,324,125.41Z" transform="translate(0.07 -0.74)"/><circle class="cls-33" cx="543.4" cy="145.69" r="2.21"/><path class="cls-33" d="M640,37.68a2.21,2.21,0,1,1-2.21-2.21A2.2,2.2,0,0,1,640,37.68Z" transform="translate(0.07 -0.74)"/><path class="cls-33" d="M417.54,142.86a2.21,2.21,0,1,1-2.21-2.21h0A2.21,2.21,0,0,1,417.54,142.86Z" transform="translate(0.07 -0.74)"/><circle class="cls-33" cx="685" cy="71.12" r="2.21"/><circle class="cls-33" cx="736.04" cy="41.36" r="2.21"/><path class="cls-33" d="M733.08,134.94a2.21,2.21,0,1,1-2.21-2.21,2.2,2.2,0,0,1,2.21,2.21Z" transform="translate(0.07 -0.74)"/><circle class="cls-33" cx="545.61" cy="92.51" r="2.21"/><path class="cls-33" d="M226.93,76.46a2,2,0,1,1-2.09-2h.09A2,2,0,0,1,226.93,76.46Z" transform="translate(0.07 -0.74)"/><circle class="cls-33" cx="71.17" cy="123.78" r="0.72"/><circle class="cls-33" cx="107.06" cy="40.67" r="0.72"/><circle class="cls-33" cx="26.48" cy="142.12" r="0.72"/><circle class="cls-33" cx="99.28" cy="169.3" r="0.72"/><circle class="cls-33" cx="160.67" cy="55.67" r="0.72"/><path class="cls-33" d="M298.62,44.74a.73.73,0,0,1-.73.72.72.72,0,0,1,0-1.44A.73.73,0,0,1,298.62,44.74Z" transform="translate(0.07 -0.74)"/><circle class="cls-33" cx="472.72" cy="139.91" r="0.72"/><circle class="cls-33" cx="528.4" cy="187.96" r="0.72"/><path class="cls-33" d="M618.65,123.2a.72.72,0,1,1-.72-.72A.72.72,0,0,1,618.65,123.2Z" transform="translate(0.07 -0.74)"/><path class="cls-33" d="M752.65,97.68a.72.72,0,1,1-.72-.72A.72.72,0,0,1,752.65,97.68Z" transform="translate(0.07 -0.74)"/><circle class="cls-33" cx="219.41" cy="116.67" r="0.72"/><circle class="cls-33" cx="288" cy="131.61" r="0.72"/><path class="cls-33" d="M472.65,102.3a.72.72,0,1,1-.72-.72.72.72,0,0,1,.72.72Z" transform="translate(0.07 -0.74)"/><path class="cls-33" d="M685.66,102.07a.73.73,0,0,1-.73.73.74.74,0,0,1-.72-.73.73.73,0,0,1,1.45,0Z" transform="translate(0.07 -0.74)"/><circle class="cls-33" cx="438.12" cy="221.73" r="0.72"/><path class="cls-33" d="M47.6,31a.73.73,0,0,1-1.45,0h0a.74.74,0,0,1,.72-.73A.73.73,0,0,1,47.6,31Z" transform="translate(0.07 -0.74)"/><path class="cls-33" d="M456.2,24.89a2,2,0,1,1-2-2A2,2,0,0,1,456.2,24.89Z" transform="translate(0.07 -0.74)"/><path class="cls-33" d="M231,157.36a2,2,0,1,1-2-2.05,2,2,0,0,1,2,2.05Z" transform="translate(0.07 -0.74)"/><polygon class="cls-34" points="377.21 412.48 436.81 412.48 499.49 283.37 377.21 412.48"/><polygon class="cls-35" points="499.49 283.37 610.07 412.48 436.81 412.48 499.49 283.37"/><path class="cls-36" d="M600.49,413.22,588,400.14l4.89-6.92L591,391l-4.56,7.49-25.48-26.63,6.73-8.05-1.27-1.48-6.64,8.29L534.27,344l7.44-10.44-1.11-1.3-7.38,10.64-25.89-27.12,7.83-13.26-1.33-1.55-7.78,13.48L491.93,299.6l-1.32,2.71,14.08,14.43-18,31.21-12.21-12.51-1.2,2.48,12.16,12.2-19,32.95-10.82-8.75L455,375.6l10.81,8.55-16.75,29h.74l16.78-28.43,24.29,19.22-6.39,9.21h.5l6.32-8.88,11.22,8.88h1.18l-11.88-9.6,19.55-27.45,24.39,24.48L525.7,413.15h.64l10-12,11.92,12h2.06L537.4,399.91l22.36-26.71,25.86,26.54-8.19,13.44h1.32l8.39-11.88,11.59,11.88Zm-94.56-95.15,26,26.67-20.1,29L487.69,349Zm-14.59,85.2L467.2,383.74l19.23-32.57,24.22,24.31Zm45.42-3.92L512.52,374.5,533,345.8l25.62,26.28Z" transform="translate(0.07 -0.74)"/><polygon class="cls-37" points="547.16 339.02 447.74 389.96 461.99 322.97 499.49 283.37 547.16 339.02"/><path class="cls-38" d="M799.93,451.67s5.47-49-6.25-48.12-12.5,15.35-12.5,15.35-10.5-25.61-21.48-25.7-9.41,16.66-9.41,16.66-13-15.53-27.15-8.44c-9.89,4.95-4,13.59-4,13.59s-16.94-21-32.83-17.74-16.59,22.23-16.59,22.23-27-28.71-48.46-21.38-23.59,32.09-23.59,32.09-29.34-34.91-46.31-27.81,8,30.08,8,30.08-42.41-20.65-50.5-8.54,4.42,18.36,4.42,18.36-23.15-18.36-37.22-9.56c-7.68,4.78-15,17.4-15,17.4Z" transform="translate(0.07 -0.74)"/><path class="cls-4" d="M720.93,416.74s-5.84-8.64,4-13.59c9.64-4.83,18.73.82,23.56,4.92-4-3.86-14.34-12.2-25.45-6.64-7.76,3.89-5.83,10.05-4.64,12.52C720,415.61,720.93,416.74,720.93,416.74Z" transform="translate(0.07 -0.74)"/><path class="cls-4" d="M752.14,411.58s-1.57-16.76,9.4-16.66a11,11,0,0,1,6.61,2.84c-2.67-2.69-5.57-4.54-8.5-4.56-10.16-.09-9.57,14.24-9.43,16.38A24.17,24.17,0,0,1,752.14,411.58Z" transform="translate(0.07 -0.74)"/><path class="cls-4" d="M783,420.62s.78-14.49,12.49-15.35a3.65,3.65,0,0,1,1.93.36,4.17,4.17,0,0,0-3.82-2.08c-9,.67-11.57,9.44-12.25,13.41C782.43,419.17,783,420.62,783,420.62Z" transform="translate(0.07 -0.74)"/><path class="cls-4" d="M477.93,434.43c10.87-6.78,27.11,2.63,33.93,7.27-3-2.82-6.43-8.2-1.2-16,8.09-12.12,50.5,8.53,50.5,8.53s-25-23-8-30.08c9.49-4,22.85,5.21,32.78,14.06-10.07-9.33-24.56-20-34.67-15.77-17,7.09,8,30.08,8,30.08s-42.41-20.65-50.5-8.54c-5.23,7.84-1.84,13.22,1.2,16-6.83-4.63-23.06-14.05-33.93-7.27-7.68,4.78-15,17.4-15,17.4H464C466.27,446.52,472,438.13,477.93,434.43Z" transform="translate(0.07 -0.74)"/><path class="cls-4" d="M599.46,431.93s2.12-24.76,23.59-32.09c15.77-5.38,34.53,8.69,43.37,16.53-7.77-7.23-28.25-24.06-45.26-18.25-19.91,6.8-23.18,28.58-23.55,31.71C598.79,431.14,599.46,431.93,599.46,431.93Z" transform="translate(0.07 -0.74)"/><path class="cls-4" d="M671.51,421.22s.71-19,16.59-22.24c9.28-1.88,18.91,4.48,25.32,10.11-6.3-5.93-17-13.9-27.21-11.82-15,3.05-16.47,20.26-16.58,22.07C670.84,420.51,671.51,421.22,671.51,421.22Z" transform="translate(0.07 -0.74)"/><rect class="cls-39" width="800" height="450"/></g></svg>