<svg id="camion" xmlns="http://www.w3.org/2000/svg" xmlns:xlink="http://www.w3.org/1999/xlink" viewBox="0 0 149 149"><defs><style>.cls-1{fill:url(#Dégradé_sans_nom_23);}.cls-2{fill:#f2f2f2;}</style><linearGradient id="Dégradé_sans_nom_23" x1="74.5" x2="74.5" y2="149" gradientUnits="userSpaceOnUse"><stop offset="0" stop-color="#fff"/><stop offset="0" stop-color="#f7691e"/><stop offset="0.27" stop-color="#ad4d35"/><stop offset="0.52" stop-color="#6f3449"/><stop offset="0.74" stop-color="#412358"/><stop offset="0.9" stop-color="#251861"/><stop offset="1" stop-color="#1b1464"/></linearGradient></defs><title>camion</title><circle class="cls-1" cx="74.5" cy="74.5" r="74.5"/><path class="cls-2" d="M24,59a5.21,5.21,0,0,0-4,2c-1.54,2.31-.51,6.14,2,7,2.18.75,5.25-.85,6-4l7,2L33,86,23,88V86H21v4l15,4L55,49H45L35,56Z" transform="translate(-1 -1)"/><path class="cls-2" d="M56,52h44l1,40c-1,1-13,1-13,1h0c-.28-6.07-5.55-10.53-11-10a10.31,10.31,0,0,0-9,10H65a10,10,0,0,0-20,0H40" transform="translate(-1 -1)"/><circle class="cls-2" cx="54" cy="92.5" r="8"/><circle class="cls-2" cx="77" cy="92" r="8"/><circle class="cls-2" cx="116" cy="92" r="8"/><path class="cls-2" d="M107,93h-3V54h6l13,6-1,1,7,17V92l-1,1h-1a10,10,0,0,0-20,0Z" transform="translate(-1 -1)"/></svg>