<svg id="change" xmlns="http://www.w3.org/2000/svg" xmlns:xlink="http://www.w3.org/1999/xlink" viewBox="0 0 149 149"><defs><style>.cls-1{fill:url(#Dégradé_sans_nom_23);}.cls-2{fill:#fff;}.cls-3{fill:#b3b3b3;}.cls-4{fill:#4d4d4d;}</style><linearGradient id="Dégradé_sans_nom_23" x1="74.5" x2="74.5" y2="149" gradientUnits="userSpaceOnUse"><stop offset="0" stop-color="#fff"/><stop offset="0" stop-color="#f7691e"/><stop offset="0.27" stop-color="#ad4d35"/><stop offset="0.52" stop-color="#6f3449"/><stop offset="0.74" stop-color="#412358"/><stop offset="0.9" stop-color="#251861"/><stop offset="1" stop-color="#1b1464"/></linearGradient></defs><title>change</title><circle class="cls-1" cx="74.5" cy="74.5" r="74.5"/><path class="cls-2" d="M79.06,45.72q-.06,4.06-.13,8.13L77.76,129h26l2.61-3.9q.64-36.43,1.3-72.87c0-1.27.19-7.78-3.91-10.41-1.28-.83-3.15-1.37-10.41,0-2.77.52-5.05,1.07-7.37,1.71C83.13,44.32,80.77,45.11,79.06,45.72Z" transform="translate(-0.5 -0.5)"/><path class="cls-2" d="M85.57,28.81a1.58,1.58,0,0,0,0,1.3v13l9.1-2.6h0V28.81C94,28.63,86.64,26.68,85.57,28.81Z" transform="translate(-0.5 -0.5)"/><path class="cls-2" d="M89.47,27.51V24.9h-3.9c-.47,1.31-.45,2.35,0,2.61a.72.72,0,0,0,.58,0Z" transform="translate(-0.5 -0.5)"/><path class="cls-2" d="M84.26,24.9H62.14v2.61H84.26a1.31,1.31,0,0,1,0-2.61Z" transform="translate(-0.5 -0.5)"/><path class="cls-2" d="M55.48,58.73H72.55V28.81H57.18V23.6H72.55V21H45.23V58.73Z" transform="translate(-0.5 -0.5)"/><path class="cls-2" d="M43.93,63.94c-1.86-.21-2.85-1.68-2.61-2.6A2.45,2.45,0,0,1,43.93,60H77.76v3.9H43.93Z" transform="translate(-0.5 -0.5)"/><path class="cls-2" d="M45.23,65.24H72.35a20.16,20.16,0,0,1,0,11.71A21.56,21.56,0,0,1,69,83.46c-3.12,4.27-7.56,13.81-13.56,36.43H46.92" transform="translate(-0.5 -0.5)"/><path class="cls-3" d="M84.26,73.05V90c-.37,1.9.26,3.49,1.31,3.91a1.93,1.93,0,0,0,1.3,0h6.5a2.93,2.93,0,0,0,1.3-1.3,3.09,3.09,0,0,0,0-2.61V73.05a4.54,4.54,0,0,0-1.3-2.6,4.93,4.93,0,0,0-3.9-1.31,4.93,4.93,0,0,0-3.9,1.31A4.64,4.64,0,0,0,84.26,73.05Z" transform="translate(-0.5 -0.5)"/><path class="cls-4" d="M88.17,82.16v5.2h2.6v-5.2h2.6L89.47,77c-2.57,3.42-3.9,5.21-3.9,5.21h2.6Z" transform="translate(-0.5 -0.5)"/><path class="cls-3" d="M94.67,43.12V53.53h-13V47Z" transform="translate(-0.5 -0.5)"/></svg>