<svg id="climb" xmlns="http://www.w3.org/2000/svg" xmlns:xlink="http://www.w3.org/1999/xlink" viewBox="0 0 149 149"><defs><style>.cls-1{fill:url(#Dégradé_sans_nom_23);}.cls-2{fill:#fff;}</style><linearGradient id="Dégradé_sans_nom_23" x1="74.5" x2="74.5" y2="149" gradientUnits="userSpaceOnUse"><stop offset="0" stop-color="#fff"/><stop offset="0" stop-color="#f7691e"/><stop offset="0.27" stop-color="#ad4d35"/><stop offset="0.52" stop-color="#6f3449"/><stop offset="0.74" stop-color="#412358"/><stop offset="0.9" stop-color="#251861"/><stop offset="1" stop-color="#1b1464"/></linearGradient></defs><title>climb</title><circle class="cls-1" cx="74.5" cy="74.5" r="74.5"/><path class="cls-2" d="M47,58,37,44a4.58,4.58,0,0,0-6,0,4.51,4.51,0,0,0-1,5L42,67a3.06,3.06,0,0,0,2,2,2.9,2.9,0,0,0,3-1l12-5h1V80H80V61l20-31c.57-2.84-.92-5.4-3-6a4.8,4.8,0,0,0-4,1L75,51H65Z" transform="translate(-0.5 -0.5)"/><path class="cls-2" d="M84,72v3A62.34,62.34,0,0,0,97,65c15.4-15.5,18.29-35,19-43h-3a62.93,62.93,0,0,1-7,26A63.43,63.43,0,0,1,84,72Z" transform="translate(-0.5 -0.5)"/><path class="cls-2" d="M81,81v3H59L42,124a6.7,6.7,0,0,0,11,5L67,97a6.58,6.58,0,0,0,3,1,6.72,6.72,0,0,0,4-1l16-7,3,14a5.56,5.56,0,0,0,7,3,5.38,5.38,0,0,0,3-5q-2.5-11.5-5-23a5.08,5.08,0,0,0-3-3,4.85,4.85,0,0,0-3,0Z" transform="translate(-0.5 -0.5)"/><path class="cls-2" d="M77,100l3-2v38H77Z" transform="translate(-0.5 -0.5)"/><circle class="cls-2" cx="70" cy="38" r="9.5"/></svg>