<svg id="dabber" xmlns="http://www.w3.org/2000/svg" xmlns:xlink="http://www.w3.org/1999/xlink" viewBox="0 0 149 149"><defs><style>.cls-1{fill:url(#Dégradé_sans_nom_23);}.cls-2{fill:#f2f2f2;}</style><linearGradient id="Dégradé_sans_nom_23" x1="74.5" x2="74.5" y2="149" gradientUnits="userSpaceOnUse"><stop offset="0" stop-color="#fff"/><stop offset="0" stop-color="#f7691e"/><stop offset="0.27" stop-color="#ad4d35"/><stop offset="0.52" stop-color="#6f3449"/><stop offset="0.74" stop-color="#412358"/><stop offset="0.9" stop-color="#251861"/><stop offset="1" stop-color="#1b1464"/></linearGradient></defs><title>dabber</title><circle class="cls-1" cx="74.5" cy="74.5" r="74.5"/><path class="cls-2" d="M52.38,51.42v25.7l2.85,1.43v45.7A6.06,6.06,0,0,0,59.52,130c3,.71,6.65-1.71,7.14-5.71V87.12q2.85,18.57,5.71,37.13A6.06,6.06,0,0,0,76.65,130c3,.71,6.66-1.71,7.14-5.71q-2.85-22.84-5.71-45.7.72-12.85,1.43-25.7L99.5,50l12.86-8.57a5.15,5.15,0,0,0-5.72-8.57L95.22,40H83.79a8.28,8.28,0,0,0-4.28,0,8.18,8.18,0,0,0-2.86,1.43L60.94,48.56Z" transform="translate(-0.5 -0.5)"/><path class="cls-2" d="M69.51,33.42l-10,4.29L49.52,42c-1-.81-4.06-3.64-4.28-7.85C44.91,28.16,50.53,22,57.37,22A12.56,12.56,0,0,1,69.51,33.42Z" transform="translate(-0.5 -0.5)"/><path class="cls-2" d="M47.64,42.44a5.09,5.09,0,0,0-2.71,6.73,5.15,5.15,0,0,0,6.77,2.56l14.57-5.21,15.26-8.11a5,5,0,0,0,.93-5.8,5.17,5.17,0,0,0-6.35-2.28Z" transform="translate(-0.5 -0.5)"/></svg>