<svg id="direct" xmlns="http://www.w3.org/2000/svg" xmlns:xlink="http://www.w3.org/1999/xlink" viewBox="0 0 149 149"><defs><style>.cls-1{fill:url(#Dégradé_sans_nom_23);}.cls-2{fill:#f2f2f2;}.cls-3{fill:#ccc;}</style><linearGradient id="Dégradé_sans_nom_23" x1="74.5" x2="74.5" y2="149" gradientUnits="userSpaceOnUse"><stop offset="0" stop-color="#fff"/><stop offset="0" stop-color="#f7691e"/><stop offset="0.27" stop-color="#ad4d35"/><stop offset="0.52" stop-color="#6f3449"/><stop offset="0.74" stop-color="#412358"/><stop offset="0.9" stop-color="#251861"/><stop offset="1" stop-color="#1b1464"/></linearGradient></defs><title>direct</title><circle class="cls-1" cx="74.5" cy="74.5" r="74.5"/><path class="cls-2" d="M53,23a29.21,29.21,0,0,0-8,9c-2.33,3.67-6.36,11.19-8,31a177.56,177.56,0,0,0,0,29,12.21,12.21,0,0,0,15,11L35,129h8l5-7h52l5,7h9L97,104c2.87-.07,7.57-.66,11-4,4.4-4.29,4.26-10.74,4-17-.4-9.5-1.22-22-3-37a46.38,46.38,0,0,0-9-18,27.12,27.12,0,0,0-5-5c-6.45-4.8-13.64-4.95-20-5C68,18,60.2,17.89,53,23Z" transform="translate(-1 -1)"/><path class="cls-3" d="M57,28a25.59,25.59,0,0,0-4,3c-6.09,5.63-7.5,12.78-9,21-1.55,8.47-2.49,14.12,1,18a9.67,9.67,0,0,0,2.15,1.77A8.79,8.79,0,0,0,51.71,73h44.6a8.64,8.64,0,0,0,6.21-2.47c.16-.17.32-.34.48-.53a8.88,8.88,0,0,0,2-5c.4-8.16-.43-20.65-8-32-.52-.78-1.06-1.53-1.6-2.25A16.13,16.13,0,0,0,91,27c-3.8-1.79-8.26-2.69-15-3C71.88,23.81,64.39,23.47,57,28Z" transform="translate(-1 -1)"/><circle class="cls-3" cx="51" cy="87" r="6"/><circle class="cls-3" cx="95" cy="87" r="6"/><polygon class="cls-3" points="51 117 96 117 92.37 110 54.63 110 51 117 51 117"/><polygon class="cls-3" points="56 107 91 107 88.18 103 58.82 103 56 107 56 107"/></svg>