<svg id="earphone" xmlns="http://www.w3.org/2000/svg" xmlns:xlink="http://www.w3.org/1999/xlink" viewBox="0 0 149 149"><defs><style>.cls-1{fill:url(#Dégradé_sans_nom_23);}.cls-2{fill:#fff;}</style><linearGradient id="Dégradé_sans_nom_23" x1="74.5" x2="74.5" y2="149" gradientUnits="userSpaceOnUse"><stop offset="0" stop-color="#fff"/><stop offset="0" stop-color="#f7691e"/><stop offset="0.27" stop-color="#ad4d35"/><stop offset="0.52" stop-color="#6f3449"/><stop offset="0.74" stop-color="#412358"/><stop offset="0.9" stop-color="#251861"/><stop offset="1" stop-color="#1b1464"/></linearGradient></defs><title>earphone</title><circle class="cls-1" cx="74.5" cy="74.5" r="74.5"/><path class="cls-2" d="M37.43,49.8c.23.11-.1,1,0,1.08.29.11,2.17-4.34,2.17-4.34,2.31-5.45,22.68-23.25,46.67-17.36,22.36,5.48,30.76,27.37,31.46,29.3a13,13,0,0,0-1.08,5.42c0,2.17.66,3.31,1.08,5.43a20.09,20.09,0,0,1,0,7.59,1.79,1.79,0,0,0-1.08,0A1.71,1.71,0,0,0,115.56,78c-.18.73.52,1.29,1.09,2.17,1.93,3,.56,7.19.32,7.88,0,.1-.14.39-.32.8a13.87,13.87,0,0,1-4.34,5.43,54,54,0,0,1-2.17,8.68,52.92,52.92,0,0,1-3.26,7.59h-3.25l1.08-6.51h-1.08c-.73,3.26-1.45,6.51-2.17,9.77a5.26,5.26,0,0,1-1.09,1.08A6.84,6.84,0,0,1,97.12,116c-1.54.26-2,.1-2.17,0a2.46,2.46,0,0,1-1.09-1.09,5.64,5.64,0,0,1-5.42-4.34,66.17,66.17,0,0,1,1.08-16.27C90.61,88.63,91.74,83.15,96,78a25.93,25.93,0,0,1,3.26-3.26c5.23,0,7,.53,7.59,1.09L108,76.92,109.05,78c.69.77.58,2.26,0,4.34-1.21,4.36-2.93,5.81-2.17,7.6.23.53.7,1.14,1.09,1.08,1-.15.24-4.45,2.17-5.43,1.14-.57,3.25,0,3.25,0s.54,3.25,1.09,3.26,1.07-2.14,1.08-4.34-.55-2.78-1.08-5.43c-.75-3.68-.65-7.45,0-7.59.39-.08.73,1.16,1.08,1.08.71-.16,1.54-5.57-1.08-8.68-.89-1-2.18-1.84-2.17-3.25,0-.77.38-1.41,0-2.17-.26-.51-.59-.56-1.09-1.09a4.68,4.68,0,0,1-1.08-2.17c-.33-1.12-2.2-4.3-7.6-11.94a6.23,6.23,0,0,1-5.42,0A5.55,5.55,0,0,1,95,41.11a4.13,4.13,0,0,1-5.43-2.17,4.14,4.14,0,0,1-5.43-2.17,6.2,6.2,0,0,1-5.42-1.08,4,4,0,0,1-2.17,1.08,4.16,4.16,0,0,1-3.26-1.08A3.48,3.48,0,0,1,70,37.86a3.28,3.28,0,0,1-2.17-1.09,4.43,4.43,0,0,1-3.26,2.17,4.31,4.31,0,0,1-3.25-1.08A4.46,4.46,0,0,1,58.05,40a4.32,4.32,0,0,1-3.25-1.09A45.13,45.13,0,0,0,42.86,50.88,2.07,2.07,0,0,0,41.77,52a2,2,0,0,0,0,1.08c.28,1.35-1.9,2.74-3.25,4.34A10,10,0,0,0,36.35,65c.28,1.87,1,1.69,1.08,3.25.18,2.69-1.9,3.28-3.25,7.6-1,3.08-.48,4.6,0,5.42.35.62.9,1.18,1.08,1.09s-.49-1.27,0-2.17,1.81-1,2.17-1.09a2.49,2.49,0,0,1,1.09,0c1.87.65,1.12,6.32,2.17,6.51.22.05.56-.15,1.08-1.08-2-4.38-1.7-8.3-1.08-9.77a20.5,20.5,0,0,1,2.12-3.21l0,0c.28-.24.75,0,1.08,0,.58,0,1-.88,1.09-1.09.4-.67,2-1.12,7.6,0a50.92,50.92,0,0,1,2.17,5.43C57.27,83.33,57.16,89.3,57,96.46c-.29,10.6-2,14-3.26,14.1a6.33,6.33,0,0,0-2.17,0c-1,.28-1.06.76-2.17,1.09a2.84,2.84,0,0,1-2.17,0c-.6-.33-.52-.77-1.08-1.09-.84-.47-1.68.11-2.18,0-.88-.18-1.55-2.72-1.08-11.93a1.49,1.49,0,0,0-1.09,0c-1.89.79-1.12,6.26-1.11,6.32h0l0,.18a3.05,3.05,0,0,1-2.17,0c-1.65-.74-2-3.29-2.17-5.43-.46-4.45-.82-8.44-1.09-11.93A11.81,11.81,0,0,1,32,81.26a12.39,12.39,0,0,1,3.25-9.76c.39-1.51.25-2,0-2.17s-.58.12-1.08,0a2,2,0,0,1-1.09-1.09c-.56-1.1.74-4.53,3.26-8.68a12.7,12.7,0,0,0,0-5.42,4.56,4.56,0,0,1,0-3.26C36.66,50.27,37.24,49.7,37.43,49.8Z" transform="translate(-0.5 -0.5)"/><path class="cls-2" d="M93,118c.08-.43.15-.94,0-1-.31-.12-1.44,1.76-2,3-1.81,4-1.59,10.31,2,13a6.89,6.89,0,0,0,2,1c4.87,1.73,8-1.59,10,0,1.6,1.27,1.54,4.93,0,7a4.92,4.92,0,0,1-1,1c-.43.09-.93.16-1,0s.56-.59,1-1a5.26,5.26,0,0,0,1-6,2.78,2.78,0,0,0-1-1c-.8-.44-1.64-.31-3,0-3,.69-2.92.93-4,1a6.22,6.22,0,0,1-4-1,6.09,6.09,0,0,1-2-3c-1.32-3.29-2.72-6.79-1-10A7.7,7.7,0,0,1,93,118Z" transform="translate(-0.5 -0.5)"/></svg>