<svg id="giletjaune" xmlns="http://www.w3.org/2000/svg" xmlns:xlink="http://www.w3.org/1999/xlink" viewBox="0 0 149 149"><defs><style>.cls-1{fill:url(#Dégradé_sans_nom_23);}.cls-2{fill:#f2f2f2;}</style><linearGradient id="Dégradé_sans_nom_23" x1="74.5" x2="74.5" y2="149" gradientUnits="userSpaceOnUse"><stop offset="0" stop-color="#fff"/><stop offset="0" stop-color="#f7691e"/><stop offset="0.27" stop-color="#ad4d35"/><stop offset="0.52" stop-color="#6f3449"/><stop offset="0.74" stop-color="#412358"/><stop offset="0.9" stop-color="#251861"/><stop offset="1" stop-color="#1b1464"/></linearGradient></defs><title>giletjaune</title><circle class="cls-1" cx="74.5" cy="74.5" r="74.5"/><path class="cls-2" d="M39.55,34.5l1.76-.57L62.85,27a20.86,20.86,0,0,0,1.55,9,22.46,22.46,0,0,0,9.32,10.5c.75,9,1.29,18.55,1.56,28.5.25,9.39.22,18.4,0,27,1.08,4.24-.14,8.39-3.11,10.5a8.69,8.69,0,0,1-4.66,1.5,147.4,147.4,0,0,0-18.64-1.5c-1.58,0-3.13,0-4.66,0L38,67.5A28.32,28.32,0,0,0,44.21,51,28.13,28.13,0,0,0,39.55,34.5Z" transform="translate(-0.5 -0.5)"/><path class="cls-2" d="M109.61,34.5,108,33.93,88.72,27a23.14,23.14,0,0,1-1.4,9A21.65,21.65,0,0,1,79,46.5c-.67,9-1.16,18.55-1.4,28.5-.22,9.39-.2,18.4,0,27-1,4.24.12,8.39,2.79,10.5a7.23,7.23,0,0,0,4.18,1.5,118.72,118.72,0,0,1,16.71-1.5c1.42,0,2.81,0,4.18,0q2.79-22.5,5.57-45a30.43,30.43,0,0,1-1.39-33Z" transform="translate(-0.5 -0.5)"/></svg>