<svg id="left" xmlns="http://www.w3.org/2000/svg" xmlns:xlink="http://www.w3.org/1999/xlink" viewBox="0 0 149 149"><defs><style>.cls-1{fill:url(#Dégradé_sans_nom_23);}.cls-2{fill:#fff;}</style><linearGradient id="Dégradé_sans_nom_23" x1="74.5" x2="74.5" y2="149" gradientUnits="userSpaceOnUse"><stop offset="0" stop-color="#fff"/><stop offset="0" stop-color="#f7691e"/><stop offset="0.27" stop-color="#ad4d35"/><stop offset="0.52" stop-color="#6f3449"/><stop offset="0.74" stop-color="#412358"/><stop offset="0.9" stop-color="#251861"/><stop offset="1" stop-color="#1b1464"/></linearGradient></defs><title>left</title><circle class="cls-1" cx="74.5" cy="74.5" r="74.5"/><path class="cls-2" d="M113.23,79.07l-64.9-.3,20,21.33a5,5,0,0,1-1.2,5.9A5.06,5.06,0,0,1,60,104.79C47.38,91.63,38.27,81.87,35.35,78.72A7.91,7.91,0,0,1,33,74,8.43,8.43,0,0,1,35.4,68.1l24.9-27a4.7,4.7,0,0,1,7,5.93l-19,21.15,64.9.3a5.34,5.34,0,0,1,0,10.62Z" transform="translate(-1)"/><path class="cls-2" d="M57,41" transform="translate(-1)"/></svg>