<?xml version="1.0" encoding="UTF-8"?>
<svg width="97px" height="53px" viewBox="0 0 97 53" version="1.1" xmlns="http://www.w3.org/2000/svg" xmlns:xlink="http://www.w3.org/1999/xlink">
    <!-- Generator: Sketch 52.2 (67145) - http://www.bohemiancoding.com/sketch -->
    <title>logo</title>
    <desc>Created with Sketch.</desc>
    <g id="Page-1" stroke="none" stroke-width="1" fill="none" fill-rule="evenodd">
        <g id="Artboard" transform="translate(-57.000000, -37.000000)">
            <g id="logo" transform="translate(0.000000, 29.000000)">
                <path d="M78.1885169,50.3892924 C78.1885169,50.3892924 74.702044,51.0742746 67.7290983,52.444239 C64.2426254,53.8097861 64.2426254,54.8695996 67.7290983,55.6236795 C72.9588076,56.7547993 92.1223014,54.4925597 98.1792635,55.6236795 C104.236225,56.7547993 91.804017,60.7397485 98.1792635,60.7397485 C104.55451,60.7397485 117.387202,56.3283813 120.860613,56.3283813 C124.334023,56.3283813 129.327169,56.230414 131.651697,54.3373265 C133.976225,52.444239 135.538972,52.444239 138.251558,52.444239 C140.964145,52.444239 148.646938,52.4650629 145.618935,50.3892924 C142.590932,48.313522 141.70872,47.1606316 136.07996,47.7370768 C130.451201,48.313522 130.642362,45.6821303 120.860613,47.7370768 C114.339446,49.1070411 110.344801,49.1070411 108.876678,47.7370768 L100.254325,47.7370768 L94.9342917,50.3892924 C91.0639022,51.7592568 88.0597943,51.7592568 85.921968,50.3892924 C82.7152286,48.3343459 78.1885169,50.3892924 78.1885169,50.3892924 Z" id="Path-4" fill="#F2F7B0" transform="translate(105.714130, 53.839427) rotate(1.000000) translate(-105.714130, -53.839427) "></path>
                <text id="UrinUp" font-family="Rajdhani-Bold, Rajdhani" font-size="36" font-weight="bold" fill="#FFFFFF">
                    <tspan x="55.73" y="33.2315905">UrinUp</tspan>
                </text>
            </g>
        </g>
    </g>
</svg>