<svg id="map" xmlns="http://www.w3.org/2000/svg" xmlns:xlink="http://www.w3.org/1999/xlink" viewBox="0 0 149 149"><defs><style>.cls-1{fill:url(#Dégradé_sans_nom_23);}.cls-2{fill:#fff;}.cls-3{fill:#b3b3b3;}</style><linearGradient id="Dégradé_sans_nom_23" x1="74.5" x2="74.5" y2="149" gradientUnits="userSpaceOnUse"><stop offset="0" stop-color="#fff"/><stop offset="0" stop-color="#f7691e"/><stop offset="0.27" stop-color="#ad4d35"/><stop offset="0.52" stop-color="#6f3449"/><stop offset="0.74" stop-color="#412358"/><stop offset="0.9" stop-color="#251861"/><stop offset="1" stop-color="#1b1464"/></linearGradient></defs><title>map</title><circle class="cls-1" cx="74.5" cy="74.5" r="74.5"/><path class="cls-2" d="M78.57,114.85Q84.32,100,90,85L67.11,31.15,60.23,47.2Q70,70.14,79.72,93.07,79.15,104,78.57,114.85Z" transform="translate(-1)"/><polygon class="cls-2" points="34 42.61 47.76 116 77.57 94.21 51.2 32.29 34 42.61"/><polygon class="cls-2" points="77.57 96.51 76.43 116 68.4 102.24 77.57 96.51"/><path class="cls-2" d="M91.19,87.33l11.46,19.5L90,90.77Z" transform="translate(-1)"/><path class="cls-2" d="M103.8,104.53q.57-13.19,1.15-26.37L74,30q-.58,5.16-1.15,10.32,9.75,22.93,19.49,45.87Q98.07,95.35,103.8,104.53Z" transform="translate(-1)"/><polygon class="cls-2" points="107.39 80.45 126.88 95.36 76.43 32.29 107.39 80.45"/><path class="cls-3" d="M42,56l9.66-4-1.08,5,5.37,2-10.73,5v-2l6.44-3-4.29-1,1.07-3L42.25,57Z" transform="translate(-1)"/><path class="cls-3" d="M46.29,66.13l10-1.23.93,1.76L48.44,74.2l-.58-1.38,4.68-3.52L51.72,67l-.11-.31L46,67.54l-.77-1.41Z" transform="translate(-1)"/><path class="cls-3" d="M59,72,47.61,76.87V78L59,73Z" transform="translate(-1)"/><path class="cls-3" d="M52.73,76.22c1.51,2.65,4.83,3.17,6.44,2s1.92-3.94,0-6.06l-1.07,1,1.07,2-1.07,1-1.08,1H56l-2.15-1Z" transform="translate(-1)"/></svg>