<svg id="newspaper" xmlns="http://www.w3.org/2000/svg" xmlns:xlink="http://www.w3.org/1999/xlink" viewBox="0 0 149 149"><defs><style>.cls-1{fill:url(#Dégradé_sans_nom_23);}.cls-2,.cls-3,.cls-4{fill:#fff;}.cls-2{opacity:0.67;}.cls-3{opacity:0.41;}</style><linearGradient id="Dégradé_sans_nom_23" x1="74.5" x2="74.5" y2="149" gradientUnits="userSpaceOnUse"><stop offset="0" stop-color="#fff"/><stop offset="0" stop-color="#f7691e"/><stop offset="0.27" stop-color="#ad4d35"/><stop offset="0.52" stop-color="#6f3449"/><stop offset="0.74" stop-color="#412358"/><stop offset="0.9" stop-color="#251861"/><stop offset="1" stop-color="#1b1464"/></linearGradient></defs><title>newspaper</title><circle class="cls-1" cx="74.5" cy="74.5" r="74.5"/><path class="cls-2" d="M29,63c-.48,0-.86.73-1,1a6.54,6.54,0,0,0,0,5c.9,2.57,2.67,4.6,7,8a78.23,78.23,0,0,0,7,5c11.51,7,13,7.15,19,11,8.13,5.25,11.61,9.08,13,8s-.47-6.06-1-6,.12,3.59-1,4-2.4-2.25-5-5c-2.1-2.21-3.19-2.6-10-7-3-2-6-4-9-6,0,0-10.25-6.83-14-11a32.57,32.57,0,0,1-2.25-2.84C31.33,66.53,31,66,31,66,29.74,64,29.53,63,29,63Z" transform="translate(-1)"/><path class="cls-3" d="M74.46,103c-.16-.28.75-1.1,1-3a8.44,8.44,0,0,0-1-5c-2.1-3.91-6.91-5.35-9.09-6s-3.6-.7-6.06-2a21.43,21.43,0,0,1-3-2c-3.5-2.65-3.8-2.38-9.08-6-4.3-2.94-6.44-4.41-8.08-6a74.1,74.1,0,0,1-6.06-7c-1.55-1.91-2.35-3-3-4a50.58,50.58,0,0,1-3-5c3.86-.67,9.44-1.67,16.16-3,11.72-2.32,18.15-3.61,26.25-6,4.22-1.25,10.15-3.16,17.17-6a70.24,70.24,0,0,0,17.16,12c9.55,4.68,15.15,7,15.15,7,6.22,2.57,9.8,3.69,11.11,7,1.15,2.92,0,6.07-1,8C86.21,98.92,75,103.88,74.46,103Z" transform="translate(-1)"/><path class="cls-4" d="M38,62c5.23,2.94,6.19,4.81,6,6-.16,1-1.19,1.77-1,2s2.34-.94,4-2l-2-3,6,1,3-1-6-5c.12,0,.92.19,1,0s-.36-.51-.6-.71A3.73,3.73,0,0,0,48,59l-3,1,1,1,1-1,3,4h0L40,62Z" transform="translate(-1)"/><path class="cls-4" d="M52,58l1,1h1l4,4-1,1,1,1,5-2,1-2-.8-.8h0S63.07,60,63,60s0,1.78,0,1.83h0c0,.1,0,.17,0,.17a2.7,2.7,0,0,1-2,1,4.15,4.15,0,0,1-1,0l-1-1,1-2h0l-1-1a4.72,4.72,0,0,0-.86,1.72c0,.12,0,.24-.14.28-.47.22-2-2-2-2h0V58l2-1a4.21,4.21,0,0,1,1.66.83c.08.07.24.22.34.17s.09-.58,0-1l-1-1Z" transform="translate(-1)"/><path class="cls-4" d="M62,55a3,3,0,0,0,1,0,6.2,6.2,0,0,0,2-1h0c.13.11,1.1.78,1,1s-.41.09-.6.07S65,55,65,55s1,.66,5,3V52l5,3h0V52H74l1-1h2l-1,1v4h0v1h2l-3,1h0V57c0-.82-3-2-3-2h0v3h1v1h0l-3,1H69V59h0c0-1.09-6-4-6-4H62Z" transform="translate(-1)"/><path class="cls-4" d="M82,47v.22h0V48a2.62,2.62,0,0,0-3,2,2.5,2.5,0,0,0,1,2,3.77,3.77,0,0,0,2,1c1.24.18,1.94-.45,3,0,.44.19,1,.6,1,1,0,.57-1.32.91-2,1a3.79,3.79,0,0,1-1,0,3.24,3.24,0,0,1-1.74-.78C81.11,54.09,81,54,81,54a12.45,12.45,0,0,0,1,2h3c2.15-.84,3.25-2.2,3-3s-1.74-1-2-1H83a2.43,2.43,0,0,1-2-1c-.41-.67-.47-1.71,0-2s1.32.08,2,1c.7-.34.93-.71,1-1a3.44,3.44,0,0,0,0-1h0l-1-1,0,0" transform="translate(-1)"/><path class="cls-4" d="M50,73l17-6,1,1L52,74Z" transform="translate(-1)"/><ellipse class="cls-4" cx="91.5" cy="69" rx="9.49" ry="1.58" transform="translate(-18.12 32.48) rotate(-18.43)"/><ellipse class="cls-4" cx="64" cy="74" rx="11.52" ry="2.08" transform="translate(-22.82 27.02) rotate(-20.45)"/><path class="cls-4" d="M61,79h0a112.81,112.81,0,0,1,13-6,4.51,4.51,0,0,0,.74,0c.16,0,.24,0,.26,0s-.32.43-.61.68S74.05,74,74,74c-2.16,1.59-3.24,2.39-11,5h0l-1.46.73L61,80" transform="translate(-1)"/><path class="cls-4" d="M63.43,81.14l12.28-5.52.86.24L65,81.2Z" transform="translate(-1)"/><path class="cls-4" d="M74.23,63.57l12.71-4.45.83.31L75.83,63.77Z" transform="translate(-1)"/><path class="cls-4" d="M81.23,68.57l12.71-4.45.83.31L82.83,68.77Z" transform="translate(-1)"/><path class="cls-4" d="M78.23,66.57l12.71-4.45.83.31L79.83,66.77Z" transform="translate(-1)"/><path class="cls-4" d="M76.23,65.57l12.71-4.45.83.31L77.83,65.77Z" transform="translate(-1)"/><path class="cls-4" d="M75.23,64.57l12.71-4.45.83.31L76.83,64.77Z" transform="translate(-1)"/></svg>