<svg id="overboard" xmlns="http://www.w3.org/2000/svg" xmlns:xlink="http://www.w3.org/1999/xlink" viewBox="0 0 149 149"><defs><style>.cls-1{fill:url(#Dégradé_sans_nom_23);}.cls-2{fill:#fff;}</style><linearGradient id="Dégradé_sans_nom_23" x1="74.5" x2="74.5" y2="149" gradientUnits="userSpaceOnUse"><stop offset="0" stop-color="#fff"/><stop offset="0" stop-color="#f7691e"/><stop offset="0.27" stop-color="#ad4d35"/><stop offset="0.52" stop-color="#6f3449"/><stop offset="0.74" stop-color="#412358"/><stop offset="0.9" stop-color="#251861"/><stop offset="1" stop-color="#1b1464"/></linearGradient></defs><title>overboard</title><circle class="cls-1" cx="74.5" cy="74.5" r="74.5"/><circle class="cls-2" cx="74.5" cy="18.5" r="10"/><path class="cls-2" d="M61,43V65a3.25,3.25,0,0,1-6,0V62H50V59h4V38a8.72,8.72,0,0,1,4-5,8.3,8.3,0,0,1,4-1H85a9.82,9.82,0,0,1,5,1,10.28,10.28,0,0,1,5,6V59h4v3H95v3a3.25,3.25,0,0,1-6,0V43H85V58H79V56H72v3H65V43Z" transform="translate(-0.5 -0.5)"/><path class="cls-2" d="M65,62h8V73H72v39a4,4,0,0,1-2,1c-1.83.29-3.83-.9-5-3Z" transform="translate(-0.5 -0.5)"/><path class="cls-2" d="M85,62H77V73h1v39a4,4,0,0,0,2,1c1.83.29,3.83-.9,5-3Z" transform="translate(-0.5 -0.5)"/><path class="cls-2" d="M89,99v16H77v3H74v-2H61V99a4.53,4.53,0,0,0-9,0v31a4.94,4.94,0,0,0,4,3,5,5,0,0,0,5-3V120h4v4H84v-4h5v10a5.67,5.67,0,0,0,10,0V99a5.13,5.13,0,0,0-10,0Z" transform="translate(-0.5 -0.5)"/></svg>