<svg id="character" xmlns="http://www.w3.org/2000/svg" xmlns:xlink="http://www.w3.org/1999/xlink" viewBox="0 0 372.68 817.45"><defs><style>.cls-1,.cls-10,.cls-11,.cls-12,.cls-13,.cls-14,.cls-15,.cls-16,.cls-17,.cls-18,.cls-19,.cls-2,.cls-20,.cls-21,.cls-22,.cls-23,.cls-24,.cls-25,.cls-26,.cls-27,.cls-28,.cls-29,.cls-3,.cls-30,.cls-31,.cls-32,.cls-33,.cls-34,.cls-35,.cls-36,.cls-37,.cls-38,.cls-39,.cls-4,.cls-40,.cls-41,.cls-42,.cls-43,.cls-44,.cls-45,.cls-46,.cls-47,.cls-48,.cls-49,.cls-5,.cls-50,.cls-51,.cls-52,.cls-53,.cls-54,.cls-55,.cls-56,.cls-57,.cls-58,.cls-59,.cls-6,.cls-60,.cls-61,.cls-62,.cls-63,.cls-64,.cls-65,.cls-66,.cls-67,.cls-68,.cls-69,.cls-7,.cls-70,.cls-71,.cls-72,.cls-73,.cls-74,.cls-75,.cls-76,.cls-79,.cls-8,.cls-80,.cls-81,.cls-82,.cls-83,.cls-84,.cls-85,.cls-86,.cls-87,.cls-88,.cls-89,.cls-9{stroke:#000;}.cls-1,.cls-10,.cls-11,.cls-12,.cls-13,.cls-14,.cls-15,.cls-16,.cls-17,.cls-18,.cls-19,.cls-2,.cls-20,.cls-21,.cls-22,.cls-23,.cls-24,.cls-25,.cls-26,.cls-27,.cls-28,.cls-29,.cls-3,.cls-30,.cls-31,.cls-32,.cls-33,.cls-34,.cls-35,.cls-36,.cls-37,.cls-38,.cls-39,.cls-4,.cls-40,.cls-41,.cls-42,.cls-43,.cls-44,.cls-45,.cls-46,.cls-47,.cls-48,.cls-49,.cls-5,.cls-50,.cls-51,.cls-52,.cls-53,.cls-54,.cls-55,.cls-56,.cls-57,.cls-58,.cls-59,.cls-6,.cls-60,.cls-61,.cls-62,.cls-63,.cls-64,.cls-65,.cls-66,.cls-67,.cls-68,.cls-69,.cls-7,.cls-70,.cls-71,.cls-72,.cls-73,.cls-74,.cls-75,.cls-76,.cls-77,.cls-78,.cls-79,.cls-8,.cls-80,.cls-81,.cls-82,.cls-83,.cls-84,.cls-85,.cls-86,.cls-87,.cls-88,.cls-89,.cls-9{stroke-miterlimit:10;}.cls-1{fill:url(#Dégradé_sans_nom_18);}.cls-2{fill:url(#Dégradé_sans_nom_18-2);}.cls-3{fill:url(#Dégradé_sans_nom_18-3);}.cls-4{fill:url(#Dégradé_sans_nom_18-4);}.cls-5{fill:url(#Dégradé_sans_nom_20);}.cls-6{fill:url(#Dégradé_sans_nom_33);}.cls-7{fill:url(#Dégradé_sans_nom_33-2);}.cls-8{fill:url(#Dégradé_sans_nom_25);}.cls-9{fill:url(#Dégradé_sans_nom_25-2);}.cls-10{fill:url(#Dégradé_sans_nom_20-2);}.cls-11{fill:url(#Dégradé_sans_nom_25-3);}.cls-12{fill:url(#Dégradé_sans_nom_25-4);}.cls-13{fill:url(#Dégradé_sans_nom_25-5);}.cls-14{fill:url(#Dégradé_sans_nom_18-5);}.cls-15{fill:url(#Dégradé_sans_nom_18-6);}.cls-16{fill:url(#Dégradé_sans_nom_18-7);}.cls-17{fill:url(#Dégradé_sans_nom_18-8);}.cls-18{fill:url(#Dégradé_sans_nom_34);}.cls-19{fill:url(#Dégradé_sans_nom_18-9);}.cls-20{fill:url(#Dégradé_sans_nom_18-10);}.cls-21{fill:url(#Dégradé_sans_nom_18-11);}.cls-22{fill:url(#Dégradé_sans_nom_18-12);}.cls-23{fill:url(#Dégradé_sans_nom_34-2);}.cls-24{fill:url(#Dégradé_sans_nom_18-13);}.cls-25{fill:url(#Dégradé_sans_nom_30);}.cls-26{fill:url(#Dégradé_sans_nom_30-2);}.cls-27{fill:url(#Dégradé_sans_nom_30-3);}.cls-28,.cls-78{fill:none;}.cls-29{fill:url(#Dégradé_sans_nom_34-3);}.cls-30{fill:url(#Dégradé_sans_nom_34-4);}.cls-31{fill:url(#Dégradé_sans_nom_34-5);}.cls-32{fill:url(#Dégradé_sans_nom_34-6);}.cls-33{fill:url(#Dégradé_sans_nom_34-7);}.cls-34{fill:url(#Dégradé_sans_nom_34-8);}.cls-35{fill:url(#Dégradé_sans_nom_34-9);}.cls-36{fill:url(#Dégradé_sans_nom_34-10);}.cls-37{fill:url(#Dégradé_sans_nom_34-11);}.cls-38{fill:url(#Dégradé_sans_nom_34-12);}.cls-39{fill:url(#Dégradé_sans_nom_34-13);}.cls-40{fill:url(#Dégradé_sans_nom_34-14);}.cls-41{fill:url(#Dégradé_sans_nom_34-15);}.cls-42{fill:url(#Dégradé_sans_nom_34-16);}.cls-43{fill:url(#Dégradé_sans_nom_34-17);}.cls-44{fill:url(#Dégradé_sans_nom_18-14);}.cls-45{fill:url(#Dégradé_sans_nom_30-4);}.cls-46{fill:url(#Dégradé_sans_nom_30-5);}.cls-47{fill:url(#Dégradé_sans_nom_30-6);}.cls-48{fill:url(#Dégradé_sans_nom_34-18);}.cls-49{fill:url(#Dégradé_sans_nom_34-19);}.cls-50{fill:url(#Dégradé_sans_nom_34-20);}.cls-51{fill:url(#Dégradé_sans_nom_34-21);}.cls-52{fill:url(#Dégradé_sans_nom_34-22);}.cls-53{fill:url(#Dégradé_sans_nom_34-23);}.cls-54{fill:url(#Dégradé_sans_nom_34-24);}.cls-55{fill:url(#Dégradé_sans_nom_34-25);}.cls-56{fill:url(#Dégradé_sans_nom_34-26);}.cls-57{fill:url(#Dégradé_sans_nom_34-27);}.cls-58{fill:url(#Dégradé_sans_nom_34-28);}.cls-59{fill:url(#Dégradé_sans_nom_34-29);}.cls-60{fill:url(#Dégradé_sans_nom_34-30);}.cls-61{fill:url(#Dégradé_sans_nom_34-31);}.cls-62{fill:url(#Dégradé_sans_nom_34-32);}.cls-63{fill:url(#Dégradé_sans_nom_25-6);}.cls-64{fill:url(#Dégradé_sans_nom_25-7);}.cls-65{fill:url(#Dégradé_sans_nom_25-8);}.cls-66{fill:url(#Dégradé_sans_nom_30-7);}.cls-67{fill:url(#Dégradé_sans_nom_30-8);}.cls-68{fill:url(#Dégradé_sans_nom_30-9);}.cls-69{fill:url(#Dégradé_sans_nom_30-10);}.cls-70{fill:url(#Dégradé_sans_nom_30-11);}.cls-71{fill:url(#Dégradé_sans_nom_30-12);}.cls-72{fill:url(#Dégradé_sans_nom_30-13);}.cls-73{fill:url(#Dégradé_sans_nom_30-14);}.cls-74{fill:url(#Dégradé_sans_nom_30-15);}.cls-75{fill:url(#Dégradé_sans_nom_30-16);}.cls-76{fill:url(#Dégradé_sans_nom_33-3);}.cls-77,.cls-78{stroke:#1a1a1a;}.cls-77{fill:url(#Dégradé_sans_nom_33-4);}.cls-79{fill:url(#Dégradé_sans_nom_33-5);}.cls-80{fill:url(#Dégradé_sans_nom_30-17);}.cls-81{fill:url(#Dégradé_sans_nom_30-18);}.cls-82{fill:url(#Dégradé_sans_nom_33-6);}.cls-83{fill:url(#Dégradé_sans_nom_33-7);}.cls-84{fill:url(#Dégradé_sans_nom_33-8);}.cls-85{fill:url(#Dégradé_sans_nom_33-9);}.cls-86{fill:url(#Dégradé_sans_nom_33-10);}.cls-87{fill:url(#Dégradé_sans_nom_33-11);}.cls-88{fill:url(#Dégradé_sans_nom_33-12);}.cls-89{fill:url(#Dégradé_sans_nom_33-13);}</style><linearGradient id="Dégradé_sans_nom_18" x1="374.86" y1="487.73" x2="617.02" y2="487.73" gradientUnits="userSpaceOnUse"><stop offset="0.02" stop-color="#ff7354"/><stop offset="0.07" stop-color="#ff7c53"/><stop offset="0.35" stop-color="#ffa34e"/><stop offset="0.61" stop-color="#ffbf4b"/><stop offset="0.83" stop-color="#ffd049"/><stop offset="1" stop-color="#ffd648"/></linearGradient><linearGradient id="Dégradé_sans_nom_18-2" x1="585.77" y1="199.52" x2="601.71" y2="199.52" xlink:href="#Dégradé_sans_nom_18"/><linearGradient id="Dégradé_sans_nom_18-3" x1="419.89" y1="200.68" x2="439.75" y2="200.68" xlink:href="#Dégradé_sans_nom_18"/><linearGradient id="Dégradé_sans_nom_18-4" x1="427.69" y1="195.18" x2="598.09" y2="195.18" xlink:href="#Dégradé_sans_nom_18"/><linearGradient id="Dégradé_sans_nom_20" x1="503.42" y1="224.74" x2="530.56" y2="224.74" gradientUnits="userSpaceOnUse"><stop offset="0" stop-color="#2d004b"/><stop offset="0.04" stop-color="#3e054b"/><stop offset="0.17" stop-color="#71154b"/><stop offset="0.31" stop-color="#9c234b"/><stop offset="0.45" stop-color="#c02e4b"/><stop offset="0.58" stop-color="#dc374b"/><stop offset="0.72" stop-color="#ef3d4b"/><stop offset="0.86" stop-color="#fb414b"/><stop offset="1" stop-color="#ff424b"/></linearGradient><linearGradient id="Dégradé_sans_nom_33" x1="211.28" y1="133.15" x2="244.4" y2="133.15" gradientUnits="userSpaceOnUse"><stop offset="0" stop-color="#fff"/><stop offset="1" stop-color="#ffe89a"/></linearGradient><linearGradient id="Dégradé_sans_nom_33-2" x1="137.87" y1="131.82" x2="170.99" y2="131.82" xlink:href="#Dégradé_sans_nom_33"/><linearGradient id="Dégradé_sans_nom_25" x1="148.39" y1="131.82" x2="169.44" y2="131.82" gradientUnits="userSpaceOnUse"><stop offset="0" stop-color="#2d004b"/><stop offset="1" stop-color="#ff424b"/></linearGradient><linearGradient id="Dégradé_sans_nom_25-2" x1="211.28" y1="133.15" x2="232.33" y2="133.15" xlink:href="#Dégradé_sans_nom_25"/><linearGradient id="Dégradé_sans_nom_20-2" x1="485.31" y1="263.45" x2="550.86" y2="263.45" xlink:href="#Dégradé_sans_nom_20"/><linearGradient id="Dégradé_sans_nom_25-3" x1="423.81" y1="167.43" x2="446.73" y2="167.43" xlink:href="#Dégradé_sans_nom_25"/><linearGradient id="Dégradé_sans_nom_25-4" x1="574.71" y1="168.04" x2="597.37" y2="168.04" xlink:href="#Dégradé_sans_nom_25"/><linearGradient id="Dégradé_sans_nom_25-5" x1="419.96" y1="115.99" x2="596.97" y2="115.99" xlink:href="#Dégradé_sans_nom_25"/><linearGradient id="Dégradé_sans_nom_18-5" x1="677.77" y1="641.01" x2="692.6" y2="641.01" xlink:href="#Dégradé_sans_nom_18"/><linearGradient id="Dégradé_sans_nom_18-6" x1="670.35" y1="647.75" x2="685.18" y2="647.75" xlink:href="#Dégradé_sans_nom_18"/><linearGradient id="Dégradé_sans_nom_18-7" x1="659.85" y1="650.85" x2="674.68" y2="650.85" xlink:href="#Dégradé_sans_nom_18"/><linearGradient id="Dégradé_sans_nom_18-8" x1="646.83" y1="649.39" x2="660.27" y2="649.39" xlink:href="#Dégradé_sans_nom_18"/><linearGradient id="Dégradé_sans_nom_34" x1="588.37" y1="502.92" x2="696.03" y2="502.92" gradientUnits="userSpaceOnUse"><stop offset="0.33" stop-color="#2d004b"/><stop offset="1" stop-color="#c81a4b"/></linearGradient><linearGradient id="Dégradé_sans_nom_18-9" x1="333.58" y1="643.01" x2="348.41" y2="643.01" xlink:href="#Dégradé_sans_nom_18"/><linearGradient id="Dégradé_sans_nom_18-10" x1="340.99" y1="649.75" x2="355.82" y2="649.75" xlink:href="#Dégradé_sans_nom_18"/><linearGradient id="Dégradé_sans_nom_18-11" x1="351.5" y1="652.85" x2="366.33" y2="652.85" xlink:href="#Dégradé_sans_nom_18"/><linearGradient id="Dégradé_sans_nom_18-12" x1="365.91" y1="651.39" x2="379.34" y2="651.39" xlink:href="#Dégradé_sans_nom_18"/><linearGradient id="Dégradé_sans_nom_34-2" x1="324.35" y1="502.92" x2="432.01" y2="502.92" xlink:href="#Dégradé_sans_nom_34"/><linearGradient id="Dégradé_sans_nom_18-13" x1="512.91" y1="780.3" x2="547.99" y2="780.3" xlink:href="#Dégradé_sans_nom_18"/><linearGradient id="Dégradé_sans_nom_30" x1="511.35" y1="722.48" x2="555.32" y2="722.48" gradientUnits="userSpaceOnUse"><stop offset="0.33" stop-color="#ff7354"/><stop offset="1" stop-color="#ffd648"/></linearGradient><linearGradient id="Dégradé_sans_nom_30-2" x1="510.39" y1="767.28" x2="551.7" y2="767.28" xlink:href="#Dégradé_sans_nom_30"/><linearGradient id="Dégradé_sans_nom_30-3" x1="537.97" y1="768.33" x2="542.59" y2="768.33" xlink:href="#Dégradé_sans_nom_30"/><linearGradient id="Dégradé_sans_nom_34-3" x1="508.52" y1="822.66" x2="573.18" y2="822.66" xlink:href="#Dégradé_sans_nom_34"/><linearGradient id="Dégradé_sans_nom_34-4" x1="529.94" y1="811.21" x2="568.13" y2="811.21" xlink:href="#Dégradé_sans_nom_34"/><linearGradient id="Dégradé_sans_nom_34-5" x1="211.08" y1="764.31" x2="216.79" y2="764.31" xlink:href="#Dégradé_sans_nom_34"/><linearGradient id="Dégradé_sans_nom_34-6" x1="206.99" y1="758.07" x2="211.86" y2="758.07" xlink:href="#Dégradé_sans_nom_34"/><linearGradient id="Dégradé_sans_nom_34-7" x1="203.73" y1="752.13" x2="208.46" y2="752.13" xlink:href="#Dégradé_sans_nom_34"/><linearGradient id="Dégradé_sans_nom_34-8" x1="529.34" y1="815.84" x2="562.68" y2="815.84" xlink:href="#Dégradé_sans_nom_34"/><linearGradient id="Dégradé_sans_nom_34-9" x1="537.18" y1="818.19" x2="562.61" y2="818.19" xlink:href="#Dégradé_sans_nom_34"/><linearGradient id="Dégradé_sans_nom_34-10" x1="532.37" y1="821.64" x2="565.7" y2="821.64" xlink:href="#Dégradé_sans_nom_34"/><linearGradient id="Dégradé_sans_nom_34-11" x1="536.86" y1="826.45" x2="570.19" y2="826.45" xlink:href="#Dégradé_sans_nom_34"/><linearGradient id="Dégradé_sans_nom_34-12" x1="525.65" y1="844.56" x2="619.72" y2="844.56" xlink:href="#Dégradé_sans_nom_34"/><linearGradient id="Dégradé_sans_nom_34-13" x1="508.21" y1="855.31" x2="535.71" y2="855.31" xlink:href="#Dégradé_sans_nom_34"/><linearGradient id="Dégradé_sans_nom_34-14" x1="522.15" y1="869.48" x2="621.13" y2="869.48" xlink:href="#Dégradé_sans_nom_34"/><linearGradient id="Dégradé_sans_nom_34-15" x1="507.16" y1="800.25" x2="531.74" y2="800.25" xlink:href="#Dégradé_sans_nom_34"/><linearGradient id="Dégradé_sans_nom_34-16" x1="522.61" y1="869.57" x2="619.03" y2="869.57" xlink:href="#Dégradé_sans_nom_34"/><linearGradient id="Dégradé_sans_nom_34-17" x1="508.32" y1="862.47" x2="523.22" y2="862.47" xlink:href="#Dégradé_sans_nom_34"/><linearGradient id="Dégradé_sans_nom_18-14" x1="453.16" y1="778.63" x2="488.24" y2="778.63" xlink:href="#Dégradé_sans_nom_18"/><linearGradient id="Dégradé_sans_nom_30-4" x1="445.66" y1="723.48" x2="489.62" y2="723.48" xlink:href="#Dégradé_sans_nom_30"/><linearGradient id="Dégradé_sans_nom_30-5" x1="449.27" y1="766.9" x2="490.59" y2="766.9" xlink:href="#Dégradé_sans_nom_30"/><linearGradient id="Dégradé_sans_nom_30-6" x1="458.38" y1="767.94" x2="463" y2="767.94" xlink:href="#Dégradé_sans_nom_30"/><linearGradient id="Dégradé_sans_nom_34-18" x1="429.24" y1="822.37" x2="493.9" y2="822.37" xlink:href="#Dégradé_sans_nom_34"/><linearGradient id="Dégradé_sans_nom_34-19" x1="434.29" y1="810.92" x2="472.48" y2="810.92" xlink:href="#Dégradé_sans_nom_34"/><linearGradient id="Dégradé_sans_nom_34-20" x1="137.93" y1="764.02" x2="143.64" y2="764.02" xlink:href="#Dégradé_sans_nom_34"/><linearGradient id="Dégradé_sans_nom_34-21" x1="142.86" y1="757.77" x2="147.73" y2="757.77" xlink:href="#Dégradé_sans_nom_34"/><linearGradient id="Dégradé_sans_nom_34-22" x1="146.27" y1="751.84" x2="150.99" y2="751.84" xlink:href="#Dégradé_sans_nom_34"/><linearGradient id="Dégradé_sans_nom_34-23" x1="439.74" y1="815.54" x2="473.07" y2="815.54" xlink:href="#Dégradé_sans_nom_34"/><linearGradient id="Dégradé_sans_nom_34-24" x1="439.81" y1="817.89" x2="465.24" y2="817.89" xlink:href="#Dégradé_sans_nom_34"/><linearGradient id="Dégradé_sans_nom_34-25" x1="436.71" y1="821.35" x2="470.05" y2="821.35" xlink:href="#Dégradé_sans_nom_34"/><linearGradient id="Dégradé_sans_nom_34-26" x1="432.22" y1="826.15" x2="465.56" y2="826.15" xlink:href="#Dégradé_sans_nom_34"/><linearGradient id="Dégradé_sans_nom_34-27" x1="382.7" y1="844.26" x2="476.77" y2="844.26" xlink:href="#Dégradé_sans_nom_34"/><linearGradient id="Dégradé_sans_nom_34-28" x1="466.71" y1="855.01" x2="494.21" y2="855.01" xlink:href="#Dégradé_sans_nom_34"/><linearGradient id="Dégradé_sans_nom_34-29" x1="381.28" y1="869.19" x2="480.26" y2="869.19" xlink:href="#Dégradé_sans_nom_34"/><linearGradient id="Dégradé_sans_nom_34-30" x1="470.68" y1="799.96" x2="495.26" y2="799.96" xlink:href="#Dégradé_sans_nom_34"/><linearGradient id="Dégradé_sans_nom_34-31" x1="383.39" y1="869.28" x2="479.81" y2="869.28" xlink:href="#Dégradé_sans_nom_34"/><linearGradient id="Dégradé_sans_nom_34-32" x1="479.2" y1="862.17" x2="494.1" y2="862.17" xlink:href="#Dégradé_sans_nom_34"/><linearGradient id="Dégradé_sans_nom_25-6" x1="371.54" y1="389.24" x2="436.16" y2="389.24" xlink:href="#Dégradé_sans_nom_25"/><linearGradient id="Dégradé_sans_nom_25-7" x1="598.09" y1="394.11" x2="659.26" y2="394.11" xlink:href="#Dégradé_sans_nom_25"/><linearGradient id="Dégradé_sans_nom_25-8" x1="382.08" y1="434.1" x2="625.39" y2="434.1" xlink:href="#Dégradé_sans_nom_25"/><linearGradient id="Dégradé_sans_nom_30-7" x1="374.37" y1="614.04" x2="617.48" y2="614.04" xlink:href="#Dégradé_sans_nom_30"/><linearGradient id="Dégradé_sans_nom_30-8" x1="497.48" y1="660.29" x2="501.15" y2="660.29" xlink:href="#Dégradé_sans_nom_30"/><linearGradient id="Dégradé_sans_nom_30-9" x1="491.75" y1="571.3" x2="507.52" y2="571.3" xlink:href="#Dégradé_sans_nom_30"/><linearGradient id="Dégradé_sans_nom_30-10" x1="482.16" y1="573.42" x2="503.83" y2="573.42" xlink:href="#Dégradé_sans_nom_30"/><linearGradient id="Dégradé_sans_nom_30-11" x1="490.15" y1="532.02" x2="506.19" y2="532.02" xlink:href="#Dégradé_sans_nom_30"/><linearGradient id="Dégradé_sans_nom_30-12" x1="603.67" y1="588.33" x2="611.66" y2="588.33" xlink:href="#Dégradé_sans_nom_30"/><linearGradient id="Dégradé_sans_nom_30-13" x1="558.1" y1="534.8" x2="565.83" y2="534.8" xlink:href="#Dégradé_sans_nom_30"/><linearGradient id="Dégradé_sans_nom_30-14" x1="605.88" y1="536.36" x2="612.94" y2="536.36" xlink:href="#Dégradé_sans_nom_30"/><linearGradient id="Dégradé_sans_nom_30-15" x1="385.18" y1="539.86" x2="391.55" y2="539.86" xlink:href="#Dégradé_sans_nom_30"/><linearGradient id="Dégradé_sans_nom_30-16" x1="444.02" y1="534.8" x2="451.75" y2="534.8" xlink:href="#Dégradé_sans_nom_30"/><linearGradient id="Dégradé_sans_nom_33-3" x1="555.49" y1="382.31" x2="587.59" y2="382.31" xlink:href="#Dégradé_sans_nom_33"/><linearGradient id="Dégradé_sans_nom_33-4" x1="391.86" y1="468.96" x2="444.53" y2="468.96" xlink:href="#Dégradé_sans_nom_33"/><linearGradient id="Dégradé_sans_nom_33-5" x1="435.39" y1="441.36" x2="578.26" y2="441.36" xlink:href="#Dégradé_sans_nom_33"/><linearGradient id="Dégradé_sans_nom_30-17" x1="478.21" y1="447.32" x2="545.15" y2="447.32" gradientTransform="translate(194.52 -153.78) rotate(21.02)" xlink:href="#Dégradé_sans_nom_30"/><linearGradient id="Dégradé_sans_nom_30-18" x1="473.5" y1="447.32" x2="549.85" y2="447.32" xlink:href="#Dégradé_sans_nom_30"/><linearGradient id="Dégradé_sans_nom_33-6" x1="470.55" y1="447.64" x2="577.97" y2="447.64" xlink:href="#Dégradé_sans_nom_33"/><linearGradient id="Dégradé_sans_nom_33-7" x1="465.92" y1="475.83" x2="471.45" y2="475.83" xlink:href="#Dégradé_sans_nom_33"/><linearGradient id="Dégradé_sans_nom_33-8" x1="464.05" y1="466.23" x2="470.9" y2="466.23" xlink:href="#Dégradé_sans_nom_33"/><linearGradient id="Dégradé_sans_nom_33-9" x1="465.29" y1="463.58" x2="468.95" y2="463.58" xlink:href="#Dégradé_sans_nom_33"/><linearGradient id="Dégradé_sans_nom_33-10" x1="466.46" y1="468.86" x2="469.74" y2="468.86" xlink:href="#Dégradé_sans_nom_33"/><linearGradient id="Dégradé_sans_nom_33-11" x1="567.44" y1="350.08" x2="573.55" y2="350.08" xlink:href="#Dégradé_sans_nom_33"/><linearGradient id="Dégradé_sans_nom_33-12" x1="589.29" y1="357.2" x2="597.3" y2="357.2" xlink:href="#Dégradé_sans_nom_33"/><linearGradient id="Dégradé_sans_nom_33-13" x1="565.09" y1="355.36" x2="599.77" y2="355.36" xlink:href="#Dégradé_sans_nom_33"/></defs><title>parisian</title><path id="skin_bodyBase" data-name="skin bodyBase" class="cls-1" d="M605.16,519.38c-11.75-103.67,22.21-128.62-2.74-160.31C589.75,343,567.81,332.68,543,328.44a4.37,4.37,0,0,1-3.52-4.8c.41-4.43,0-9.7.1-15.71.12-10.92,1.15-20.57-2.92-26.16-9.71-13.37-43-9.69-49.61,3.84-1.55,3.2,0,15.09.34,26.65.18,5.93.06,9.87.15,12.71a4.31,4.31,0,0,1-3.4,4.39c-23.24,4.66-44.79,14.51-59.78,29.71-26.32,26.7-7.38,44.55-32.87,144C372.08,578.9,368,628,388.15,655.8c9,12.42,23.1,18.52,49.31,29.88,20,8.68,39.76,17.24,65.73,16.31,23.05-.83,22.77,1,49.37-12,30-14.66,44.93-22,54.78-35.32C627.19,627.83,611.37,574.15,605.16,519.38Z" transform="translate(-323.85 -67.15)"/><g id="skin_ears" data-name="skin ears"><path class="cls-2" d="M597.2,173c2,1.47,2.77,2.42,4.23,6.22,1.08,2.79-1.17,9-2.66,19.34-.7,4.82,1.64,9.6-.55,20.47-.89,4.42-1.36,6.64-2.49,6.93-2.69.7-6.85-9.24-8.67-14.88C582.14,195.84,592.59,179.45,597.2,173Z" transform="translate(-323.85 -67.15)"/><path class="cls-3" d="M427.87,171.24c-2.9-.28-5.72,2.61-7,4.77-1.06,1.84-1.63,4.3,0,13,2,10.53,3.44,10.36,3.76,16,.43,7.57-.72,15.8,1.39,19.74,1.83,3.41,6.14,6.19,9.21,5.19,6.23-2,4.2-24.9,4.06-28.39C438.85,189,434.57,171.87,427.87,171.24Z" transform="translate(-323.85 -67.15)"/></g><g id="baseFace"><path id="skin" class="cls-4" d="M427.69,187.84c-.11,16.53,1.44,15.19,1.81,41.32.37,25.21-1.06,27.51,1.82,34.14,6.85,15.83,23.68,22.95,41.65,30.55,8.84,3.73,22.25,9.26,40.93,10.26a109.43,109.43,0,0,0,52.35-10.26c12.6-6,23.2-11.05,29-22.46,3.07-6.06,3.66-11.7,1.81-37.73-1.49-21.12-2.68-28.71-3.62-40.43-3.08-38.59,2.89-42.8-1.81-55.7C581.84,110.71,557.4,96.05,546,92.61c-7.79-2.35-25.26-7.66-37.73-6.29A110.78,110.78,0,0,0,468.45,98c-21.59,10.94-26,24.5-30.79,30.54C428,140.83,427.9,156.5,427.69,187.84Z" transform="translate(-323.85 -67.15)"/><path id="skin_nose" data-name="skin nose" class="cls-5" d="M511.65,233c-3-1-8.14-3.82-8.22-7.58-.13-5.33,10-11.95,18.21-9.32,5,1.62,9.7,6.85,8.81,11.07C529.3,232.65,519,235.56,511.65,233Z" transform="translate(-323.85 -67.15)"/><ellipse class="cls-6" cx="227.84" cy="133.15" rx="16.56" ry="16.43"/><ellipse class="cls-7" cx="154.43" cy="131.82" rx="16.56" ry="16.43"/><ellipse class="cls-8" cx="158.91" cy="131.82" rx="10.52" ry="10.44"/><ellipse class="cls-9" cx="221.81" cy="133.15" rx="10.52" ry="10.44"/><path id="normalFace" class="cls-10" d="M485.38,259.08c1.35-2.69,16.12,4.1,32.48,5.3,20.36,1.5,32.28-6.52,33-4.44.4,1.19-4.32,4.74-8.78,6.09-8.08,2.45-9,1.78-24,2.3-13.78.47-17.48-.43-23.26-2.53C490.94,264.38,484.57,260.71,485.38,259.08Z" transform="translate(-323.85 -67.15)"/></g><g id="shortHair_parisianItem" data-name="shortHair parisianItem"><path class="cls-11" d="M429.52,136.06c-3.81,4.67-7.47,24.1-4.78,41.72,1.83,12,1.16,23.58,3.38,23.56,2,0,2.06-8.58,5.83-21.85,6.46-22.73,15.49-30.2,12-35.25S435.51,128.74,429.52,136.06Z" transform="translate(-323.85 -67.15)"/><path class="cls-12" d="M591.61,137.53c3.81,4.66,6.88,20.39,5.36,38.88-1,12.13-1.43,25-3.65,24.93-2,0-2.05-8.58-5.83-21.85-6.46-22.73-15.48-30.2-12-35.25S585.63,130.2,591.61,137.53Z" transform="translate(-323.85 -67.15)"/><path class="cls-13" d="M506.51,70.45c-8.24-5-27-2.9-40.58,3.25-17.5,7.93-26.39,21.7-32.28,30.84-7.53,11.65-17.51,27.11-12.19,40.9,3.23,8.38,11.85,15.52,17.06,13.85s5.8-12.09,9.14-12c2.58.11,2.22,6.34,6.7,10.07,6.23,5.19,17.7,2.11,24.37-1.26,10.32-5.2,13.66-13.38,17.06-11.95,4.06,1.7-.08,13.68,5.48,17.62,5,3.52,14.44-1.65,19.49-4.41,10.28-5.6,12.08-10.92,16.45-10.07,7.26,1.41,8.55,17.25,12.8,17,3.9-.24,3.54-13.72,9.74-16.37,5.48-2.34,9.77,12,21.93,13.85,1.84.28,7.66,1.18,11.17-2,9-8.14,1.72-37.66-7.43-53.53-6.46-11.2-19.21-24.2-34.81-32-2.74-1.37-23.46-8-33.15-2.64-2.62,1.45-2.18,2.12-5.37,1.83C509.43,73.28,507.91,71.3,506.51,70.45Z" transform="translate(-323.85 -67.15)"/></g><g id="rightArmWalk"><g id="skin-2" data-name="skin"><path class="cls-14" d="M690.23,627.28c4.41,2.47,1.6,13.7,0,18.25-1.15,3.27-3.05,8.43-7.29,9.51-.19.05-3.2.78-4.6-.76s.27-4.31,1.15-9.13c1.47-8-1.6-10.41.77-14.07C682.41,627.76,687.51,625.76,690.23,627.28Z" transform="translate(-323.85 -67.15)"/><path class="cls-15" d="M682.81,631.57c4.42,2.91,1.61,16.15,0,21.52-1.15,3.85-3,9.93-7.28,11.21-.2.05-3.2.91-4.6-.9s.27-5.09,1.15-10.76c1.47-9.44-1.61-12.27.77-16.59C675,632.14,680.1,629.78,682.81,631.57Z" transform="translate(-323.85 -67.15)"/><path class="cls-16" d="M672.31,634.67c4.41,2.91,1.6,16.15,0,21.52-1.15,3.85-3,9.93-7.28,11.2-.2.06-3.21.92-4.6-.89s.26-5.09,1.15-10.76c1.46-9.44-1.61-12.27.76-16.59C664.49,635.24,669.59,632.88,672.31,634.67Z" transform="translate(-323.85 -67.15)"/><path class="cls-17" d="M660,638.16c1.07,1.78-.92,3-1.83,8.62s.49,7.54-1.37,12c-.69,1.66-1.6,3.76-3.43,4.08s-3.73-1.61-4.12-2c-1.86-2-2.05-4.32-2.28-12.92-.21-7.74-.12-8.57.68-9.53C650.53,634.9,658.19,635.23,660,638.16Z" transform="translate(-323.85 -67.15)"/></g><path id="sweater" class="cls-18" d="M592.24,362.08c8.16-4,25.84,16.09,30,20.92,29.58,34.8,24.32,65.46,38.16,123,16.92,70.34,46.88,116.48,31.34,128.43-2,1.56-8.62,2.84-21.8,5.4-18,3.5-27,5.25-31.34,4.06-16.93-4.63-16.42-42.28-24.53-102.74-9-66.93-19.08-123-19.08-123C589.4,387.38,584.81,365.74,592.24,362.08Z" transform="translate(-323.85 -67.15)"/></g><g id="leftArmWalk"><g id="skin-3" data-name="skin"><path class="cls-19" d="M336,629.28c-4.42,2.46-1.61,13.7,0,18.25,1.15,3.27,3,8.43,7.28,9.51.19.05,3.2.78,4.6-.76s-.27-4.32-1.15-9.13c-1.47-8,1.61-10.41-.77-14.07C343.76,629.76,338.66,627.76,336,629.28Z" transform="translate(-323.85 -67.15)"/><path class="cls-20" d="M343.36,633.57c-4.41,2.9-1.6,16.15,0,21.52,1.15,3.85,3.05,9.93,7.29,11.2.19.06,3.2.92,4.6-.89s-.27-5.09-1.15-10.76c-1.47-9.44,1.6-12.27-.77-16.59C351.18,634.14,346.08,631.78,343.36,633.57Z" transform="translate(-323.85 -67.15)"/><path class="cls-21" d="M353.86,636.66c-4.41,2.91-1.6,16.16,0,21.52,1.15,3.85,3.05,9.93,7.29,11.21.19.06,3.2.92,4.6-.9s-.27-5.08-1.15-10.75c-1.47-9.45,1.6-12.28-.77-16.59C361.68,637.23,356.58,634.87,353.86,636.66Z" transform="translate(-323.85 -67.15)"/><path class="cls-22" d="M366.22,640.16c-1.07,1.77.91,3,1.82,8.62s-.48,7.54,1.38,12c.68,1.66,1.59,3.76,3.43,4.08s3.72-1.62,4.11-2c1.86-2,2.06-4.32,2.29-12.93.2-7.74.11-8.56-.69-9.52C375.64,636.89,368,637.23,366.22,640.16Z" transform="translate(-323.85 -67.15)"/></g><path id="sweater-2" data-name="sweater" class="cls-23" d="M428.13,362.08c-8.16-4-22.57,16.09-26.68,20.92-29.57,34.8-27.59,65.46-41.43,123-16.92,70.34-46.88,116.48-31.34,128.43,2,1.56,8.63,2.84,21.8,5.4,18,3.5,27,5.25,31.35,4.06,16.92-4.63,16.41-42.28,24.53-102.74,9-66.93,19.07-123,19.07-123C431,387.38,435.57,365.74,428.13,362.08Z" transform="translate(-323.85 -67.15)"/></g><g id="rightLeg"><path id="skin-4" data-name="skin" class="cls-24" d="M546.27,762.4c4,8-.44,9.73,1.19,33,.45,6.33,1,9.4-1.19,12.35-4.11,5.55-14.09,5.52-20.16,4.12-3.39-.79-7.84-1.31-10.08-4.71s-1.12-7.34-.59-10c3.64-18.25-6.62-24.93-.59-38.24,1.13-2.49,4.14-9.13,10.08-10.58C532.75,746.38,542.23,754.31,546.27,762.4Z" transform="translate(-323.85 -67.15)"/><g id="pant_parisianItem" data-name="pant parisianItem"><path class="cls-25" d="M555.32,685.4c-5,12-6.57,32.27-7,39.18a144.06,144.06,0,0,0,0,17.32c1,14.14,3.75,18.68.74,22.4-1.86,2.31-3.89,1.76-16.58,3.26-14.94,1.77-17.34,3.14-19.59,1-2.84-2.69-.92-6.64-.41-21.93.08-2.65,0-8.57-.27-20.39-.35-17.8-.78-18.91-.22-24.33,1.08-10.38,2-18.79,6.8-22.17C525.92,674.75,540.9,671.06,555.32,685.4Z" transform="translate(-323.85 -67.15)"/><path class="cls-26" d="M551,754.49c-1.27-1-4.44,1.32-8.82,3.34a49.63,49.63,0,0,1-19.82,1.87c-7.45-.89-11.53-4-11.74-1.07-.63,8.58-.09,14.6,1.55,21,.35,1.36,5.06.4,9.57.15,5.48-.29,6.89-.75,10.86-1.07,9.89-.78,14,1.2,16.19-1.07,1.53-1.6.69-2.94,1.57-10.39C551.37,758.93,552.43,755.53,551,754.49Z" transform="translate(-323.85 -67.15)"/><path class="cls-27" d="M541.86,757.57c.95,0,.72,2.15.67,3.93-.25,8.81-.55,8.63-.51,11.26.06,3.31.55,4.89-.51,5.83-.91.79-2.22.42-3.15.38s.28-2,.35-5c.12-5.5-.15-7.61-.2-10.9,0-2.11-1-3.45-.2-4.23A6.19,6.19,0,0,1,541.86,757.57Z" transform="translate(-323.85 -67.15)"/><path class="cls-28" d="M549.16,692.07a201.26,201.26,0,0,0-2.5,20.95c-.43,6.69-.34,10.53-.57,31.1-.06,5.12-.11,9.28-.15,11.85" transform="translate(-323.85 -67.15)"/></g><g id="rightShoe_parisianItem" data-name="rightShoe parisianItem"><g id="Tissue"><path class="cls-29" d="M513.6,790.72a2.29,2.29,0,0,1,1.3-.16c3.18.72,3.29,10.31,12.6,10.9,12.69.81,20.11-13.4,26.38-10.47,3.53,1.65,2.31,6.67,4.75,16.23,5,19.65,16.54,23.2,14.25,31.94-2.59,9.9-19.49,13.35-25.86,14.66s-27.19,2.22-35.45-3.15c-6-3.89-.31-10.8,0-27.87.1-6,2.52-9.84-2.43-16.09C507.56,804.71,509,792.24,513.6,790.72Z" transform="translate(-323.85 -67.15)"/><path class="cls-30" d="M558.63,807.22c-1.91-7.86.08-12.06-3.41-15.2-3-2.69-7.34-2.26-12.39-1.76s-10.09,1-12.27,4.65c-1,1.63-.66,5.05,0,11.83.53,5.5.8,8.25,1.31,9.86.22.67,2.72,8.19,9.41,12.47,9.72,6.21,24.68,3.28,26.65-2.57C569.48,821.88,561.61,819.46,558.63,807.22Z" transform="translate(-323.85 -67.15)"/><ellipse class="cls-31" cx="213.94" cy="764.31" rx="2.85" ry="2.95"/><ellipse class="cls-32" cx="209.43" cy="758.07" rx="2.44" ry="2.52"/><ellipse class="cls-33" cx="206.09" cy="752.13" rx="2.36" ry="2.44"/><path id="Lace" class="cls-34" d="M530.34,813.13c.83-1.2,2.45-2.28,12.24-2.07a46.72,46.72,0,0,1,6.3.32c.57,0,9.32.77,11.89,3.49.2.22.39.47.39.47.94,1.24,2,3.32,1.29,4.25-1,1.37-4.73-1.06-11.73-2.2-4.75-.76-9.14-1.48-13.66.41-3.38,1.41-4.73,3.4-6.13,2.69C529.24,819.64,528.68,815.51,530.34,813.13Z" transform="translate(-323.85 -67.15)"/><path id="Lace-2" data-name="Lace" class="cls-35" d="M537.18,823.18c0-1.38.55-3.09,7.41-8.26a39.18,39.18,0,0,1,4.51-3.18c.42-.29,6.82-4.5,10-3.8a4.52,4.52,0,0,1,.51.14c1.27.43,3,1.46,3,2.55,0,1.6-3.8,1.76-9.2,4.71-3.67,2-7.07,3.85-9.23,7.75-1.63,2.92-1.55,5.18-2.88,5.4C539.7,828.76,537.24,825.9,537.18,823.18Z" transform="translate(-323.85 -67.15)"/><path id="Lace-3" data-name="Lace" class="cls-36" d="M533.36,818.94c.84-1.2,2.46-2.28,12.25-2.07a46.63,46.63,0,0,1,6.29.32c.58,0,9.33.76,11.89,3.49.21.22.4.47.4.47.94,1.24,2,3.31,1.29,4.25-1,1.36-4.73-1.06-11.73-2.2-4.75-.77-9.15-1.48-13.66.41-3.38,1.41-4.73,3.4-6.14,2.69C532.26,825.44,531.71,821.32,533.36,818.94Z" transform="translate(-323.85 -67.15)"/><path id="Lace-4" data-name="Lace" class="cls-37" d="M537.85,823.74c.84-1.2,2.46-2.28,12.25-2.07a46.63,46.63,0,0,1,6.29.32c.58,0,9.33.77,11.89,3.49.21.22.4.47.4.47.94,1.24,2,3.31,1.29,4.25-1,1.36-4.73-1.06-11.73-2.2-4.75-.77-9.15-1.48-13.66.41-3.38,1.41-4.73,3.4-6.14,2.69C536.75,830.24,536.2,826.12,537.85,823.74Z" transform="translate(-323.85 -67.15)"/><path class="cls-38" d="M525.91,854.86c3.43-10.57,13.92-24.69,19-28.79,7.93-6.4,21.55-6,35.08-5.43,11.9.5,16.09,1.67,27.2,15.9,9.31,11.94,14,17.9,12.13,23-4.46,12.48-41.52,9-54.35,7.86C546.05,865.68,522.91,864.1,525.91,854.86Z" transform="translate(-323.85 -67.15)"/></g><g id="Sole"><path class="cls-39" d="M510,837.29c-2.44.15-1.68,15.43-1.68,23.67,0,3,2.13,5.92,3.46,5.86,1,0,1.37-1.64,2.37-1.55,1.25.1,1.33,2.65,2.74,3s2.34-2.22,4.11-2.12c1.15.07,1.17,1.19,4.43,4.51A8,8,0,0,0,530,873.3a1.63,1.63,0,0,0,.58,0c2.28-.43,4.91-1.93,5.16-3.72.19-1.35-1.06-2.1-2.9-4.32-4.54-5.45-3.64-9-6.88-10.39-2.42-1.06-3.52-3.5-5.91-5C514.71,846.42,512.5,837.14,510,837.29Z" transform="translate(-323.85 -67.15)"/><path class="cls-40" d="M525.91,854.86a55.68,55.68,0,0,0-3.69,16.23c-.09,1.33-.32,5.65,1.27,6.29,1.18.48,2.5-1.44,3.91-.85s.83,2.61,2.21,3.46c1.66,1,3.26-1.42,6-.91s3.4,3.47,5.35,3.19,2.39-3.31,3.92-3.19c1.29.11,1.26,2.31,3.08,3,1.56.58,2.23-.81,4.53-.64s2.53,1.69,4.53,1.7c2.4,0,2.75-2.17,5.11-2.25s3,2.28,5.51,2.28,2.73-2.14,5.12-2.28c3.15-.17,4.1,3.49,6.91,3.21s3.35-3.91,5.82-3.72c2,.14,2.62,2.56,4.31,2.27,1.49-.25,1.56-2.24,3.06-2.48S595,882,597,882.29c2.26.31,2.81-2.06,5.48-2.14,2.49-.08,3,1.94,5.36,1.58,1.77-.28,2-1.5,3.84-1.7s2.81,1.1,3.91,1c4-.34,7.87-19.23,3.69-21.47-2.35-1.25-5.42,5.45-11.58,5.24s-8.12-7.27-14.15-7.45c-4-.12-4.64,3.12-10.41,6.35-7.55,4.22-15.16,3.74-23.46,3.22a64.83,64.83,0,0,1-18.11-3.85A66.77,66.77,0,0,1,525.91,854.86Z" transform="translate(-323.85 -67.15)"/></g><path class="cls-41" d="M530.78,809c-1.5,1.88-4.4,1.48-9.47.69-7.22-1.12-10.83-1.68-12.68-4.54-3.16-4.87-.8-13.64,3.05-14.85,1.81-.56,3.73.62,4.4,1,3.79,2.34,2.74,6,6,8.15s5.77-.3,8,1.92C532,803.26,532.31,807.07,530.78,809Z" transform="translate(-323.85 -67.15)"/><path class="cls-42" d="M619,876.58a18.81,18.81,0,0,1-6.07.15c-10.18-1.42-12.27-15.28-18.32-15-3.82.19-3.66,5.51-11.76,10.73a32.4,32.4,0,0,1-10.12,4.24c-1.49.38-5.47,1.28-19.14,0-9.15-.86-13.82-1.32-18.87-3.11a51.66,51.66,0,0,1-12.14-6.2" transform="translate(-323.85 -67.15)"/><path class="cls-43" d="M523.22,864a35.26,35.26,0,0,1-6-.42,35.67,35.67,0,0,1-8.86-2.59" transform="translate(-323.85 -67.15)"/></g></g><g id="leftLeg"><path id="skin-5" data-name="skin" class="cls-44" d="M454.87,760.73c-4,7.94.44,9.72-1.19,32.94-.44,6.34-1,9.4,1.19,12.35,4.11,5.55,14.09,5.52,20.16,4.12,3.39-.79,7.84-1.31,10.08-4.71s1.13-7.34.59-10c-3.64-18.24,6.62-24.93.6-38.23-1.13-2.5-4.14-9.14-10.08-10.59C468.39,744.7,458.92,752.63,454.87,760.73Z" transform="translate(-323.85 -67.15)"/><g id="pant_parisianItem-2" data-name="pant parisianItem"><path class="cls-45" d="M445.66,695.24a89.73,89.73,0,0,1,7,29,146.4,146.4,0,0,1,0,17.31c-1,14.14-3.75,18.68-.75,22.4,1.87,2.31,3.89,1.76,16.59,3.27,14.93,1.76,17.33,3.14,19.58,1,2.84-2.69.92-6.64.42-21.93-.09-2.65,0-8.56.26-20.39.35-17.8.78-18.91.22-24.32-1.08-10.39-1.95-18.8-6.8-22.18C475.05,674.36,460.08,680.89,445.66,695.24Z" transform="translate(-323.85 -67.15)"/><path class="cls-46" d="M450,754.1c1.26-1,4.43,1.32,8.82,3.34a49.71,49.71,0,0,0,19.82,1.88c7.44-.9,11.53-4,11.74-1.08.63,8.58.09,14.6-1.56,21-.35,1.37-5,.4-9.56.15-5.48-.29-6.89-.75-10.87-1.06-9.89-.79-14,1.19-16.19-1.08-1.52-1.6-.69-2.94-1.57-10.39C449.61,758.54,448.55,755.15,450,754.1Z" transform="translate(-323.85 -67.15)"/><path class="cls-47" d="M459.11,757.18c-.95,0-.72,2.15-.67,3.94.26,8.8.56,8.62.51,11.26-.06,3.3-.55,4.88.52,5.82.9.79,2.21.43,3.15.38s-.28-2-.35-5c-.12-5.5.14-7.61.19-10.89,0-2.11,1.05-3.46.2-4.24A6.17,6.17,0,0,0,459.11,757.18Z" transform="translate(-323.85 -67.15)"/><path class="cls-28" d="M451.75,696.56A88.08,88.08,0,0,1,454.93,708a90.36,90.36,0,0,1,.28,34.35,87.83,87.83,0,0,1-2.29,9.48" transform="translate(-323.85 -67.15)"/></g><g id="leftShoe_parisianItem" data-name="leftShoe parisianItem"><g id="Tissue-2" data-name="Tissue"><path class="cls-48" d="M488.81,790.42a2.25,2.25,0,0,0-1.29-.15c-3.18.72-3.3,10.31-12.6,10.9-12.69.8-20.11-13.41-26.39-10.47-3.53,1.65-2.3,6.66-4.75,16.23-5,19.65-16.53,23.2-14.24,31.93,2.59,9.9,19.48,13.36,25.86,14.66s27.19,2.23,35.45-3.14c6-3.89.31-10.8,0-27.88-.11-6-2.53-9.83,2.43-16.08C494.86,804.42,493.4,792,488.81,790.42Z" transform="translate(-323.85 -67.15)"/><path class="cls-49" d="M443.78,806.93c1.92-7.87-.08-12.06,3.42-15.21,3-2.68,7.34-2.25,12.38-1.76s10.1,1,12.28,4.65c1,1.63.66,5.06,0,11.84-.54,5.49-.81,8.24-1.32,9.85-.21.68-2.71,8.2-9.4,12.48-9.72,6.21-24.68,3.28-26.65-2.58C432.94,821.58,440.81,819.16,443.78,806.93Z" transform="translate(-323.85 -67.15)"/><ellipse class="cls-50" cx="140.79" cy="764.02" rx="2.85" ry="2.95"/><ellipse class="cls-51" cx="145.3" cy="757.77" rx="2.44" ry="2.52"/><ellipse class="cls-52" cx="148.63" cy="751.84" rx="2.36" ry="2.44"/><path id="Lace-5" data-name="Lace" class="cls-53" d="M472.08,812.84c-.83-1.2-2.46-2.28-12.24-2.07a44.56,44.56,0,0,0-6.3.32c-.58,0-9.32.76-11.89,3.49-.2.22-.39.47-.39.47-.95,1.24-2,3.31-1.3,4.25,1,1.36,4.73-1.07,11.73-2.2,4.76-.77,9.15-1.48,13.67.4,3.38,1.42,4.73,3.41,6.13,2.7C473.18,819.34,473.73,815.22,472.08,812.84Z" transform="translate(-323.85 -67.15)"/><path id="Lace-6" data-name="Lace" class="cls-54" d="M465.23,822.88c0-1.37-.54-3.08-7.4-8.25a38.75,38.75,0,0,0-4.51-3.19c-.42-.28-6.83-4.49-10-3.8a5.12,5.12,0,0,0-.51.15c-1.28.43-3,1.45-3,2.55,0,1.6,3.8,1.76,9.2,4.71,3.67,2,7.06,3.84,9.23,7.75,1.62,2.92,1.55,5.18,2.88,5.4C462.72,828.47,465.18,825.61,465.23,822.88Z" transform="translate(-323.85 -67.15)"/><path id="Lace-7" data-name="Lace" class="cls-55" d="M469.05,818.65c-.83-1.2-2.45-2.28-12.24-2.07a42.34,42.34,0,0,0-6.29.32c-.58,0-9.33.76-11.89,3.49-.21.22-.4.47-.4.47-.94,1.23-2,3.31-1.29,4.24,1,1.37,4.73-1.06,11.73-2.19,4.75-.77,9.15-1.48,13.66.4,3.38,1.41,4.73,3.4,6.14,2.69C470.15,825.15,470.71,821,469.05,818.65Z" transform="translate(-323.85 -67.15)"/><path id="Lace-8" data-name="Lace" class="cls-56" d="M464.57,823.45c-.84-1.2-2.46-2.28-12.25-2.07a44.48,44.48,0,0,0-6.29.32c-.58,0-9.33.76-11.89,3.49-.21.22-.4.47-.4.47-.94,1.23-2,3.31-1.29,4.24,1,1.37,4.73-1.06,11.73-2.19,4.75-.77,9.15-1.48,13.66.4,3.38,1.41,4.73,3.41,6.14,2.69C465.66,830,466.22,825.83,464.57,823.45Z" transform="translate(-323.85 -67.15)"/><path class="cls-57" d="M476.51,854.57c-3.44-10.57-13.92-24.69-19-28.8-7.94-6.4-21.55-6-35.09-5.43-11.89.51-16.08,1.68-27.19,15.91-9.32,11.93-14,17.9-12.14,23,4.47,12.48,41.52,9,54.36,7.85C456.36,865.38,479.5,863.81,476.51,854.57Z" transform="translate(-323.85 -67.15)"/></g><g id="Sole-2" data-name="Sole"><path class="cls-58" d="M492.42,837c2.44.14,1.68,15.43,1.68,23.67,0,3-2.13,5.91-3.47,5.86-.95,0-1.36-1.64-2.36-1.56-1.26.11-1.34,2.66-2.74,3s-2.34-2.23-4.11-2.12c-1.15.07-1.17,1.19-4.44,4.51a8,8,0,0,1-4.51,2.64,1.43,1.43,0,0,1-.58,0c-2.29-.42-4.91-1.93-5.17-3.71-.19-1.36,1.07-2.1,2.91-4.32,4.54-5.45,3.64-9,6.88-10.39,2.42-1.06,3.51-3.5,5.91-5.05C487.7,846.13,489.92,836.84,492.42,837Z" transform="translate(-323.85 -67.15)"/><path class="cls-59" d="M476.51,854.57a56.35,56.35,0,0,1,3.69,16.23c.09,1.33.32,5.65-1.27,6.29-1.18.47-2.5-1.45-3.91-.85s-.83,2.61-2.21,3.46c-1.66,1-3.26-1.42-6-.91s-3.39,3.47-5.35,3.19-2.38-3.31-3.91-3.19c-1.29.1-1.27,2.31-3.09,3-1.56.57-2.22-.81-4.52-.64s-2.54,1.69-4.53,1.7c-2.41,0-2.76-2.17-5.11-2.25s-3,2.28-5.52,2.28-2.72-2.15-5.11-2.28c-3.16-.18-4.11,3.49-6.92,3.21s-3.35-3.91-5.81-3.73c-2,.15-2.62,2.57-4.31,2.28-1.49-.25-1.56-2.25-3.06-2.49s-2.1,1.87-4.16,2.15c-2.26.31-2.81-2.07-5.48-2.15-2.49-.08-3,1.95-5.37,1.59-1.76-.28-2-1.5-3.83-1.7s-2.81,1.1-3.91,1c-4-.35-7.87-19.23-3.7-21.47,2.35-1.26,5.42,5.44,11.58,5.24s8.13-7.27,14.16-7.45c4-.12,4.64,3.11,10.41,6.34,7.55,4.22,15.16,3.75,23.45,3.23a65.19,65.19,0,0,0,18.12-3.85A67.94,67.94,0,0,0,476.51,854.57Z" transform="translate(-323.85 -67.15)"/></g><path class="cls-60" d="M471.64,808.7c1.49,1.89,4.4,1.48,9.47.69,7.22-1.11,10.83-1.67,12.68-4.53,3.16-4.87.8-13.65-3.05-14.85-1.81-.57-3.73.62-4.41,1-3.78,2.34-2.74,6-6,8.14s-5.78-.29-8,1.93C470.47,803,470.1,806.77,471.64,808.7Z" transform="translate(-323.85 -67.15)"/><path class="cls-61" d="M383.39,876.29a19,19,0,0,0,6.06.15c10.18-1.42,12.28-15.28,18.33-15,3.82.2,3.65,5.52,11.76,10.74a32.62,32.62,0,0,0,10.11,4.24c1.5.37,5.48,1.28,19.15,0,9.14-.86,13.82-1.33,18.87-3.11a51.83,51.83,0,0,0,12.14-6.21" transform="translate(-323.85 -67.15)"/><path class="cls-62" d="M479.2,863.67a35,35,0,0,0,6-.41,36.2,36.2,0,0,0,8.87-2.59" transform="translate(-323.85 -67.15)"/></g></g><g id="t-shirt_parisianItem" data-name="t-shirt parisianItem"><path class="cls-63" d="M410.76,346.62c-7.4,1-7.8,14.6-24.76,39.67-8.44,12.47-16.5,19.52-14,25.31,1.28,3,7.68,4.54,18.95,8.18,19.89,6.44,26.73,13.33,32.13,11.93C435,428.65,434.45,406,435,403.77,441.18,376.66,421.72,345.19,410.76,346.62Z" transform="translate(-323.85 -67.15)"/><path class="cls-64" d="M623.49,352.35c7.4,1,4.35,16.07,21.31,41.13,8.44,12.47,16.5,19.52,14,25.32-1.28,3-4.23,3.06-15.5,6.71-19.88,6.44-31.81,11.56-37.21,10.17-11.91-3.07-6.29-23.93-6.8-26.18C593.07,382.39,612.53,350.92,623.49,352.35Z" transform="translate(-323.85 -67.15)"/></g><g id="t-shirt_parisianItem-2" data-name="t-shirt parisianItem"><path class="cls-65" d="M483.11,329.58c.17.48-2.16.92-2.86,2.87-2.23,6.26,13.65,24.2,31.16,24.26,18.62.06,35.06-20.11,32.48-26.73-.55-1.4-1.79-1.78-1.61-2.22.93-2.28,32.36,9.32,63.79,19.6,4.21,1.38,21.4.85,19.12,5.65-6.63,14-6.53,23.69-8.66,27.9-5.24,10.33-3,25.25-7.67,67.68-5.87,53.09,8.56,62.81-2.69,79.05-11.75,16.94-35,9.36-108,10-78.27.64-103.51,9.77-113.38-6.44-8.54-14,5.12-24.36,15.06-87.93,6.61-42.21,9.91-63.31,7.68-72.32-1-4.08-3.67-11.83,1.35-22.3,2.47-5.17,13.52-2.27,17.79-3.33C456.34,337.9,482.5,327.85,483.11,329.58Z" transform="translate(-323.85 -67.15)"/></g><g id="jeans_parisianItem" data-name="jeans parisianItem"><path class="cls-66" d="M384.5,530.92a344.72,344.72,0,0,0-9.38,58.94c-1.91,27.07.15,40.9,2.8,48.53a88.23,88.23,0,0,0,15.53,26.8c25.83,30.73,66,32.62,90.37,35.54,13.91,1.66,26.77,3.08,43.31-.58,11-2.45,22.22-8.31,44.6-20,24.3-12.72,29.57-17.78,33.63-23.49,7.17-10.09,9.36-20.5,10.56-26.56,3-14.93,1.08-26.56-.69-37.8-9.91-62.87-6.64-65.2-11-65.52-29.22-2.19-98-.45-105.44-.57-.14,0-1.81,0-4.1,0-1.68,0-3,.08-9.19.17C444.41,527,410.26,529,384.5,530.92Z" transform="translate(-323.85 -67.15)"/><path class="cls-67" d="M497.48,618.53a279,279,0,0,1,1,83.52" transform="translate(-323.85 -67.15)"/><path class="cls-68" d="M505.1,527.39c2.84,4.08,1.19,13,.66,16.93-.23,1.75.41,14.79,1.69,40.87a179,179,0,0,1-.5,19.22c-.53,7.47-1.22,11.54-3.64,12.52-2.26.92-5-1.25-5.83-1.87-8.23-6.43-5.05-22.85-5.24-52.75-.15-22.21-2-33.63,2.75-35.6C497.87,525.53,502.94,524.3,505.1,527.39Z" transform="translate(-323.85 -67.15)"/><path class="cls-69" d="M499.68,539a86.94,86.94,0,0,1,1.24,18.62c-.44,10.53.23,18.9,1.55,35.65,1.11,14,2.81,24.46-1,26.2-.85.39-1.14,0-4.54,0-6.13.05-9.53,2.36-9.33.63.54-4.65-.59-8,.24-17.09.29-3.26,0-9.61-.67-22.31-.62-12.15.43-18.23-.33-23.95-2.32-17.43-8.28-30.53-1.79-30.33,2.7.08,5.52,0,9-.19C495.83,526.07,497.9,528.84,499.68,539Z" transform="translate(-323.85 -67.15)"/><path class="cls-70" d="M494,525.79c-2.08,1.31-4.22,4.13-3.73,7.36.66,4.35,5.51,5.79,6.1,6s4.56,1.28,7.46-1.4a8,8,0,0,0,1.58-9.26C503.23,524.32,497.51,523.57,494,525.79Z" transform="translate(-323.85 -67.15)"/><path class="cls-28" d="M377.79,568.37a20.53,20.53,0,0,0,7.87,5.24c10.23,3.66,23.18-1.91,33.07-13.67" transform="translate(-323.85 -67.15)"/><path class="cls-28" d="M378.81,561.77a14.73,14.73,0,0,0,7.69,4.32,15,15,0,0,0,11.42-2.62" transform="translate(-323.85 -67.15)"/><path class="cls-28" d="M571.93,558.58c1.47,2.12,8.31,11.49,20.9,13.85A32.08,32.08,0,0,0,612,570" transform="translate(-323.85 -67.15)"/><path class="cls-28" d="M391.38,537.41c-1.59,5.2-3.61,12.49-5.39,21.33-2.33,11.56-6.49,33-3.87,60.26a184.33,184.33,0,0,0,10,44.41" transform="translate(-323.85 -67.15)"/><path class="cls-71" d="M603.67,530.69c.11,2,.28,5.08.45,8.87.37,8.64.45,15,.47,16.31.26,15.11,3.79,34.76,5.66,57,.64,7.67,1.37,19,1.41,33" transform="translate(-323.85 -67.15)"/><path class="cls-72" d="M558.46,526.53c-1.85,2.66,4.09,7.64,2.22,13.08-.62,1.81-1.88,3-1.33,3.9s2.48,1,3.78.23c1.91-1.1,2.19-3.84,2.44-6.66.34-3.83.85-9.62-2.22-11.24C561.85,525.06,559.39,525.19,558.46,526.53Z" transform="translate(-323.85 -67.15)"/><path class="cls-73" d="M606,526.75c.57-.46,4.2,2,5.9,5.94s1.55,9.51-1.42,12c-1.42,1.2-3.46,1.66-3.91,1.08-.55-.74,1.84-2.46,2.44-6,.33-1.92,0-3.42-.66-6C607.16,529.18,605.5,527.11,606,526.75Z" transform="translate(-323.85 -67.15)"/><path class="cls-74" d="M388,530.43c-1.3,2.92-3.86,9.51-2.41,14.94.32,1.2.84,3.16,2.41,3.74a2.87,2.87,0,0,0,3.31-.93c.8-1.4-.77-3.46-1.8-5.61-1.2-2.47-2.27-6.31-1.51-12.14" transform="translate(-323.85 -67.15)"/><path class="cls-75" d="M444.38,526.53c-1.85,2.66,4.1,7.64,2.23,13.08-.63,1.81-1.88,3-1.34,3.9s2.48,1,3.78.23c1.91-1.1,2.19-3.84,2.44-6.66.34-3.83.86-9.62-2.22-11.24C447.78,525.06,445.31,525.19,444.38,526.53Z" transform="translate(-323.85 -67.15)"/></g><g id="stachel_parisianItem" data-name="stachel parisianItem"><path class="cls-76" d="M568.19,363.74a30.9,30.9,0,0,1,9,4c7.09,4.28,8.68,1.91,10.07,4.86,1,2,0,3.93-2.31,9.45-6.21,15.06-5.74,17.61-8.68,18.73s-4.91-.35-12.09-4.54c-7-4.1-8.43-4.71-8.64-8.19-.23-3.65,2.89-4,6.34-11.14,2.87-5.94,2.39-12.64,5.45-13.39C567.68,363.44,566.83,363.39,568.19,363.74Z" transform="translate(-323.85 -67.15)"/><path class="cls-77" d="M438.85,463.21c-11-.1-19.68-.09-25.39-.08-7.21,0-15.8.09-16.74-3.11-.41-1.41.75-3.16.59-3.23s-1.91,2.78-3.2,6.38-3.82,10.72-.92,14c1.28,1.45,3.1,1.55,6.3,1.72,5.55.31,11.1.69,16.66.93,12.05.51,21.89,2.65,27.93,0,1.79-.77-2.42-1.39-1.24-4.48C444.23,471.77,442.62,467.05,438.85,463.21Z" transform="translate(-323.85 -67.15)"/><path class="cls-78" d="M397.08,460.71a43,43,0,0,1-.62,5.12c-.59,3-1.17,4-1.43,6.15a16.51,16.51,0,0,0,.46,6.22" transform="translate(-323.85 -67.15)"/><path class="cls-78" d="M400.4,462.23a43,43,0,0,1-.62,5.12c-.59,3-1.17,4-1.43,6.16a11.53,11.53,0,0,0,.25,5.34" transform="translate(-323.85 -67.15)"/><path class="cls-78" d="M403.52,462.67a43,43,0,0,1-.62,5.12c-.58,3-1.17,4-1.43,6.16a11.57,11.57,0,0,0,.26,5.34" transform="translate(-323.85 -67.15)"/><path class="cls-78" d="M406.56,462.71a41,41,0,0,1-.62,5.12c-.58,3-1.16,4.05-1.43,6.16a11.57,11.57,0,0,0,.26,5.34" transform="translate(-323.85 -67.15)"/><path class="cls-78" d="M409.65,463.08a43,43,0,0,1-.62,5.12c-.59,3-1.17,4.05-1.43,6.15a11.57,11.57,0,0,0,.25,5.35" transform="translate(-323.85 -67.15)"/><path class="cls-78" d="M411.88,463a42.61,42.61,0,0,1-.62,5.11c-.59,3-1.17,4-1.43,6.16a11.49,11.49,0,0,0,.25,5.33" transform="translate(-323.85 -67.15)"/><path class="cls-78" d="M415.2,462.78a43,43,0,0,1-.62,5.12c-.59,3-1.17,4.05-1.43,6.16a11.53,11.53,0,0,0,.25,5.34" transform="translate(-323.85 -67.15)"/><path class="cls-78" d="M418.32,463.22a43,43,0,0,1-.62,5.12c-.59,3-1.17,4-1.43,6.15a11.58,11.58,0,0,0,.25,5.35" transform="translate(-323.85 -67.15)"/><path class="cls-78" d="M421.36,463.26a42.61,42.61,0,0,1-.62,5.11c-.58,3-1.17,4.05-1.43,6.16a11.61,11.61,0,0,0,.26,5.35" transform="translate(-323.85 -67.15)"/><path class="cls-78" d="M424.44,462.76a42.54,42.54,0,0,1-.61,5.12c-.59,3-1.17,4.05-1.43,6.15a16.51,16.51,0,0,0,.45,6.23" transform="translate(-323.85 -67.15)"/><path class="cls-78" d="M426.69,463.2a42.61,42.61,0,0,1-.62,5.11c-.58,3-1.17,4.05-1.43,6.16a15.52,15.52,0,0,0,.46,6" transform="translate(-323.85 -67.15)"/><path class="cls-78" d="M429.81,462.77a40.62,40.62,0,0,1-.62,5.11c-.58,3-1.16,4.05-1.43,6.16a19.69,19.69,0,0,0,.56,6.68" transform="translate(-323.85 -67.15)"/><path class="cls-78" d="M432.85,462.81a42.42,42.42,0,0,1-.61,5.11c-.59,3-1.17,4.05-1.43,6.16a20.92,20.92,0,0,0,.49,7.06" transform="translate(-323.85 -67.15)"/><path class="cls-78" d="M435.94,463.17a43,43,0,0,1-.62,5.12c-.59,3-1.17,4-1.43,6.16a18.11,18.11,0,0,0,.33,6.65" transform="translate(-323.85 -67.15)"/><path class="cls-78" d="M439.18,463.42a41,41,0,0,1-.62,5.12c-.58,3-1.16,4-1.43,6.16a18.05,18.05,0,0,0,.58,6.4" transform="translate(-323.85 -67.15)"/><path class="cls-78" d="M579.93,395.09q-4.09-2.67-8.56-5.33c-4-2.4-8-4.57-11.75-6.56" transform="translate(-323.85 -67.15)"/><path class="cls-78" d="M581.17,391.68c-1.09-.82-2.58-1.92-4.4-3.14a91.68,91.68,0,0,0-8.93-5.34c-1.57-.81-3.63-1.81-6.11-2.83" transform="translate(-323.85 -67.15)"/><path class="cls-78" d="M582.43,388.86c-1.08-.83-2.57-1.92-4.39-3.14a91.68,91.68,0,0,0-8.93-5.34c-1.57-.81-3.63-1.81-6.11-2.84" transform="translate(-323.85 -67.15)"/><path class="cls-78" d="M583.26,385.56c-1.09-.83-2.58-1.92-4.39-3.14a89.48,89.48,0,0,0-8.93-5.34c-1.57-.81-4.46-2.07-6.94-3.09" transform="translate(-323.85 -67.15)"/><path class="cls-78" d="M584.53,382.33c-1.09-.82-2.58-1.91-4.4-3.13a89.27,89.27,0,0,0-8.93-5.35c-1.57-.81-4.8-2.16-7.28-3.19" transform="translate(-323.85 -67.15)"/><path class="cls-78" d="M586.16,379.9c-1.09-.82-2.58-1.92-4.4-3.14a91.68,91.68,0,0,0-8.93-5.34c-1.57-.81-5.77-2.47-8.25-3.5" transform="translate(-323.85 -67.15)"/><path class="cls-78" d="M586.87,376.68c-1.08-.83-2.58-1.92-4.39-3.14a91.68,91.68,0,0,0-8.93-5.34c-1.57-.81-4.83-2.18-7.31-3.21" transform="translate(-323.85 -67.15)"/><path class="cls-79" d="M439.69,459.74c-3.74,3.19-5.47,9.7-3.44,14.81s7.06,7,10.78,8.38c6.37,2.37,9.57,1,15.6,1.7,7.18.78,9.65,3.44,22.94,10.66,13.46,7.31,20.18,11,23.64,11.46,11.87,1.69,22-5.66,42.32-20.35,12.52-9,18.85-13.74,22.37-21.33a52.52,52.52,0,0,0,3.44-30.81c-1.64-8.42-4.52-11-4-19,.54-8.47,4.11-9.69,4.33-16.79.34-10.83-7.52-22.83-14.16-22.77-5.66.05-9.51,8.83-12.54,14.68-19.11,36.79-66.55,73.72-94.64,68.14C452.63,457.82,444.72,455.45,439.69,459.74Z" transform="translate(-323.85 -67.15)"/><path class="cls-28" d="M466.34,460.15c3.25,2.59,7.09,4.29,10.48,6.7,6.76,4.8,29.4-2.39,50.11-18.33,9-6.89,25-19.21,24.83-31.15,0-1.54-.15-15.16-1.89-19.93a11.28,11.28,0,0,1-.61-3.89c0-.43,1.82-3,3.1-3.35,1.09-.29.9.88.9,1.2,0,3,1.39,5.82,1.32,6.62-.67,7.79,2.47,10.08,1.89,17.92-.64,8.46-2.26,14-5.24,18.16-2.69,3.79-6,10.89-16,19.12-7,5.78-12.3,8.7-16.61,11.61a61.6,61.6,0,0,1-21.34,9.56c-8.17,1.9-14.79-1.61-17.4-2.16a41,41,0,0,1-9.61-3.51c-5.7-2.91-7-5.23-7.54-6.62s-1.3-2.49-.57-3S465.11,459.16,466.34,460.15Z" transform="translate(-323.85 -67.15)"/><path class="cls-28" d="M462.2,459.12a28.65,28.65,0,0,0,5.08,5.07,29.64,29.64,0,0,0,12.1,5.46,38,38,0,0,0,19.59-.88,41.88,41.88,0,0,0,12.32-6" transform="translate(-323.85 -67.15)"/><g id="phone"><rect id="screen" class="cls-80" x="487.07" y="398.03" width="49.22" height="98.59" rx="24.61" transform="translate(-450.26 146.17) rotate(-21.02)"/><path id="phoneBorder" class="cls-81" d="M544,487.72s8.35-3.21,5.14-11.58l-28.94-75.29c-3.21-8.37-11.57-5.16-11.57-5.16l-29.23,11.24s-8.36,3.21-5.14,11.57l28.94,75.3c3.21,8.36,11.56,5.15,11.56,5.15Zm-16,2.13a4.47,4.47,0,1,1,2.57-5.78A4.48,4.48,0,0,1,528,489.85Zm-38.33-81c-.2-.52-.11-1,.2-1.14l11.42-4.39c.31-.12.71.2.91.71l.1.25c.19.51.1,1-.21,1.13l-11.41,4.39c-.31.12-.72-.2-.91-.71ZM479.21,419l37.59-14.44,25.68,66.82L504.89,485.8Z" transform="translate(-323.85 -67.15)"/></g><path class="cls-82" d="M489.13,489.74C493,493.63,499.41,500,510,503.16c3.69,1.11,7.47,2.24,12.33,1.83,8-.66,11.22-4.91,26.06-16.28S566,477,570.93,470c3.36-4.72,8-11.28,6.85-18.78-.4-2.55-2.13-6.18-5.6-13.45a90,90,0,0,0-4.33-8.66c-3.09-4.83-3.42-3.91-6.11-8.45-2.91-4.91-8.48-30.57-9.38-30.45-1.16.16,2.89,24,1.66,30.19-1.45,7.28-5.92,12.31-9.41,17.42-9.83,14.39-23.05,21.71-29.63,25.25-11.36,6.13-20.47,11.05-30.35,8.26-4.43-1.25-12.88-5.58-13.92-4.46C468.93,468.78,482.68,483.24,489.13,489.74Z" transform="translate(-323.85 -67.15)"/><path class="cls-28" d="M470.71,466.86c1.89.75,8.58,5.48,11.87,6.2a42.3,42.3,0,0,0,17.64.58c4.59-.91,7.84-2.67,14.32-6.2a118.83,118.83,0,0,0,14-9.1,86.75,86.75,0,0,0,10.5-8.46,48.76,48.76,0,0,0,7.86-9.16c.9-1.4,2.29-4.3,5-10.05,3.31-7,3.64-8,3.89-8.93,1.09-4.12-3-28.5-3.44-31.54" transform="translate(-323.85 -67.15)"/><path class="cls-83" d="M466,469.66c-.23.11.28,1.49.67,3,.7,2.71,1.45,5.6.2,7.58-.44.69-1.06,1.18-.9,1.5s.8.08,2.08.07c1.86,0,2.3.42,2.84.07s.59-1.57.55-3.36c-.13-5.39.28-7.18-.59-7.54s-1.36.93-2.59.68C466.85,471.37,466.23,469.53,466,469.66Z" transform="translate(-323.85 -67.15)"/><path class="cls-84" d="M464.28,460.62c-.15.18-.53.7.21,4.11.71,3.22,1.08,4.86,2.47,6.21.25.25,2.07,2,3.16,1.43s.82-2.78.59-5.51c-.27-3.1-.4-4.65-1.58-5.71C467.71,459.87,465.21,459.55,464.28,460.62Z" transform="translate(-323.85 -67.15)"/><path class="cls-85" d="M467.21,461.78c-.32-.13-1.16-.46-1.62-.06s-.16,1.76-.06,2.08a2.57,2.57,0,0,0,1,1.45,1.82,1.82,0,0,0,2.11.06c.63-.62.25-1.88-.16-2.52A2.58,2.58,0,0,0,467.21,461.78Z" transform="translate(-323.85 -67.15)"/><path class="cls-86" d="M466.56,467.32c-.45,1,.78,2.36,1.08,2.69.5.54,1,1.08,1.41.95.62-.19,1-1.8.38-2.91s-1.8-1.58-2.49-1.18A1,1,0,0,0,466.56,467.32Z" transform="translate(-323.85 -67.15)"/><path class="cls-87" d="M569.84,344.52c-1,.19-1.48,2.18-1.9,4.05-.46,2-1,4.41.36,5.95a3,3,0,0,0,2.67,1.09c1.76-.38,2.54-3.08,2.57-4.85C573.61,347.52,571.26,344.27,569.84,344.52Z" transform="translate(-323.85 -67.15)"/><path class="cls-88" d="M597,352.8c.74.76,0,2.65-.7,4.43-.76,1.94-1.65,4.2-3.61,4.66a3,3,0,0,1-2.79-.7c-1.23-1.35-.36-4,.59-5.49C592.23,353,596,351.74,597,352.8Z" transform="translate(-323.85 -67.15)"/><path class="cls-89" d="M573.68,336.49c-2.46,1.73-4.65,5.5-3.84,8a16.32,16.32,0,0,1,1.26,3.19,7.3,7.3,0,0,1,0,3.46c-.53,1.8-1.63,1.68-3.08,3.71-.68,1-1.2,2.87-2.25,6.69a15.25,15.25,0,0,0-.67,3.3c-.08.77,2.2,1.81,2.55,1.11.65-1.29.35-3.08,1.15-3.9,1.16-1.17,4.18.94,9.41,3.14,5.95,2.5,8.73,2.58,9.6,5.06.36,1-.35,2-.6,3.38-.14.83,2,2.07,2.43,1.56.72-.94.63-1.73,1.17-3.84,1.35-5.29,3-5.61,2.89-8.77-.05-1.62-.5-1.84-.54-4.18,0-1.91,0-3.58.94-4.37s2,.24,3.4-.5c1.86-1,2.15-3.93,2.24-4.84A9.7,9.7,0,0,0,599,344c-.79-1.67-2.48-3.62-10-5.93C580.82,335.57,576.76,334.33,573.68,336.49Z" transform="translate(-323.85 -67.15)"/></g></svg>