<svg xmlns="http://www.w3.org/2000/svg" viewBox="0 0 444.01 991"><defs><style>.cls-1,.cls-3{fill:#fff;}.cls-1,.cls-2,.cls-4,.cls-5,.cls-6,.cls-7,.cls-8{stroke:#000;stroke-miterlimit:10;}.cls-2,.cls-4,.cls-5,.cls-6,.cls-7,.cls-8{fill:none;}.cls-4,.cls-5,.cls-6,.cls-7,.cls-8{stroke-width:0.5px;}.cls-5{stroke-dasharray:2 4;}.cls-6{stroke-dasharray:1.99 3.99;}.cls-7{stroke-dasharray:2 4;}.cls-8{stroke-dasharray:2.01 4.01;}</style></defs><title>Fichier 1</title><g id="Calque_2" data-name="Calque 2"><g id="Character"><g id="Body_BaseFace" data-name="Body BaseFace"><path id="Body_Neck" data-name="Body Neck" class="cls-1" d="M194.46,276.44c-1.86,3.69-.82,10.28,1.27,23.46,2.33,14.69,3.49,22,7.17,25.86,9.58,10,31.68,10.65,43.14.46,6.86-6.1,8-14.36,9.61-26.77s2.78-21-2.06-27.44C242,256.58,202.29,260.83,194.46,276.44Z"/><path id="_Tracé_" data-name="&lt;Tracé&gt;" class="cls-1" d="M123.68,165.17c-.13,19.07,1.71,17.52,2.16,47.68.43,29.08-1.26,31.73,2.16,39.39,8.16,18.26,28.22,26.47,49.65,35.24,10.54,4.31,26.51,10.69,48.78,11.84a134.21,134.21,0,0,0,62.4-11.84c15-6.92,27.66-12.74,34.54-25.91,3.66-7,4.36-13.51,2.16-43.54-1.78-24.36-3.2-33.12-4.32-46.64-3.67-44.53,3.45-49.38-2.15-64.27-11.65-30.93-40.78-47.85-54.34-51.82-9.29-2.72-30.12-8.84-45-7.26a135.28,135.28,0,0,0-47.5,13.48c-25.72,12.62-31,28.26-36.7,35.24C124.05,110.93,123.93,129,123.68,165.17Z"/><path class="cls-1" d="M223.75,217.31c-3.54-1.17-9.7-4.41-9.8-8.74-.15-6.15,11.94-13.8,21.7-10.76,6,1.87,11.57,7.91,10.51,12.77C244.78,216.87,232.56,220.23,223.75,217.31Z"/></g><g id="MortifiedFace"><ellipse class="cls-1" cx="271.74" cy="173.64" rx="20.38" ry="19.57"/><ellipse class="cls-1" cx="181.4" cy="172.06" rx="20.38" ry="19.57"/><ellipse class="cls-1" cx="186.93" cy="172.06" rx="12.95" ry="12.43"/><ellipse class="cls-1" cx="264.32" cy="173.64" rx="12.95" ry="12.43"/><path class="cls-2" d="M177.52,248.73a23,23,0,0,1,11.89-2.47c5,.41,6.18,2.4,13.82,4.63,5.41,1.58,9.71,2.83,14.78,1.85,4.38-.84,4.22-2.37,10.93-4.94,4.78-1.82,9.07-3.47,14.14-3.08,5.27.4,5.27,2.54,15.1,5.86,6.94,2.35,10.94,3.64,14.46,1.85,3-1.53,2.94-3.93,6.43-5.86a14.9,14.9,0,0,1,9.64-1.23"/><path class="cls-2" d="M168.13,242.16a8.78,8.78,0,0,0-.5,9.24,9.58,9.58,0,0,0,6.07,4.37"/><path class="cls-2" d="M297.69,242.16a8.78,8.78,0,0,1,.51,9.24,9.59,9.59,0,0,1-6.08,4.37"/></g><g id="Cap"><path class="cls-1" d="M202.14,11c1.38,1.78,5.65-1.37,14.84-1.15,5.63.13,8.47,1.42,9.26.17.95-1.53-2-5.4-5.45-7.44s-8.93-3.33-13.56-.52C203.39,4.43,200.8,9.29,202.14,11Z"/><path class="cls-1" d="M114.36,124.49c2.76-22.79.4-56.75,19.46-78.93C160.51,14.51,199,11.17,209.53,10.25c7.13-.62,52.14-3.84,88.68,27,20,16.86,31.57,47.35,34.61,68.55,2.36,16.46-51.17-10-111.06-6.24C139.46,104.75,111.76,145.88,114.36,124.49Z"/><path class="cls-1" d="M114.36,124.49c-.24,4.17-.17,1.82-.8,12.7-.65,11.08,2.61,25.61,6.79,31.22,3.36,4.5,5.52,5.23,10.24,5.23,10.71,0,15-4.69,29.47-13.46,2.46-1.49,33.1-22.74,71.95-16.14,24.61,4.18,38.88,13.88,68.6,17.94s36.74.78,39.35-1.8c7.3-7.18,5.64-19.74,4.69-27a64.14,64.14,0,0,0-11.83-27.39C307.08,72.73,228.76,79.14,218.16,80.11,166.26,84.83,115.45,105.18,114.36,124.49Z"/></g><g id="Body_Legs" data-name="Body Legs"><path id="_Tracé_2" data-name="&lt;Tracé&gt;" class="cls-1" d="M265,828.08c4.74,9.17-.53,11.22,1.41,38,.53,7.31,1.19,10.85-1.41,14.25-4.9,6.4-16.8,6.38-24,4.75-4-.9-9.35-1.5-12-5.43s-1.34-8.46-.7-11.53c4.34-21-7.89-28.77-.71-44.12,1.35-2.88,4.93-10.54,12-12.21C248.9,809.59,260.19,818.75,265,828.08Z"/><path id="_Tracé_3" data-name="&lt;Tracé&gt;" class="cls-1" d="M158.26,828.08c-4.73,9.17.53,11.22-1.41,38-.53,7.31-1.19,10.85,1.41,14.25,4.9,6.4,16.8,6.38,24,4.75,4.05-.9,9.35-1.5,12-5.43s1.34-8.46.71-11.53c-4.35-21,7.88-28.77.7-44.12-1.34-2.88-4.93-10.54-12-12.21C174.38,809.59,163.09,818.75,158.26,828.08Z"/></g><g id="Body_Hands" data-name="Body Hands"><g id="LeftHand"><path class="cls-1" d="M10,671.12C4.75,674,8.1,686.93,10,692.19c1.37,3.76,3.63,9.72,8.68,11,.24.05,3.82.89,5.49-.88s-.32-5-1.37-10.53c-1.75-9.24,1.91-12-.92-16.24C19.33,671.68,13.25,669.37,10,671.12Z"/><path class="cls-1" d="M18.85,676.07c-5.26,3.36-1.91,18.64,0,24.83,1.37,4.44,3.63,11.46,8.68,12.93.24.07,3.82,1.06,5.49-1s-.32-5.87-1.37-12.42c-1.75-10.89,1.91-14.15-.92-19.14C28.17,676.73,22.09,674,18.85,676.07Z"/><path class="cls-1" d="M31.37,679.65c-5.26,3.35-1.91,18.63,0,24.82,1.37,4.45,3.63,11.46,8.68,12.94.23.06,3.82,1.06,5.49-1s-.32-5.87-1.38-12.41c-1.75-10.9,1.92-14.16-.91-19.14C40.69,680.3,34.61,677.58,31.37,679.65Z"/><path class="cls-1" d="M46.09,683.68c-1.27,2.05,1.09,3.44,2.18,9.94s-.58,8.7,1.64,13.87c.82,1.92,1.9,4.34,4.08,4.71s4.44-1.86,4.91-2.35c2.21-2.35,2.45-5,2.72-14.92.25-8.93.14-9.88-.81-11C57.33,679.91,48.2,680.29,46.09,683.68Z"/></g><g id="RightHand"><path class="cls-1" d="M432.29,668.82c5.26,2.84,1.91,15.81,0,21.06-1.37,3.77-3.63,9.72-8.68,11-.24.06-3.82.9-5.49-.88s.32-5,1.37-10.53c1.75-9.24-1.91-12,.92-16.23C423,669.38,429.05,667.07,432.29,668.82Z"/><path class="cls-1" d="M423.45,673.77c5.26,3.35,1.91,18.64,0,24.83-1.37,4.44-3.63,11.45-8.68,12.93-.23.06-3.82,1.06-5.49-1s.32-5.87,1.37-12.41c1.76-10.89-1.91-14.16.92-19.14C414.13,674.42,420.21,671.7,423.45,673.77Z"/><path class="cls-1" d="M410.93,677.34c5.26,3.36,1.91,18.64,0,24.83-1.37,4.44-3.63,11.46-8.68,12.93-.23.07-3.82,1.06-5.48-1-1.78-2.24.31-5.87,1.37-12.42,1.75-10.89-1.92-14.15.91-19.14C401.61,678,407.69,675.28,410.93,677.34Z"/><path class="cls-1" d="M396.21,681.38c1.27,2-1.09,3.44-2.18,9.94s.58,8.7-1.64,13.87c-.82,1.91-1.9,4.34-4.08,4.71s-4.44-1.87-4.91-2.36c-2.21-2.34-2.45-5-2.72-14.91-.25-8.93-.14-9.88.82-11C385,677.61,394.1,678,396.21,681.38Z"/></g></g><g id="Sweater"><path class="cls-1" d="M124.2,366.21c-9.72-4.63-26.9,18.56-31.8,24.14C57.15,430.5,59.52,465.87,43,532.28,22.86,613.45-12.85,666.68,5.66,680.46c2.43,1.81,10.29,3.29,26,6.24,21.45,4,32.18,6,37.36,4.68C89.18,686,88.58,642.6,98.25,572.84,109,495.63,121,430.9,121,430.9,127.59,395.39,133.07,370.42,124.2,366.21Z"/><path class="cls-1" d="M319.81,366.21c9.73-4.63,30.8,18.56,35.7,24.14,35.25,40.15,29,75.52,45.48,141.93,20.16,81.17,55.87,134.4,37.36,148.18-2.43,1.81-10.29,3.29-26,6.24-21.45,4-32.18,6-37.36,4.68-20.17-5.34-19.57-48.78-29.24-118.54C335.06,495.63,323,430.9,323,430.9,316.42,395.39,311,370.42,319.81,366.21Z"/><path class="cls-1" d="M119.73,362.73c-31.37,30.81-8.79,51.4-39.17,166.15-23.16,87.48-28,144.18-4,176.2,10.76,14.34,27.53,21.38,58.77,34.49,23.85,10,47.39,19.89,78.35,18.81,27.47-1,27.14,1.19,58.84-13.84,35.7-16.92,53.55-25.38,65.3-40.76,23.66-31,4.8-92.89-2.6-156.09-14-119.62,26.47-148.4-3.27-185C291.51,313,172.06,311.35,119.73,362.73Z"/><path class="cls-1" d="M194.83,299.9c1.47.26.41,4.59,2.3,8.4,7,14.12,50.43,13,55.31.89,1.42-3.53,1.8-7.72,4.63-9.7,2.4-1.68,4.36-.7,6.89,1.29,5,3.93,4.46,12.69,2.31,18.15-3.95,10-15.26,14-22.13,16.37-3.93,1.37-30.47,10.64-46.55-3.1-2.18-1.87-9-8.24-9.21-17.26C188.15,307.18,192.81,299.53,194.83,299.9Z"/></g><g id="Jumpsuit"><path class="cls-1" d="M155.29,739.6a228.06,228.06,0,0,1-2.6,61.21c-3,16.38-7.36,29.58,0,36.22,5.33,4.8,15.81,5.27,22.11,1.25,7.91-5,8.27-16.52,10.41-16.24,2.42.32-.48,14.66,6.52,18.8,3.28,1.94,8.33,1.4,11.39-.84,6.91-5.08,2.64-18.24.87-32.81-4.55-37.51,11.42-51.46,1.76-63.1C200.56,737.83,188.19,732.5,155.29,739.6Z"/><path class="cls-1" d="M217.23,739.42c7.38,46.21,5.48,67.53,1.75,78.25-.8,2.3-3.65,9.76,0,15.14,1.34,2,9.83,4.46,24.88,7.61,12.76,2.67,19.19,4,21.9,2.1,4.67-3.2,3.47-10.17,2.19-29-.82-12.15-1.89-27.85-1.75-41.65.24-24.15,4.05-30.37-.88-35.34C260.89,732.05,244.37,729.16,217.23,739.42Z"/><path class="cls-1" d="M335.86,547.69c-14-119.61,26.47-148.4-3.26-185-8-9.82-19.07-17.73-32.09-23.76,7.64,14.12,4.11,22.9-.15,44.75-.85,4.37-7.87,25-19.41,30.09-15.95,7-39.2,6.68-64.7,4.17-39-3.84-48.81-.51-60.67-12.38-5.05-5-5.48-11.65-6.3-24.19-1-14.84,1.92-32.09,8.22-42.66-14.19,6-26.93,14-37.11,24-31.38,30.81-8.8,51.4-39.18,166.15-23.16,87.48-28,144.18-4,176.2C88,719.42,104.74,726.46,136,739.57c23.85,10,47.4,19.89,78.36,18.81,27.46-1,27.14,1.19,58.84-13.84,35.7-16.92,53.55-25.38,65.29-40.76C362.12,672.82,343.26,610.89,335.86,547.69Z"/><path class="cls-3" d="M327.36,548.69c-13.16-112.41,24.87-139.46-3.07-173.82-7.5-9.22-17.92-16.65-30.15-22.32,7.17,13.27,3.86,21.52-.14,42.05-.8,4.1-7.4,23.54-18.24,28.27-15,6.55-36.84,6.29-60.81,3.93-36.63-3.61-45.86-.48-57-11.64-4.74-4.74-5.15-11-5.92-22.74-.91-13.94,1.81-30.14,7.73-40.08-13.33,5.66-25.31,13.14-34.87,22.53C95.39,403.82,116.61,423.18,88.06,531,66.3,613.22,61.72,666.5,84.3,696.59c10.11,13.47,25.87,20.08,55.22,32.4,22.41,9.41,44.54,18.69,73.63,17.68,25.81-.9,25.5,1.11,55.3-13,33.54-15.9,50.32-23.85,61.35-38.29C352,666.27,334.31,608.07,327.36,548.69Z"/><path class="cls-4" d="M295,353l-.9-.42.46.88"/><path class="cls-5" d="M296.26,357.08c4.26,10.86,1.26,19.42-2.26,37.52-.8,4.1-7.4,23.54-18.24,28.27-15,6.55-36.84,6.29-60.81,3.93-36.63-3.61-45.86-.48-57-11.64-4.74-4.74-5.15-11-5.92-22.74-.84-12.77,1.38-27.44,6.3-37.45"/><path class="cls-4" d="M159.25,353.21c.16-.3.33-.58.5-.87l-.92.4"/><path class="cls-6" d="M155.19,354.37a108.66,108.66,0,0,0-30.31,20.5C95.39,403.82,116.61,423.18,88.06,531,66.3,613.22,61.72,666.5,84.3,696.59c10.11,13.47,25.87,20.08,55.22,32.4,22.41,9.41,44.54,18.69,73.63,17.68,25.81-.9,25.5,1.11,55.3-13,33.54-15.9,50.32-23.85,61.35-38.29,22.23-29.1,4.51-87.3-2.44-146.68-13.16-112.41,24.87-139.46-3.07-173.82-6.94-8.53-16.39-15.54-27.45-21"/><path class="cls-1" d="M161.4,338.75c-7.86-5.44-37.42,13.13-49.58,39.32a69.37,69.37,0,0,0-6.06,23c-1,9.32-2.9,28,9.21,41.53,2.37,2.65,10,11.22,20.59,10.85,7.3-.25,12.7-4.64,16.27-7.55a36.2,36.2,0,0,0,11-15.12c1.35-3.62,2.48-8.59,1.05-22.17-1.23-11.59-3.16-18.37-4.2-23.68C154.35,357.59,167.52,343,161.4,338.75Z"/><path id="_Tracé_4" data-name="&lt;Tracé&gt;" class="cls-7" d="M126.07,360.41a102.81,102.81,0,0,0-10.88,26.34c-3.88,15.12-3,26.34-2.82,28.77,1,11.3,4,16.76,4.87,18.26,2.2,3.79,5.35,9.21,11.64,11.4,10.74,3.75,20.92-5.33,21.55-5.92a26.19,26.19,0,0,0,7.92-15.83c.6-4.5-.37-6.16-2.77-17.83-1.92-9.32-3.1-15-3.66-22.06a114.62,114.62,0,0,1,.34-20.69A137.49,137.49,0,0,1,155.79,342"/><ellipse class="cls-1" cx="134.8" cy="434.78" rx="12.34" ry="11.85"/><path class="cls-1" d="M291.7,337.05c-5.31,3.5,3.73,14.22,1.79,35.37-2.13,23.22-14.5,26.27-16.2,51.64-.62,9.1-1.34,22.8,8.1,30.42,6.91,5.57,15.8,5.09,17.68,4.95,12.47-1,20-10.57,22.59-13.87,8.33-10.61,8.71-21.95,9.09-42,.36-19.13.54-28.7-4.13-38.3C321.17,345.81,298.6,332.51,291.7,337.05Z"/><path class="cls-7" d="M295.56,338.44A74.5,74.5,0,0,1,299.24,378c-1.2,6.37-1.88,5-9.34,25.17-5.47,14.84-6.54,19.5-6.78,24.89-.52,11.39,1.13,15.35,2,16.68,4.64,7.29,13.49,8.38,14.42,8.48,11,1.19,19.73-7.67,23.47-14.14,3.39-5.86,3.82-11.84,4.24-17.81.4-5.63-.4-5.82-.56-15.27-.13-7.41.35-8,.56-20.08.22-12.45-.23-15.09-.56-16.68a43.33,43.33,0,0,0-5.94-14.43"/><ellipse class="cls-1" cx="305.31" cy="440.08" rx="12.34" ry="11.85"/><path class="cls-1" d="M136,507.46c-1.77,15.84-1.88,33,2,61.62,1.27,9.24,1.93,13.89,3.06,15.65,8.74,13.52,30.34,9.17,72.32,11.74,48,2.93,61.22,11.17,72.32,1,5.94-5.46,4.1-9.61,10.18-41.08,7-36.28,12.78-47.88,7.13-51.83s-15,5.9-36.67,12.71c-2.82.89-30.07,9.19-58.06,3.91-38.5-7.26-57.57-36.32-68.24-29.34C139,492.52,137.49,493.92,136,507.46Z"/><path class="cls-3" d="M144,519.17c-1.57,12.3-1.67,25.67,1.81,47.86,1.12,7.17,1.71,10.79,2.72,12.15,7.76,10.5,26.95,7.12,64.25,9.12,42.63,2.28,54.39,8.67,64.25.75,5.28-4.24,3.64-7.46,9.05-31.9C292.27,529,297.4,520,292.37,516.9s-13.37,4.58-32.57,9.87c-2.51.69-26.73,7.14-51.59,3C174,524.17,157.06,501.6,147.58,507,146.61,507.57,145.3,508.66,144,519.17Z"/><path class="cls-8" d="M144,519.17c-1.57,12.3-1.67,25.67,1.81,47.86,1.12,7.17,1.71,10.79,2.72,12.15,7.76,10.5,26.95,7.12,64.25,9.12,42.63,2.28,54.39,8.67,64.25.75,5.28-4.24,3.64-7.46,9.05-31.9C292.27,529,297.4,520,292.37,516.9s-13.37,4.58-32.57,9.87c-2.51.69-26.73,7.14-51.59,3C174,524.17,157.06,501.6,147.58,507,146.61,507.57,145.3,508.66,144,519.17Z"/><path class="cls-7" d="M183.24,763.61a115.06,115.06,0,0,1,1.21,45"/><path class="cls-7" d="M233.56,761.33a121.18,121.18,0,0,1,1.83,18.47,125.94,125.94,0,0,1-9.93,51.29"/></g><g id="Shoes"><g id="LeftShoe"><g id="Sole"><path class="cls-1" d="M3.43,945.67c-3.17,6.17-4.42,16.24,0,24.72,4.19,8.05,11.73,11.67,19.31,14.68,5.32,2.11,24.37,9,56.31,3.09,35-6.47,30.45-19.63,61.14-25.49,26.44-5.06,50,.12,57.12-12.36,2.12-3.73,3.15-9.66,3.22-10,1.71-10.19-1.26-19-2.66-21.61-7.86-14.91-52.41-.5-131.69,7.71C35.3,929.55,11.2,930.56,3.43,945.67Z"/><path class="cls-2" d="M10.94,958.58a44.28,44.28,0,0,0,.79,9.84,48,48,0,0,0,4.69,13.23"/><path class="cls-2" d="M25.48,964.12a45.32,45.32,0,0,0,.79,10A48.93,48.93,0,0,0,31,987.44"/><path class="cls-2" d="M49.75,964.5A54.28,54.28,0,0,1,49,975.34a56.35,56.35,0,0,1-4.7,14.56"/><path class="cls-2" d="M68.4,964.12a56.89,56.89,0,0,1-.78,11.25,60.15,60.15,0,0,1-4.7,15.13"/><path class="cls-2" d="M89.52,962.89a48.34,48.34,0,0,1-.79,10.29A51.31,51.31,0,0,1,84,987"/><path class="cls-2" d="M105.23,960.19a40.45,40.45,0,0,1-.78,9.34,44,44,0,0,1-4.7,12.54"/><path class="cls-2" d="M118.14,957.18a24.3,24.3,0,0,1-.77,7.21,30,30,0,0,1-4.6,9.68"/><path class="cls-2" d="M126.46,954.75a25.84,25.84,0,0,0,.32,4.84,26.38,26.38,0,0,0,1.93,6.5"/><path class="cls-2" d="M136.5,951.82a28.39,28.39,0,0,1-.32,5.08,29.14,29.14,0,0,1-1.93,6.81"/><path class="cls-2" d="M144.33,948.48a38.65,38.65,0,0,1-.32,5.83,37.47,37.47,0,0,1-1.93,7.82"/><path class="cls-2" d="M153.17,945.22a49.72,49.72,0,0,1-.33,6.72,48,48,0,0,1-1.92,9"/><path class="cls-2" d="M162.24,942.4a63.49,63.49,0,0,1-.32,7.61A61.29,61.29,0,0,1,160,960.23"/><path class="cls-2" d="M171,939.94a77.89,77.89,0,0,1-.32,8.43,74.68,74.68,0,0,1-1.92,11.34"/><path class="cls-2" d="M179.58,938a87.47,87.47,0,0,1-.32,8.94,83.42,83.42,0,0,1-1.93,12"/><path class="cls-2" d="M188.06,935.45c0,2.73,0,5.9-.32,9.4a92.27,92.27,0,0,1-1.93,12.64"/><path class="cls-2" d="M195.8,929.36a101.1,101.1,0,0,1-.41,10.83A96,96,0,0,1,193,954.75"/></g><g id="Tissue"><path class="cls-1" d="M157.17,849.07c-3.75,1.93,1.71,11.82-2.48,21.12-6.29,13.95-33.91,19.75-56.33,12.91-9.35-2.85-8.53-5.05-15.29-6.18C56,872.39,30.6,905.6,26,911.68,17.7,922.48,1.25,944,9.06,956.49c5.5,8.79,21.1,8.44,52.29,7.72,17.1-.39,40.22-1.09,67.58-10,13.76-4.51,13.45-6.14,29-10.82,22.63-6.82,32.1-6,37.81-13.9,4-5.5,1.54-8.89,1.61-26.27.11-29.54,7.23-44.42.8-47.89-4.75-2.57-9.4,5.15-20.11,3.86C166.31,857.74,160.8,847.2,157.17,849.07Z"/><path class="cls-2" d="M89.54,879.24a66.43,66.43,0,0,1,17.81,20.55c8.74,15.94,8.3,32,8,43.25a116,116,0,0,1-1.45,15.34"/></g><g id="Lace"><path class="cls-1" d="M146,878.8c-.35-1.43,2.21-4,4.28-4.84,3-1.16,6.11-.93,9.71.9,2.95,1.5,11.43,5.82,10.83,10.08a3.68,3.68,0,0,1-3,3.1c-2.07.06-2.67-3.31-5.2-5.92C156.94,876.26,146.68,881.55,146,878.8Z"/><path class="cls-1" d="M126.45,884.22c-.4-1.68,3-6.49,5.79-7.36,4-1.26,7.36-1.18,12,1.07,3.82,1.85,14.74,7.15,13.8,12.12a4.62,4.62,0,0,1-4.07,3.54c-2.7,0-3.38-4-6.59-7.09C140.19,879.48,127.22,887.45,126.45,884.22Z"/><path class="cls-1" d="M106.64,885c-.46-2,3.23-4.71,6.4-5.73,4.64-1.49,8.78.48,14.14,3.14,4.41,2.18,17,8.42,16,14.28a5.39,5.39,0,0,1-4.71,4.18c-3.13,0-3.9-4.66-7.62-8.36C122.49,884.27,107.54,888.85,106.64,885Z"/></g></g><g id="RightShoe"><g id="Sole-2" data-name="Sole"><path class="cls-1" d="M224.77,910.81c-5.56,4.36-5.31,13.65-3.39,19.23.8,2.32,1.66,4.84,4.13,6.76,4.39,3.43,8.67.92,16.27,4.43,4.07,1.88,4.41,3.33,6.07,3,5-.91,10.39-15.83,3.88-25.88C246.08,909.63,231.88,905.23,224.77,910.81Z"/><path class="cls-1" d="M241.8,918.81c-1.2,2.69-8.37,13.07-3.86,22.92A26.65,26.65,0,0,0,246.75,952c11.87,8.56,25.24,6,50.95,5.43,35.59-.75,44.29,3.48,51.58-4.23,6-6.36,7.85-17.45,4.41-24.76C341,901.45,255.3,916.36,241.8,918.81Z"/><path class="cls-2" d="M246.75,928.62a36.92,36.92,0,0,0,0,23.38"/><path class="cls-2" d="M260.6,933.84a37.12,37.12,0,0,0,0,23.38"/><path class="cls-2" d="M276.06,936.27a41.29,41.29,0,0,0-1.34,7.86,42.34,42.34,0,0,0,1.34,14.09"/><path class="cls-2" d="M294.56,937.92a30.93,30.93,0,0,0-1.47,7.07,31.46,31.46,0,0,0,1.47,12.67"/><path class="cls-2" d="M316.37,939.05a24.5,24.5,0,0,1,1.74,6.66,24.23,24.23,0,0,1-1.74,11.95"/><path class="cls-2" d="M332.92,938.55a26.57,26.57,0,0,1,0,19.67"/><path class="cls-2" d="M348.52,934.1a37.25,37.25,0,0,1-.3,8.59,38.43,38.43,0,0,1-5.28,14.36"/><path class="cls-2" d="M228.21,919.65a37.81,37.81,0,0,0,.7,7.76,38.43,38.43,0,0,0,4.35,11.65"/></g><g id="Tissue-2" data-name="Tissue"><path class="cls-1" d="M222.22,851.12c5.46-2.13,9.61,9.51,22,10.27,15.13.93,24-15.47,31.45-12.08,4.21,1.9,2.75,7.69,5.67,18.72,6,22.68,19.71,26.78,17,36.85-3.09,11.42-23.23,15.41-30.82,16.91-7.44,1.48-32.41,2.57-42.26-3.62-3.49-2.19,4.57-21.7,0-32.16C216.32,865.59,214,854.31,222.22,851.12Z"/><path class="cls-1" d="M242.35,923c-4.18-12.27,16.58-28.49,22.64-33.22,9.46-7.39,23.93-18.69,40.89-15.71,12.74,2.25,20.1,11.37,33.34,27.79,11.1,13.77,16.66,20.66,14.47,26.58-5.33,14.39-49.49,10.43-64.8,9.06C266.35,935.48,246,933.65,242.35,923Z"/></g><path id="Lace-2" data-name="Lace" class="cls-1" d="M247.06,881.65c.45-1.65,1.83-3.49,12.85-7.33,16.85-5.87,20.86-4.07,22.48-3.08s3.55,2.76,3.15,4.06c-.59,1.89-5.72.81-14,2.49-5.62,1.14-10.82,2.2-15.1,6.11-3.21,2.93-3.92,5.64-5.78,5.46C248.45,889.13,246.17,884.91,247.06,881.65Z"/></g></g></g></g></svg>