<svg id="pavement" xmlns="http://www.w3.org/2000/svg" xmlns:xlink="http://www.w3.org/1999/xlink" viewBox="0 0 149 149"><defs><style>.cls-1{fill:url(#Dégradé_sans_nom_23);}.cls-2{fill:#999;opacity:0.52;}.cls-3{fill:#fff;}</style><linearGradient id="Dégradé_sans_nom_23" x1="74.5" x2="74.5" y2="149" gradientUnits="userSpaceOnUse"><stop offset="0" stop-color="#fff"/><stop offset="0" stop-color="#f7691e"/><stop offset="0.27" stop-color="#ad4d35"/><stop offset="0.52" stop-color="#6f3449"/><stop offset="0.74" stop-color="#412358"/><stop offset="0.9" stop-color="#251861"/><stop offset="1" stop-color="#1b1464"/></linearGradient></defs><title>pavement</title><circle class="cls-1" cx="74.5" cy="74.5" r="74.5"/><path class="cls-2" d="M18,95Q29.51,66,41,37a8.38,8.38,0,0,1,3-3,8.81,8.81,0,0,1,5-1c3.93.24,24.93.16,54,0a8.27,8.27,0,0,1,4,1,9.24,9.24,0,0,1,3,3c1.79,2.91,11,25.63,23,57a3.85,3.85,0,0,1,0,3c-.84,1.6-3.16,1.89-4,2-6,.76-97.63.09-109,0a2.5,2.5,0,0,1-2-4Z" transform="translate(-1)"/><polygon class="cls-3" points="43 36 32 64 45 64 53 36 43 36"/><polygon class="cls-3" points="56 36 66 36 65 47 53 47 56 36"/><polygon class="cls-3" points="31 67 44 67 36 95 19 95 31 67"/><polygon class="cls-3" points="52 50 65 50 61 95 41 95 52 50"/><polygon class="cls-3" points="69 36 78 36 82 75 65 75 69 36"/><polygon class="cls-3" points="65 78 64 95 84 95 82 78 65 78"/><polygon class="cls-3" points="80 36 81 42 93 42 92 36 80 36"/><polygon class="cls-3" points="82 45 85 83 103 83 93 45 82 45"/><polygon class="cls-3" points="85 87 86 95 106 95 104 87 85 87"/><polygon class="cls-3" points="94 36 103 70 120 69 106 36 94 36"/><path class="cls-3" d="M105,73l16-1,11,23H110l-5-21" transform="translate(-1)"/></svg>