<svg xmlns="http://www.w3.org/2000/svg" xmlns:xlink="http://www.w3.org/1999/xlink" viewBox="0 0 149 149"><defs><style>.cls-1{fill:url(#Dégradé_sans_nom_23);}.cls-2{fill:#e6e6e6;opacity:0.5;}.cls-3{fill:#fff;}.cls-4{fill:#999;opacity:0.52;}</style><linearGradient id="Dégradé_sans_nom_23" x1="74.5" x2="74.5" y2="149" gradientUnits="userSpaceOnUse"><stop offset="0" stop-color="#fff"/><stop offset="0" stop-color="#f7691e"/><stop offset="0.27" stop-color="#ad4d35"/><stop offset="0.52" stop-color="#6f3449"/><stop offset="0.74" stop-color="#412358"/><stop offset="0.9" stop-color="#251861"/><stop offset="1" stop-color="#1b1464"/></linearGradient></defs><title>pavement</title><g id="road"><circle class="cls-1" cx="74.5" cy="74.5" r="74.5"/><path class="cls-2" d="M72,43a1.69,1.69,0,0,0,1,1h6a1.69,1.69,0,0,0,1-1" transform="translate(-1)"/><path class="cls-2" d="M79,38H97a5.27,5.27,0,0,1,3,1,5.35,5.35,0,0,1,2,3l26,59a7.22,7.22,0,0,1-2,5,7.08,7.08,0,0,1-4,2l-35,1q-1-9-2-18a3.8,3.8,0,0,0-1-2,4.44,4.44,0,0,0-4-1H71a5.81,5.81,0,0,0-4,2,5.22,5.22,0,0,0-1,2q-1,8-2,16H30a5.9,5.9,0,0,1-6-2,6,6,0,0,1-1-5l2-4Q37.49,69,50,41a6.68,6.68,0,0,1,2-2,7.32,7.32,0,0,1,5-1H73" transform="translate(-1)"/><path class="cls-3" d="M71,51l-1,7c-.29,1.46.2,2.68,1,3a1.46,1.46,0,0,0,1,0h7s1.6-.2,2-1a1.27,1.27,0,0,0,0-1h0c-.33-2.67-.67-5.33-1-8h0a2.1,2.1,0,0,0-1-1,2.17,2.17,0,0,0-1,0H73a1.62,1.62,0,0,0-1,0A1.69,1.69,0,0,0,71,51Z" transform="translate(-1)"/><path class="cls-3" d="M68.57,68.38,67,77.83c-.43,2,.3,3.62,1.53,4a2.48,2.48,0,0,0,1.53,0H80.79s2.45-.26,3.06-1.35a1.56,1.56,0,0,0,0-1.35h0l-1.53-10.8h0A3.06,3.06,0,0,0,80.79,67a3.68,3.68,0,0,0-1.52,0H71.63a2.7,2.7,0,0,0-1.53,0A2.42,2.42,0,0,0,68.57,68.38Z" transform="translate(-1)"/><path class="cls-3" d="M66.23,90.23q-1.07,7.2-2.14,14.41c-.61,3,.42,5.53,2.14,6.18A10.89,10.89,0,0,0,68,111c8,0,15.31-.18,15.31-.18h0s2.52.17,3.59-.73a.51.51,0,0,0,.15-.23c.19-.5,1-.86.53-3.16h0L85.45,90.23h0a4.42,4.42,0,0,0-2.14-2.06A7.36,7.36,0,0,0,81,88H71a6,6,0,0,0-2.63.17A3.51,3.51,0,0,0,66.23,90.23Z" transform="translate(-1)"/><path class="cls-3" d="M72.77,37.68l-.71,4.39A1.53,1.53,0,0,0,72.77,44a1.27,1.27,0,0,0,.72,0h5s1.14-.13,1.43-.63a.74.74,0,0,0,0-.63h0l-.72-5h0a1.42,1.42,0,0,0-.71-.63,1.74,1.74,0,0,0-.72,0H74.21a1.29,1.29,0,0,0-.72,0A1.15,1.15,0,0,0,72.77,37.68Z" transform="translate(-1)"/></g><g id="pavement"><circle class="cls-1" cx="74.5" cy="74.5" r="74.5"/><path class="cls-4" d="M18,95Q29.51,66,41,37a8.38,8.38,0,0,1,3-3,8.81,8.81,0,0,1,5-1c3.93.24,24.93.16,54,0a8.27,8.27,0,0,1,4,1,9.24,9.24,0,0,1,3,3c1.79,2.91,11,25.63,23,57a3.85,3.85,0,0,1,0,3c-.84,1.6-3.16,1.89-4,2-6,.76-97.63.09-109,0a2.5,2.5,0,0,1-2-4Z" transform="translate(-1)"/><polygon class="cls-3" points="43 36 32 64 45 64 53 36 43 36"/><polygon class="cls-3" points="56 36 66 36 65 47 53 47 56 36"/><polygon class="cls-3" points="31 67 44 67 36 95 19 95 31 67"/><polygon class="cls-3" points="52 50 65 50 61 95 41 95 52 50"/><polygon class="cls-3" points="69 36 78 36 82 75 65 75 69 36"/><polygon class="cls-3" points="65 78 64 95 84 95 82 78 65 78"/><polygon class="cls-3" points="80 36 81 42 93 42 92 36 80 36"/><polygon class="cls-3" points="82 45 85 83 103 83 93 45 82 45"/><polygon class="cls-3" points="85 87 86 95 106 95 104 87 85 87"/><polygon class="cls-3" points="94 36 103 70 120 69 106 36 94 36"/><path class="cls-3" d="M105,73l16-1,11,23H110l-5-21" transform="translate(-1)"/></g><g id="run"><circle class="cls-1" cx="74.5" cy="74.5" r="74.5"/><path class="cls-3" d="M63,42l21,1L97,55a6.26,6.26,0,0,0,4,1,6.36,6.36,0,0,0,4-2l8-8a4.18,4.18,0,0,1,6,1,4.11,4.11,0,0,1-1,5L103,67a5,5,0,0,1-3,1,5.38,5.38,0,0,1-4-2l-8-7L74,73,89,88q-2.5,15-5,30a5.21,5.21,0,0,1-10-2l3-22L64,81,51,95H26a5.38,5.38,0,0,1-5-6,5.27,5.27,0,0,1,5-4H44L74,51H65L53,63c-2.17,2.25-5.61,1.89-7,0a4.63,4.63,0,0,1,1-6Z" transform="translate(-1)"/><circle class="cls-3" cx="100" cy="36" r="11"/></g></svg>