<svg id="pleurer" xmlns="http://www.w3.org/2000/svg" xmlns:xlink="http://www.w3.org/1999/xlink" viewBox="0 0 149 149"><defs><style>.cls-1{fill:url(#Dégradé_sans_nom_23);}.cls-2,.cls-3{fill:#f2f2f2;}.cls-2{opacity:0.6;}</style><linearGradient id="Dégradé_sans_nom_23" x1="74.5" x2="74.5" y2="149" gradientUnits="userSpaceOnUse"><stop offset="0" stop-color="#fff"/><stop offset="0" stop-color="#f7691e"/><stop offset="0.27" stop-color="#ad4d35"/><stop offset="0.52" stop-color="#6f3449"/><stop offset="0.74" stop-color="#412358"/><stop offset="0.9" stop-color="#251861"/><stop offset="1" stop-color="#1b1464"/></linearGradient></defs><title>pleurer</title><circle class="cls-1" cx="74.5" cy="74.5" r="74.5"/><circle class="cls-2" cx="75" cy="74" r="48.5"/><path class="cls-3" d="M42.32,50.25C41.51,49.53,44.21,42.91,50,40S62.66,39,62.74,40c.06.82-4,.83-10.21,3.83C45.74,47.15,43,50.84,42.32,50.25Z" transform="translate(-0.5 -0.5)"/><path class="cls-3" d="M85.71,40c-.1.94,5,1,12.76,5.1,6.67,3.56,9.44,7,10.21,6.39s-1.42-6.85-6.38-10.21C95.43,36.65,85.85,38.77,85.71,40Z" transform="translate(-0.5 -0.5)"/><path class="cls-3" d="M42.32,60.46h0s6.37-5.24,12.76-5.1c5,.1,9.2,3.44,10.21,6.38.14.41.66,1.91,0,2.55-.29.28-.81.4-2.55,0A22.94,22.94,0,0,1,58.91,63a13.58,13.58,0,0,0-5.11-1.27A11.93,11.93,0,0,0,48.7,63c-1.3.67-1.51,1.1-2.56,1.28-1.42.25-3.29-.17-3.82-1.28A4.55,4.55,0,0,1,42.32,60.46Z" transform="translate(-0.5 -0.5)"/><path class="cls-3" d="M108.48,60.46h0s-6.58-5.24-13.17-5.1c-5.12.1-9.5,3.44-10.54,6.38-.15.41-.68,1.91,0,2.55.3.28.84.4,2.64,0a25.12,25.12,0,0,0,4-1.28,14.36,14.36,0,0,1,5.26-1.27A12.67,12.67,0,0,1,101.89,63c1.34.67,1.56,1.1,2.64,1.28,1.46.25,3.4-.17,4-1.28A4.45,4.45,0,0,0,108.48,60.46Z" transform="translate(-0.5 -0.5)"/><path class="cls-3" d="M47.42,65.57A9.47,9.47,0,0,1,51.25,63c4.39-1.54,8.35.91,8.93,1.28q.65,28.08,1.28,56.16a39.13,39.13,0,0,1-14-7.66Z" transform="translate(-0.5 -0.5)"/><path class="cls-3" d="M103.58,65.57A11.48,11.48,0,0,0,99.05,63,14.6,14.6,0,0,0,88.5,64.29Q87.73,92.37,87,120.45a51.75,51.75,0,0,0,7.54-2.56,47.33,47.33,0,0,0,9-5.1Z" transform="translate(-0.5 -0.5)"/><path class="cls-3" d="M66.57,87.26V97.47c1,5.37,5.92,8.6,10.21,7.66,3.26-.71,5.9-3.8,6.38-7.66V87.26a8.57,8.57,0,0,0-16.59,0Z" transform="translate(-0.5 -0.5)"/></svg>