<svg id="right" xmlns="http://www.w3.org/2000/svg" xmlns:xlink="http://www.w3.org/1999/xlink" viewBox="0 0 149 149"><defs><style>.cls-1{fill:url(#Dégradé_sans_nom_23);}.cls-2{fill:#fff;}</style><linearGradient id="Dégradé_sans_nom_23" x1="74.5" x2="74.5" y2="149" gradientUnits="userSpaceOnUse"><stop offset="0" stop-color="#fff"/><stop offset="0" stop-color="#f7691e"/><stop offset="0.27" stop-color="#ad4d35"/><stop offset="0.52" stop-color="#6f3449"/><stop offset="0.74" stop-color="#412358"/><stop offset="0.9" stop-color="#251861"/><stop offset="1" stop-color="#1b1464"/></linearGradient></defs><title>right</title><circle class="cls-1" cx="74.5" cy="74.5" r="74.5"/><path class="cls-2" d="M37.75,68.21h64.89L82.59,47a5,5,0,0,1,1.18-5.9,5.06,5.06,0,0,1,7.08,1.18c12.69,13.1,21.84,22.82,24.77,26A7.83,7.83,0,0,1,118,72.93a8.37,8.37,0,0,1-2.36,5.9Q103.23,92.41,90.85,106a4.7,4.7,0,0,1-7.08-5.9l18.87-21.24H37.75a5.34,5.34,0,0,1,0-10.62Z" transform="translate(-1)"/><path class="cls-2" d="M57,41" transform="translate(-1)"/></svg>