<svg id="run" xmlns="http://www.w3.org/2000/svg" xmlns:xlink="http://www.w3.org/1999/xlink" viewBox="0 0 149 149"><defs><style>.cls-1{fill:url(#Dégradé_sans_nom_23);}.cls-2{fill:#fff;}</style><linearGradient id="Dégradé_sans_nom_23" x1="74.5" x2="74.5" y2="149" gradientUnits="userSpaceOnUse"><stop offset="0" stop-color="#fff"/><stop offset="0" stop-color="#f7691e"/><stop offset="0.27" stop-color="#ad4d35"/><stop offset="0.52" stop-color="#6f3449"/><stop offset="0.74" stop-color="#412358"/><stop offset="0.9" stop-color="#251861"/><stop offset="1" stop-color="#1b1464"/></linearGradient></defs><title>run</title><circle class="cls-1" cx="74.5" cy="74.5" r="74.5"/><path class="cls-2" d="M63,42l21,1L97,55a6.26,6.26,0,0,0,4,1,6.36,6.36,0,0,0,4-2l8-8a4.18,4.18,0,0,1,6,1,4.11,4.11,0,0,1-1,5L103,67a5,5,0,0,1-3,1,5.38,5.38,0,0,1-4-2l-8-7L74,73,89,88q-2.5,15-5,30a5.21,5.21,0,0,1-10-2l3-22L64,81,51,95H26a5.38,5.38,0,0,1-5-6,5.27,5.27,0,0,1,5-4H44L74,51H65L53,63c-2.17,2.25-5.61,1.89-7,0a4.63,4.63,0,0,1,1-6Z" transform="translate(-1)"/><circle class="cls-2" cx="100" cy="36" r="11"/></svg>