<svg enable-background="new 0 0 100 100" height="512" viewBox="0 0 100 100" width="512" xmlns="http://www.w3.org/2000/svg"><path d="m68.042778 13.782736h3.202371v55.31398h-3.202371z" fill="#ededed" transform="matrix(.985 -.174 .174 .985 -6.161 12.783)"/><path d="m70.178558 50.729809h5.425292v18.081511h-5.425292z" fill="#cd5248" transform="matrix(.985 -.174 .174 .985 -9.308 13.631)"/><path d="m21.5977116 70.369278c-4.7170277 0-8.5409298 3.8239746-8.5409298 8.5410004s3.8239021 8.5408554 8.5409298 8.5408554 8.5409279-3.8238297 8.5409279-8.5408554-3.8239022-8.5410004-8.5409279-8.5410004z" fill="#344d5b"/><path d="m21.5977116 73.4192047c-3.0325985 0-5.491003 2.4584503-5.491003 5.4910507 0 3.0325928 2.4584045 5.4909515 5.491003 5.4909515s5.4910011-2.4583588 5.4910011-5.4909515c0-3.0326004-2.4584045-5.4910507-5.4910011-5.4910507z" fill="#ededed"/><path d="m78.4022903 70.369278c-4.7170258 0-8.5409317 3.8239746-8.5409317 8.5410004s3.8239059 8.5408554 8.5409317 8.5408554 8.5409317-3.8238297 8.5409317-8.5408554-3.8239059-8.5410004-8.5409317-8.5410004z" fill="#344d5b"/><path d="m78.4022903 73.4192047c-3.0326004 0-5.4910049 2.4584503-5.4910049 5.4910507 0 3.0325928 2.4584045 5.4909515 5.4910049 5.4909515s5.4909973-2.4583588 5.4909973-5.4909515c.0000001-3.0326004-2.4583969-5.4910507-5.4909973-5.4910507z" fill="#ededed"/><path d="m67.0779037 13.2400427c-.0806274-.4552002-.5150146-.7587891-.9701538-.6782227l-3.0626221.5424805c-.4551392.0808105-.7587891.5151367-.6781616.9702148l1.4561157 8.2198496c.0806274.4552002.5149536.7587891.9701538.6781006l3.0626221-.5424805c.4551392-.0805664.7587891-.5148926.6781616-.9702148z" fill="#344d5b"/><path d="m48.0407333 26.7158737c-.2841797 0-.5712891-.0800781-.8261719-.2490234-.690918-.4570312-.8803711-1.3876953-.4233398-2.0791016l1.8979492-2.8681641c1.5908203-2.4052734 4.1328125-4.0771484 6.9731445-4.5869141l9.5234375-1.7060556c.8144531-.1416016 1.5947266.3964844 1.7412109 1.211915.1459961.8154297-.3964844 1.5947266-1.2119141 1.7412109l-9.5234375 1.7060547c-2.0366211.3652344-3.859375 1.5644531-5.0004883 3.2890625l-1.8979492 2.8691406c-.2885741.435547-.7661131.6718751-1.2524413.6718751z" fill="#344d5b"/><path d="m33.6277199 79.784256h-11.3144531c-.6699219 0-1.215332-.5458984-1.215332-1.2158203v-10.9804688h1v10.9804688c0 .1191406.0966797.2158203.215332.2158203h11.3144531z" fill="#ce5248"/><path d="m77.3840714 79.784256h-13.1206055v-1h13.1206055c.2856445 0 .5180664-.2324219.5180664-.5185547v-10.6777344h1v10.6777344c0 .8369141-.6811524 1.5185547-1.5180664 1.5185547z" fill="#ce5248"/><path d="m78.4766769 66.166214c-6.6921921 0-12.2176819 5.0842438-12.9209213 11.5925827h-30.5263595c-.7503242-6.5720596-6.3462086-11.6939468-13.1159477-11.6939468-.8325481 0-1.5073776.6750412-1.5073776 1.5073776s.6748295 1.5073776 1.5073776 1.5073776c5.6169147 0 10.1867828 4.5696564 10.1867828 10.1865692 0 .8323441.6748276 1.5073776 1.5073776 1.5073776h33.3782616c.83255 0 1.5073776-.6750336 1.5073776-1.5073776 0-.0174484-.0045471-.0335922-.005127-.0508881.0005798-.0172958.005127-.0334396.005127-.0508881 0-5.505043 4.4785995-9.983429 9.983429-9.983429.83255 0 1.5073776-.6750412 1.5073776-1.5073776s-.6748276-1.5073775-1.5073777-1.5073775z" fill="#de594e"/><g fill="#344d5b"><path d="m78.4949722 76.5457687c-1.1674805 0-2.1138916.9464111-2.1138916 2.1138916s.9464111 2.1138916 2.1138916 2.1138916c1.1674194 0 2.1138306-.9464111 2.1138306-2.1138916s-.9464111-2.1138916-2.1138306-2.1138916z"/><path d="m23.515974 77.9884262c-.1895142-.4422607-.5545044-.8071289-.9967651-.996582-1.8599854-.7967529-3.6365967.9797363-2.8399048 2.8398438.1894531.4421387.5543823.8071289.996582.9967041 1.8601075.7972411 3.6372071-.9796143 2.8400879-2.8399659z"/></g></svg>