<svg id="skate" xmlns="http://www.w3.org/2000/svg" xmlns:xlink="http://www.w3.org/1999/xlink" viewBox="0 0 149 149"><defs><style>.cls-1{fill:url(#Dégradé_sans_nom_23);}.cls-2{fill:#f2f2f2;}</style><linearGradient id="Dégradé_sans_nom_23" x1="74.5" x2="74.5" y2="149" gradientUnits="userSpaceOnUse"><stop offset="0" stop-color="#fff"/><stop offset="0" stop-color="#f7691e"/><stop offset="0.27" stop-color="#ad4d35"/><stop offset="0.52" stop-color="#6f3449"/><stop offset="0.74" stop-color="#412358"/><stop offset="0.9" stop-color="#251861"/><stop offset="1" stop-color="#1b1464"/></linearGradient></defs><title>skate</title><circle class="cls-1" cx="74.5" cy="74.5" r="74.5"/><path class="cls-2" d="M26.34,69.73A7.78,7.78,0,0,1,22,65.43c-.24-.67-1-2.7,0-4.3s2.89-1.8,5.38-2.15a19.51,19.51,0,0,1,5.38,0,30.65,30.65,0,0,1,7.53,2.15c3.49,1.35,7.17,2.13,10.75,3.23,4.9,1.51,19.4,4.51,57,10.75a49.91,49.91,0,0,0,10.76,1.08,50.26,50.26,0,0,0,14-2.15c.72.09,1.88.33,2.15,1.07.38,1.09-1.41,2.6-2.15,3.23-4.37,3.69-22.56,6.57-29,7.52a69,69,0,0,1-12.9,0A68.77,68.77,0,0,1,79,83.71C69.82,81.28,51,76.36,26.34,69.73Z" transform="translate(-0.5 -0.5)"/><path class="cls-2" d="M89.78,88v1.07a5.66,5.66,0,0,1,2.15,1.08,6.24,6.24,0,0,1,2.15,4.3l9.68-4.3V88Z" transform="translate(-0.5 -0.5)"/><path class="cls-2" d="M81.18,91.24a4.51,4.51,0,0,1,2.15-1.07,7.51,7.51,0,0,1,4.3,0,6.38,6.38,0,0,1,2.15,1.07,6.73,6.73,0,0,1,1.08,1.08c.93,1.19,1.43,3.59,1.07,6.45a3.73,3.73,0,0,1-1.07,2.15c-.88.82-2,.9-4.3,1.07a7.57,7.57,0,0,1-2.16,0,5.55,5.55,0,0,1-3.22-2.15,6.87,6.87,0,0,1-1.08-4.3C80.07,94,80,92.38,81.18,91.24Z" transform="translate(-0.5 -0.5)"/><path class="cls-2" d="M103.76,91.24l-1.07,1.08a5.49,5.49,0,0,0,6.45-1.08,5.42,5.42,0,0,0,1.07-5.38,3.78,3.78,0,0,1-2.15,1.08c-1.07.12-1.77-.38-2.15,0s.2,1.19,0,2.15A3.52,3.52,0,0,1,103.76,91.24Z" transform="translate(-0.5 -0.5)"/><path class="cls-2" d="M31.71,76.19c1.85-1.19,4.17-.07,4.3,0a4.88,4.88,0,0,1,2.15,2.15,6.32,6.32,0,0,1,0,5.37,3.52,3.52,0,0,1-1.07,1.08c-1.83,1.16-4.07.11-4.3,0a5.36,5.36,0,0,1-2.15-2.15C29.58,80.63,29.71,77.47,31.71,76.19Z" transform="translate(-0.5 -0.5)"/><path class="cls-2" d="M40.32,77.26h0l1.07,3.23,7.53-2.15a21.21,21.21,0,0,0-6.12-2.1l-.33,0" transform="translate(-0.5 -0.5)"/></svg>