<svg id="soundIcon" xmlns="http://www.w3.org/2000/svg" viewBox="0 0 25.51 25.09"><defs><style>.cls-1{fill:none;stroke:#000;stroke-miterlimit:10;}</style></defs><title>soundIcon</title><path class="cls-1" d="M7.5,10.5l7-6c1.2-1,1.74-1.08,2-1h0a1.28,1.28,0,0,1,.83.73L17.5,7.5v19a1.8,1.8,0,0,1-1,1,1.79,1.79,0,0,1-1,0,4.64,4.64,0,0,1-2-1l-6-6Z" transform="translate(-1.99 -2.97)"/><path class="cls-1" d="M6.5,11h-3c-.74.32-.94.67-1,.9a5.11,5.11,0,0,0,0,.9h0c0,2.46,0,4.34,0,5.4A1.86,1.86,0,0,0,3,19.77,1.34,1.34,0,0,0,3.5,20h3" transform="translate(-1.99 -2.97)"/><g id="noSound"><path class="cls-1" d="M20.5,12.5l6,6" transform="translate(-1.99 -2.97)"/><path class="cls-1" d="M20.5,18.5l6-6" transform="translate(-1.99 -2.97)"/></g><g id="sound"><path class="cls-1" d="M19.5,10.5a4.94,4.94,0,0,1,3,4,5,5,0,0,1-3,5" transform="translate(-1.99 -2.97)"/><path class="cls-1" d="M23,8a7.08,7.08,0,0,1,4,5.74,7.28,7.28,0,0,1-4,7.18" transform="translate(-1.99 -2.97)"/></g></svg>