<svg id="taxi" xmlns="http://www.w3.org/2000/svg" xmlns:xlink="http://www.w3.org/1999/xlink" viewBox="0 0 149 149"><defs><style>.cls-1{fill:url(#Dégradé_sans_nom_23);}.cls-2{fill:#fff;}.cls-3{opacity:0.14;}</style><linearGradient id="Dégradé_sans_nom_23" x1="74.5" x2="74.5" y2="149" gradientUnits="userSpaceOnUse"><stop offset="0" stop-color="#fff"/><stop offset="0" stop-color="#f7691e"/><stop offset="0.27" stop-color="#ad4d35"/><stop offset="0.52" stop-color="#6f3449"/><stop offset="0.74" stop-color="#412358"/><stop offset="0.9" stop-color="#251861"/><stop offset="1" stop-color="#1b1464"/></linearGradient></defs><title>taxi</title><circle class="cls-1" cx="74.5" cy="74.5" r="74.5"/><path class="cls-2" d="M55,40V28a3.1,3.1,0,0,1,2-2,2.39,2.39,0,0,1,1,0H94a3.54,3.54,0,0,1,2,1,3.61,3.61,0,0,1,1,2V40h5a9.63,9.63,0,0,1,4,1,10.39,10.39,0,0,1,5,6l5,12,6-2a7.27,7.27,0,0,1,4,3c1.58,2.59,1.21,6.19-1,9l-4,2a78.35,78.35,0,0,1,2,9,78.91,78.91,0,0,1,1,13v18a7.39,7.39,0,0,1-2,4c-2,2-4.73,2-7,2s-5,0-7-2a7.39,7.39,0,0,1-2-4v-6H45v6a5.53,5.53,0,0,1-1,4,5.46,5.46,0,0,1-3,2H32a5.37,5.37,0,0,1-3-2,5.83,5.83,0,0,1-1-3,6.58,6.58,0,0,1,0-1V83a15.61,15.61,0,0,1,0-5,16,16,0,0,1,3-7l-4-2c-3-3.84-3-8.19-1-10a5.19,5.19,0,0,1,4-1l5,1c2.71-5.6,4.76-9.93,6-13a7.91,7.91,0,0,1,3-4,7.5,7.5,0,0,1,3-1C48.93,40.67,51.63,40.28,55,40Z" transform="translate(-0.5 -0.5)"/><path class="cls-3" d="M52,44H98a9.79,9.79,0,0,1,3,1,9.93,9.93,0,0,1,4,4q4,9.49,8,19a3.38,3.38,0,0,1,0,2c-.71,2.1-3.93,3.41-8,3H44c-1.06-.18-4.08-.8-5-3a4.4,4.4,0,0,1,0-3c1.57-5.4,7.37-17.67,8-19a5.35,5.35,0,0,1,2-3A5.27,5.27,0,0,1,52,44Z" transform="translate(-0.5 -0.5)"/><path class="cls-3" d="M37,86v6a3.62,3.62,0,0,0,1,2,3.77,3.77,0,0,0,3,1H55a3.62,3.62,0,0,0,2-1,3.77,3.77,0,0,0,1-3V86a3.62,3.62,0,0,0-1-2,3.77,3.77,0,0,0-3-1H41a3.77,3.77,0,0,0-3,1A3.62,3.62,0,0,0,37,86Z" transform="translate(-0.5 -0.5)"/><path class="cls-3" d="M93,86v6a3.62,3.62,0,0,0,1,2,3.77,3.77,0,0,0,3,1h14a3.62,3.62,0,0,0,2-1,3.77,3.77,0,0,0,1-3V86a3.62,3.62,0,0,0-1-2,3.77,3.77,0,0,0-3-1H97a3.77,3.77,0,0,0-3,1A3.62,3.62,0,0,0,93,86Z" transform="translate(-0.5 -0.5)"/><polygon class="cls-3" points="58.5 29.5 58.5 31.5 61.5 31.5 61.5 39.5 64.5 39.5 64.5 31.5 67.5 31.5 67.5 29.5 58.5 29.5"/><polygon class="cls-3" points="69.5 29.5 72.5 29.5 76.5 39.5 73.5 39.5 72.5 37.5 69.5 37.5 68.5 39.5 65.5 39.5 69.5 29.5"/><rect class="cls-2" x="71.5" y="34.5" width="1" height="1"/><polygon class="cls-3" points="76.5 29.5 79.5 29.5 81.5 32.5 83.5 29.5 86.5 29.5 83.5 34.5 87.5 39.5 83.5 39.5 81.5 36.5 79.5 39.5 76.5 39.5 79.5 34.5 76.5 29.5"/><rect class="cls-3" x="88.5" y="29.5" width="3" height="10"/></svg>