<svg id="Calque_1" data-name="Calque 1" xmlns="http://www.w3.org/2000/svg" xmlns:xlink="http://www.w3.org/1999/xlink" viewBox="0 0 265 355.32"><defs><style>.cls-1{stroke-miterlimit:10;stroke-width:5px;fill:url(#Dégradé_sans_nom_40);stroke:url(#Dégradé_sans_nom_40-2);}</style><linearGradient id="Dégradé_sans_nom_40" x1="126" y1="256" x2="386" y2="256" gradientUnits="userSpaceOnUse"><stop offset="0.33" stop-color="#2d004b"/><stop offset="1" stop-color="#c81a4b"/></linearGradient><linearGradient id="Dégradé_sans_nom_40-2" x1="123.5" x2="388.5" xlink:href="#Dégradé_sans_nom_40"/></defs><title>toilets</title><path id="toilets" class="cls-1" d="M351.79,258.74a20.55,20.55,0,0,0,20.53-20.53V121.89h6.84a6.84,6.84,0,0,0,6.84-6.84V87.68a6.84,6.84,0,0,0-6.84-6.84H132.84A6.84,6.84,0,0,0,126,87.68v27.37a6.84,6.84,0,0,0,6.84,6.84h6.84v34.22a6.85,6.85,0,0,0,13.69,0V121.89H358.63V238.21a6.85,6.85,0,0,1-6.84,6.84h-7c-2.44-55.52-37.13-109.47-88.79-109.47-52.61,0-86.41,55.23-88.79,109.47h-7a6.85,6.85,0,0,1-6.84-6.84V210.84a6.85,6.85,0,0,0-13.69,0v27.37a20.55,20.55,0,0,0,20.53,20.53h7a189.77,189.77,0,0,0,3.91,31.67,20.54,20.54,0,0,0-17.74,20.33v13.68a6.84,6.84,0,0,0,6.84,6.84h9.23a97.52,97.52,0,0,0,37.64,56.38L194.82,422a6.84,6.84,0,0,0,6.44,9.14H310.74a6.84,6.84,0,0,0,6.44-9.14l-12.26-34.38a97.52,97.52,0,0,0,37.64-56.38h9.23a6.84,6.84,0,0,0,6.84-6.84V310.74a20.54,20.54,0,0,0-17.74-20.33,189.77,189.77,0,0,0,3.91-31.67ZM139.68,108.21V94.53H372.32v13.68ZM256,149.26c41.5,0,75.26,46,75.26,102.63a172.9,172.9,0,0,1-4.35,38.32H312.56a153,153,0,0,0,5-38.32C317.58,211.42,294.9,163,256,163c-38.37,0-61.58,47.59-61.58,88.94a153,153,0,0,0,5,38.32H185.09a172.9,172.9,0,0,1-4.35-38.32C180.74,195.3,214.5,149.26,256,149.26Zm47.89,102.63c0,12.9-2.18,27.63-5.58,38.32H213.69c-3.4-10.69-5.58-25.42-5.58-38.32,0-31.21,17-75.26,47.89-75.26S303.89,220.61,303.89,251.89ZM211,417.47l8.06-22.6a81.07,81.07,0,0,0,73.94,0l8.06,22.6Zm45-27.36c-34.19,0-63.48-26.41-72.45-58.85h144.9C319.48,363.69,290.19,390.11,256,390.11ZM345,310.74v6.84H167.05v-6.84a6.85,6.85,0,0,1,6.84-6.85H338.11A6.85,6.85,0,0,1,345,310.74Z" transform="translate(-123.5 -78.34)"/></svg>