<svg id="trotinette" xmlns="http://www.w3.org/2000/svg" xmlns:xlink="http://www.w3.org/1999/xlink" viewBox="0 0 149 149"><defs><style>.cls-1{fill:url(#Dégradé_sans_nom_23);}.cls-2{fill:#fff;}</style><linearGradient id="Dégradé_sans_nom_23" x1="74.5" x2="74.5" y2="149" gradientUnits="userSpaceOnUse"><stop offset="0" stop-color="#fff"/><stop offset="0" stop-color="#f7691e"/><stop offset="0.27" stop-color="#ad4d35"/><stop offset="0.52" stop-color="#6f3449"/><stop offset="0.74" stop-color="#412358"/><stop offset="0.9" stop-color="#251861"/><stop offset="1" stop-color="#1b1464"/></linearGradient></defs><title>trotinette</title><circle class="cls-1" cx="74.5" cy="74.5" r="74.5"/><path class="cls-2" d="M46.82,30.62a6.79,6.79,0,0,1-2.23-7c.69-2.52,2.92-4.69,5.58-4.65a6.14,6.14,0,0,1,5.58,7,6.1,6.1,0,0,1-4.46,4.65L46.82,57.34a3.94,3.94,0,0,1,2.24,1.17,4.18,4.18,0,0,1,1.11,2.32q-2.23,14-4.46,27.89a14.39,14.39,0,0,1,7.81,5.81,14.8,14.8,0,0,1,2.23,5.81H87a2.91,2.91,0,0,1,2.23,1.16,3.16,3.16,0,0,1,0,3.48h6.7c1.42-8.6,7.12-15.45,14.51-17.43,7.12-1.9,13.06,1.46,14.51,2.33a3.16,3.16,0,0,1,0,3.48,3,3,0,0,1-2.24,1.17,13.62,13.62,0,0,0-7.81-1.17c-5.5.88-10.16,5.41-12.28,11.62h2.24c2.07-6,7.23-9.73,12.27-9.29,4.42.38,7.18,3.82,7.82,4.65.18.27,3.66,5.61,1.11,11.61a11.39,11.39,0,0,1-8.93,7c-5.07.61-10.19-2.68-12.27-8.14H54.64a4,4,0,0,1-2.24-1.16,5.33,5.33,0,0,1-1.11-3.49c-.22-4-2.24-8.36-4.47-10.45a9.19,9.19,0,0,0-5.58-2.33v3.49a11.38,11.38,0,0,1,5.58,4.65c3.51,5.8.16,12.48,0,12.78-.42.52-4.09,4.93-10,4.65a12.62,12.62,0,0,1-8.93-4.65c-.26-.41-3.59-5.86-1.12-11.62a11.74,11.74,0,0,1,5.58-5.81q3.91-19.75,7.82-39.51a4.13,4.13,0,0,1,2.23-1.16,4.17,4.17,0,0,1,1.12,0Q45.7,43.4,47.94,30.62" transform="translate(-1)"/></svg>