<svg id="walk" xmlns="http://www.w3.org/2000/svg" xmlns:xlink="http://www.w3.org/1999/xlink" viewBox="0 0 149 149"><defs><style>.cls-1{fill:url(#Dégradé_sans_nom_23);}.cls-2{fill:#fff;}</style><linearGradient id="Dégradé_sans_nom_23" x1="74.5" x2="74.5" y2="149" gradientUnits="userSpaceOnUse"><stop offset="0" stop-color="#fff"/><stop offset="0" stop-color="#f7691e"/><stop offset="0.27" stop-color="#ad4d35"/><stop offset="0.52" stop-color="#6f3449"/><stop offset="0.74" stop-color="#412358"/><stop offset="0.9" stop-color="#251861"/><stop offset="1" stop-color="#1b1464"/></linearGradient></defs><title>walk</title><g id="Calque_2" data-name="Calque 2"><circle class="cls-1" cx="74.5" cy="74.5" r="74.5"/></g><circle class="cls-2" cx="80.37" cy="27.73" r="11.73"/><path class="cls-2" d="M46.28,60.18c5.79-5.14,10.85-9.46,14.95-12.9a16.69,16.69,0,0,1,5.28-3.22c4.21-1.54,10.63-1.77,13.48,1.76a6,6,0,0,1,.88,1.46c1.92,4.48,3.69,7.79,4.11,8.89a79.15,79.15,0,0,0,4.69,10.17L108.43,76.6a4.06,4.06,0,0,1-3.81,7L85.27,75.13l-5-7.33L76.77,83.64q12.45,20.52,24.92,41a5.93,5.93,0,0,1-9.39,6.74Q76.47,107.53,60.64,83.64a20.44,20.44,0,0,1-.58-3.82,19.42,19.42,0,0,1,.29-4.69l3.52-16.71-10,7.63L51,85.1a4.36,4.36,0,0,1-8.5-1.17Z" transform="translate(-0.5 -0.5)"/><path class="cls-2" d="M58,90.67l9.09,11.73-4.4,10.84L47.74,132a5,5,0,0,1-7.62-6.45l13.19-19.35Z" transform="translate(-0.5 -0.5)"/></svg>